# Alias OBJ Model File
# Exported from SketchUp, (c) 2000-2012 Trimble Navigation Limited
# File units = meters

mtllib Stage_3-6.mtl

g Mesh1 Group1 Model

usemtl FrontColor
v 15.4 1 -15.4
vt 598.425 606.299
vn 0 1 -0
v 20.9 1 -15.4
vt 814.961 606.299
v 20.9 1 -20.9
vt 814.961 822.835
v 20.9 1 -39.5
vt 814.961 1555.12
v 39.5 1 -39.5
vt 1547.24 1555.12
v 39.5 1 -20.9
vt 1547.24 822.835
v 26.6 1 -20.9
vt 1039.37 822.835
v 21.1 1 -20.9
vt 822.835 822.835
v 21.1 1 -15.4
vt 822.835 606.299
v 45 1 -15.4
vt 1763.78 606.299
v 45 1 -45
vt 1763.78 1771.65
v 15.4 1 -45
vt 598.425 1771.65
f 1/1/1 2/2/1 3/3/1 4/4/1 5/5/1 6/6/1 7/7/1 8/8/1 9/9/1 10/10/1 11/11/1 12/12/1 

v 15.4 1 -15.2
vt 598.425 598.425
v 20.9 1 -15.2
vt 814.961 598.425
f 13/13/1 14/14/1 2/2/1 1/1/1 

v 0.2 1 -0.2
vt -9.97934e-16 7.87402
vn 2.30432e-18 1 -6.85521e-19
v 15 1 -0.2
vt 582.677 7.87402
v 15 1 -15.4
vt 582.677 606.299
v 15.2 1 -15.4
vt 590.551 606.299
v 15.2 1 -45.2
vt 590.551 1779.53
v 45.2 1 -45.2
vt 1771.65 1779.53
v 45.2 1 -15.2
vt 1771.65 598.425
v 15.2 1 -15.2
vt 590.551 598.425
v 15.2 1 -0.2
vt 590.551 7.87402
v 20.7 1 -0.2
vt 807.087 7.87402
v 60.2 1 -0.2
vt 2362.2 7.87402
v 60.2 1 -60.2
vt 2362.2 2370.08
v 0.2 1 -60.2
vt -9.97934e-16 2370.08
f 15/15/2 16/16/2 17/17/2 18/18/2 19/19/2 20/20/2 21/21/2 14/14/2 13/13/2 22/22/2 23/23/2 24/24/2 25/25/2 26/26/2 27/27/2 

v 15.2 1 -0
vt 590.551 0
v 20.7 1 -0
vt 807.087 0
f 28/28/1 29/29/1 24/24/1 23/23/1 

v 26.6 1 -21.1
vt 1039.37 830.709
v 21.1 1 -21.1
vt 822.835 830.709
f 8/8/1 7/7/1 30/30/1 31/31/1 

v 39.3 1 -21.1
vt 1539.37 830.709
vn -1.30703e-17 1 4.45359e-18
v 39.3 1 -22.35
vt 1539.37 879.921
v 36.3 1 -22.35
vt 1421.26 879.921
v 36.3 1 -25.35
vt 1421.26 998.031
v 39.3 1 -25.35
vt 1539.37 998.031
v 39.3 1 -26.6
vt 1539.37 1047.24
v 21.1 1 -26.6
vt 822.835 1047.24
f 32/32/3 33/33/3 34/34/3 35/35/3 36/36/3 37/37/3 38/38/3 31/31/3 30/30/3 

g Mesh2 Group1 Model

v 41.3 -10 -22.35
vt 1618.11 879.921
v 41.3 -10 -72.15
vt 1618.11 2840.55
v 40.55 -10 -72.15
vt 1588.58 2840.55
v 40.55 -10 -72.35
vt 1588.58 2848.43
v 35.05 -10 -72.35
vt 1372.05 2848.43
v 35.05 -10 -72.15
vt 1372.05 2840.55
v 34.3 -10 -72.15
vt 1342.52 2840.55
v 34.3 -10 -22.35
vt 1342.52 879.921
f 39/39/1 40/40/1 41/41/1 42/42/1 43/43/1 44/44/1 45/45/1 46/46/1 

g Mesh3 Group2 Model

vt -822.835 440.945
vn -1 0 -0
vt -606.299 440.945
v 20.9 5.4 -15.4
vt -606.299 614.173
v 20.9 21 -15.4
vt -606.299 1228.35
v 20.9 21 -20.9
vt -822.835 1228.35
f 3/47/4 2/48/4 47/49/4 48/50/4 49/51/4 

vt -598.425 440.945
v 20.9 5.4 -15.2
vt -598.425 614.173
f 2/48/4 14/52/4 50/53/4 47/49/4 

vt 822.835 440.945
vn 0 0 1
vt 1779.53 440.945
v 45.2 21 -15.2
vt 1779.53 1228.35
v 20.9 21 -15.2
vt 822.835 1228.35
vt 822.835 614.173
f 14/54/5 21/55/5 51/56/5 52/57/5 50/58/5 

vt 598.425 440.945
vn 1 0 -0
v 45.2 21 -45.2
v 45.2 21 -45
vt 1771.65 1228.35
v 45.2 21 -15.4
vt 606.299 1228.35
vt 598.425 1228.35
f 21/59/6 20/55/6 53/56/6 54/60/6 55/61/6 51/62/6 

vt -1779.53 440.945
vn 0 0 -1
v 15.2 21 -45.2
vt -598.425 1228.35
vt -1779.53 1228.35
f 20/63/7 19/52/7 56/64/7 53/65/7 

v 15.2 21 -15.4
f 19/63/4 18/48/4 57/50/4 56/65/4 

vt -590.551 440.945
v 15 21 -15.4
vt -590.551 1228.35
f 57/64/7 18/52/7 17/66/7 58/67/7 

vt -7.87402 440.945
v 15 21 -0.2
vt -7.87402 1228.35
f 16/68/4 59/69/4 58/50/4 17/48/4 

vn -1.02281e-15 -4.17739e-32 -1
v 0.2 21 -0.2
f 16/66/8 15/68/8 60/69/8 59/67/8 

vt 2370.08 440.945
v 0.2 21 -60.2
vt 2370.08 1228.35
vt 7.87402 1228.35
vt 7.87402 440.945
f 27/70/6 61/71/6 60/72/6 15/73/6 

v 60.2 21 -60.2
f 27/73/5 26/70/5 62/71/5 61/72/5 

vt -2370.08 440.945
v 60.2 21 -0.2
v 60.2 21 -15.2
v 60.2 21 -15.4
v 60.2 21 -45
vt -1771.65 1228.35
v 60.2 21 -45.2
vt -2370.08 1228.35
f 26/74/4 25/68/4 63/69/4 64/64/4 65/50/4 66/75/4 67/65/4 62/76/4 

vn 5.07274e-18 -2.60129e-18 -1
vt -814.961 440.945
v 20.7 5.4 -0.2
vt -814.961 614.173
v 20.7 21 -0.2
vt -814.961 1228.35
f 25/74/9 24/77/9 68/78/9 69/79/9 63/76/9 

vt -2.32612e-15 440.945
v 20.7 5.4 1.53828e-18
vt -2.26556e-15 614.173
vt -7.87402 614.173
f 24/68/4 29/80/4 70/81/4 68/82/4 

v 60.4 0 -0
vt 2377.95 401.575
vn -2.60183e-19 -2.83956e-19 1
v 60.4 21 -0
vt 2377.95 1228.35
v 20.7 21 -0
vt 814.961 1228.35
vt 814.961 614.173
vt 814.961 440.945
v 15.2 5.4 -0
vt 598.425 614.173
v 15.2 21 -0
v 60.4 21 -0
v 60.4 21 -0
v 60.4 21.2 5.90834e-17
vt 2377.95 1236.22
v 0 21.2 -0
vt -6.05217e-34 1236.22
v 0 0 -0
vt -6.05217e-34 401.575
f 71/83/10 72/84/10 73/85/10 70/86/10 29/87/10 28/59/10 74/88/10 75/62/10 76/84/10 77/84/10 78/89/10 79/90/10 80/91/10 

vt 2.32612e-15 401.575
v 60.4 0 -60.4
v 60.4 21 -60.4
v 60.4 21 -60.2
v 60.4 21 -45.2
v 60.4 21 -45
v 60.4 21 -15.4
v 60.4 21 -15.2
v 60.4 21 -0.2
vt 2.32612e-15 1228.35
f 71/92/6 81/83/6 82/84/6 83/71/6 84/56/6 85/60/6 86/61/6 87/62/6 88/72/6 72/93/6 

vt -2377.95 2.32612e-15
vn 0 -1 -0
v 39.5 0 -22.15
vt -1555.12 872.047
vt -2377.95 2377.95
f 71/94/11 89/95/11 81/96/11

v 36.1 0 -22.15
vt -1421.26 872.047
f 71/94/11 90/97/11 89/95/11

vt 0 2.32612e-15
f 80/98/11 90/97/11 71/94/11

v 36.1 0 -25.55
vt -1421.26 1005.91
f 90/97/11 80/98/11 91/99/11

f 80/98/11 81/96/11 91/99/11

v 0 0 -60.4
vt 0 2377.95
f 81/96/11 80/98/11 92/100/11

vt -2377.95 401.575
vt -2.32612e-15 401.575
vt -2.32612e-15 1236.22
v 0 21.2 -60.4
vt -2377.95 1236.22
f 92/101/4 80/102/4 79/103/4 93/104/4 

vt 2377.95 0
v 60.4 21.2 -60.4
vt 2377.95 2377.95
f 79/98/1 78/105/1 94/106/1 93/100/1 

vt 0 1236.22
f 94/89/6 78/107/6 72/93/6 88/72/6 87/62/6 86/61/6 85/60/6 84/56/6 83/71/6 82/84/6 

vt 814.961 2.32612e-15
vt 2377.95 2.32612e-15
vt 2377.95 7.87402
vt 2370.08 7.87402
vt 814.961 7.87402
f 73/108/1 72/109/1 88/110/1 63/111/1 69/112/1 

vt -2377.95 7.87402
vt -2370.08 7.87402
vt -2370.08 598.425
vt -2377.95 598.425
f 88/113/11 63/114/11 64/115/11 87/116/11 

vt -1779.53 598.425
vt -814.961 7.87402
v 15.2 21 -0.2
vt -598.425 7.87402
v 15.2 21 -15.2
vt -598.425 598.425
vt -822.835 598.425
f 51/117/11 64/115/11 63/114/11 69/118/11 95/119/11 96/120/11 52/121/11 

vt -1779.53 606.299
vt -2370.08 606.299
f 55/122/11 65/123/11 64/115/11 51/117/11 

vt -1779.53 1771.65
vt -2370.08 1771.65
f 54/124/11 66/125/11 65/123/11 55/122/11 

vt -1779.53 1779.53
vt -2370.08 1779.53
f 53/126/11 67/127/11 66/125/11 54/124/11 

vt -7.87402 2370.08
vt -2370.08 2370.08
vt -598.425 1779.53
vt -598.425 606.299
vt -590.551 606.299
vt -590.551 7.87402
vt -7.87402 7.87402
f 61/128/11 62/129/11 67/127/11 53/126/11 56/130/11 57/131/11 58/132/11 59/133/11 60/134/11 

vt 2370.08 2370.08
vt 2370.08 1779.53
vt 2377.95 1779.53
vt 2377.95 2370.08
f 62/135/1 67/136/1 84/137/1 83/138/1 

vt 2370.08 1771.65
vt 2377.95 1771.65
f 67/136/1 66/139/1 85/140/1 84/137/1 

vt 2377.95 606.299
vt 2370.08 606.299
f 86/141/1 85/140/1 66/139/1 65/142/1 

vt 2370.08 598.425
vt 2377.95 598.425
f 65/142/1 64/143/1 87/144/1 86/141/1 

vt 598.425 1779.53
v 15.4 21 -15.4
vt 606.299 606.299
v 15.4 21 -45
vt 606.299 1771.65
v 45 21 -45
vt 1771.65 1771.65
vt 1779.53 1771.65
vt 1779.53 1779.53
f 56/145/1 57/1/1 97/146/1 98/147/1 99/148/1 54/149/1 53/150/1 

vt 598.425 7.87402
vt 822.835 598.425
f 95/151/1 96/13/1 52/152/1 48/9/1 97/146/1 57/1/1 58/18/1 59/23/1 

v 15.2 5.4 -0.2
vt 7.87402 614.173
f 22/59/6 96/62/6 95/72/6 100/153/6 23/73/6 

vt 606.299 440.945
v 15.4 5.4 -15.2
vt 606.299 614.173
f 13/154/5 101/155/5 50/58/5 52/57/5 96/62/5 22/59/5 

v 15.4 5.4 -15.4
f 1/154/6 102/155/6 101/88/6 13/59/6 

vt 1771.65 440.945
f 1/154/6 12/156/6 98/60/6 97/61/6 102/155/6 

f 12/154/5 11/156/5 99/60/5 98/61/5 

vt -1771.65 440.945
v 45 21 -15.4
f 11/157/4 10/48/4 103/50/4 99/75/4 

vt -830.709 440.945
v 21.1 21 -15.4
vt -830.709 1228.35
f 10/157/7 9/158/7 104/159/7 103/75/7 

v 21.1 5.4 -20.9
v 21.1 21 -20.9
f 9/154/6 8/54/6 105/58/6 106/57/6 104/61/6 

vt 830.709 440.945
v 21.1 5.4 -21.1
vt 830.709 614.173
f 31/160/6 107/161/6 105/58/6 8/54/6 

vt 1047.24 440.945
v 21.1 21 -26.6
vt 1047.24 1228.35
v 21.1 21 -21.1
vt 830.709 1228.35
f 31/160/6 38/162/6 108/163/6 109/164/6 107/161/6 

vt 1547.24 440.945
v 39.3 21 -26.6
vt 1547.24 1228.35
f 38/160/5 37/165/5 110/166/5 108/164/5 

vt -879.921 440.945
v 39.3 21 -21.1
vt -1047.24 1228.35
vt -1047.24 440.945
vt -998.031 440.945
v 39.3 -5 -25.35
vt -998.031 204.724
v 39.3 -5 -22.35
vt -879.921 204.724
f 33/167/4 32/158/4 111/159/4 110/168/4 37/169/4 36/170/4 112/171/4 113/172/4 

vt -1547.24 440.945
v 26.6 5.4 -21.1
vt -1047.24 614.173
v 26.6 21 -21.1
vt -1547.24 1228.35
f 32/173/7 30/169/7 114/174/7 115/168/7 111/175/7 

vn -1 1.95205e-16 2.38626e-31
v 26.6 5.4 -20.9
vt -822.835 614.173
vt -830.709 614.173
f 30/158/12 7/47/12 116/176/12 114/177/12 

vt 1555.12 440.945
v 39.5 21 -20.9
vt 1555.12 1228.35
v 26.6 21 -20.9
vt 1047.24 614.173
f 7/162/5 6/178/5 117/179/5 118/163/5 116/180/5 

v 39.5 21 -39.5
f 6/54/6 5/178/6 119/179/6 117/57/6 

vt -1555.12 440.945
v 20.9 21 -39.5
vt -1555.12 1228.35
f 5/181/7 4/47/7 120/51/7 119/182/7 

f 4/181/4 3/47/4 49/51/4 120/182/4 

vt -830.709 822.835
vt -1047.24 822.835
vt -1555.12 822.835
vt -1555.12 1555.12
vt -822.835 1555.12
vt -822.835 822.835
vt -822.835 606.299
vt -606.299 606.299
vt -606.299 1771.65
vt -1771.65 1771.65
vt -1771.65 606.299
vt -830.709 606.299
f 106/183/11 118/184/11 117/185/11 119/186/11 120/187/11 49/188/11 48/189/11 97/190/11 98/191/11 99/192/11 103/193/11 104/194/11 

vt -1547.24 1047.24
f 106/183/11 110/195/11 118/184/11

vt -830.709 1047.24
f 106/183/11 108/196/11 110/195/11

v 21.1 21 -26.8
vt -830.709 1055.12
f 106/183/11 121/197/11 108/196/11

v 21.1 21 -39.3
vt -830.709 1547.24
f 106/183/11 122/198/11 121/197/11

f 122/198/11 106/183/11 49/188/11

f 49/188/11 106/183/11 104/194/11 48/189/11 

vt 1779.53 598.425
vt 1779.53 606.299
vt 1771.65 606.299
vt 830.709 606.299
f 51/199/1 55/200/1 103/201/1 104/202/1 48/9/1 52/152/1 

f 99/148/1 103/201/1 55/200/1 54/149/1 

f 120/187/11 122/198/11 49/188/11

f 122/198/11 120/187/11 119/186/11

v 39.3 21 -39.3
vt -1547.24 1547.24
f 122/198/11 119/186/11 123/203/11

v 39.3 21 -26.8
vt -1547.24 1055.12
f 123/203/11 119/186/11 124/204/11

f 124/204/11 119/186/11 110/195/11

f 117/185/11 110/195/11 119/186/11

f 118/184/11 110/195/11 117/185/11

vt 1547.24 1047.24
vt 1547.24 1055.12
vt 830.709 1055.12
vt 830.709 1047.24
f 110/205/1 124/206/1 121/207/1 108/208/1 

v 39.3 1 -26.8
v 21.1 1 -26.8
f 125/173/7 126/158/7 121/159/7 124/175/7 

v 21.1 1 -39.3
vt 830.709 1547.24
v 39.3 1 -39.3
vt 1547.24 1547.24
f 127/209/1 126/207/1 125/206/1 128/210/1 

vt 1055.12 440.945
vt 1055.12 1228.35
f 126/211/6 127/165/6 122/166/6 121/212/6 

f 127/160/5 128/165/5 123/166/5 122/164/5 

vt -1055.12 440.945
vt -1055.12 1228.35
f 128/173/4 125/213/4 124/214/4 123/175/4 

vt -1547.24 830.709
vt -1047.24 830.709
vt -830.709 830.709
f 111/215/11 115/216/11 109/217/11 108/196/11 110/195/11 

f 107/177/7 109/159/7 115/168/7 114/174/7 

f 105/183/11 107/217/11 114/216/11 116/184/11 

f 106/164/5 105/161/5 116/180/5 118/163/5 

f 102/49/7 97/50/7 48/51/7 47/176/7 

vt -606.299 598.425
f 101/218/11 102/190/11 47/189/11 50/121/11 

vt 1429.13 440.945
v 36.3 -5 -25.35
vt 1429.13 204.724
vt 1547.24 204.724
f 36/165/5 35/219/5 129/220/5 112/221/5 

vt 998.031 440.945
vt 879.921 440.945
v 36.3 -5 -22.35
vt 879.921 204.724
vt 998.031 204.724
f 35/222/6 34/223/6 130/224/6 129/225/6 

v 36.5 -5.2 -22.35
vt -1437.01 196.85
v 36.3 -5.2 -22.35
vt -1429.13 196.85
vt -1429.13 204.724
vt -1429.13 440.945
vt -1547.24 204.724
v 39.3 -5.2 -22.35
vt -1547.24 196.85
v 39.1 -5.2 -22.35
vt -1539.37 196.85
v 39.1 0.8 -22.35
vt -1539.37 433.071
v 36.5 0.8 -22.35
vt -1437.01 433.071
f 131/226/7 132/227/7 130/228/7 34/229/7 33/173/7 113/230/7 133/231/7 134/232/7 135/233/7 136/234/7 

v 41.3 -5.2 -22.35
vt -1625.98 196.85
vt -1625.98 7.87402
vt -1350.39 7.87402
v 34.3 -5.2 -22.35
vt -1350.39 196.85
v 36.1 -5.2 -22.35
vt -1421.26 196.85
v 39.5 -5.2 -22.35
vt -1555.12 196.85
f 137/235/7 39/236/7 46/237/7 138/238/7 139/239/7 132/227/7 131/226/7 136/234/7 135/233/7 134/232/7 133/231/7 140/240/7 

vt -879.921 7.87402
vt -879.921 196.85
v 41.3 -5.2 -72.15
vt -2840.55 196.85
vt -2840.55 7.87402
f 39/241/4 137/242/4 141/243/4 40/244/4 

vt -1555.12 879.921
v 39.5 -5.2 -72.15
vt -1555.12 2840.55
v 40.55 -5.2 -72.15
vt -1596.46 2840.55
vt -1625.98 2840.55
vt -1625.98 879.921
f 140/245/11 142/246/11 143/247/11 141/248/11 137/249/11 

vt -1547.24 879.921
v 39.3 -5.2 -72.15
vt -1547.24 2840.55
f 133/250/11 144/251/11 142/246/11 140/245/11 

v 39.3 -5 -72.15
vt -2840.55 204.724
f 112/171/4 145/252/4 144/243/4 133/242/4 113/172/4 

vt -1429.13 998.031
v 36.3 -5 -72.15
vt -1429.13 2840.55
vt -1547.24 998.031
f 129/253/11 146/254/11 145/251/11 112/255/11 

vt 879.921 196.85
v 36.3 -5.2 -72.15
vt 2840.55 196.85
vt 2840.55 204.724
f 132/256/6 147/257/6 146/258/6 129/225/6 130/224/6 

vt -1421.26 879.921
v 36.1 -5.2 -72.15
vt -1421.26 2840.55
vt -1429.13 879.921
f 139/259/11 148/260/11 147/254/11 132/261/11 

v 34.3 -5.2 -72.15
vt -1350.39 2840.55
v 35.05 -5.2 -72.15
vt -1379.92 2840.55
vt -1350.39 879.921
f 149/262/11 150/263/11 148/260/11 139/259/11 138/264/11 

vt 1379.92 7.87402
v 35.05 -5.6 -72.15
vt 1379.92 181.102
vt 1379.92 196.85
vt 1350.39 196.85
vt 1350.39 7.87402
f 44/265/5 151/266/5 150/267/5 149/268/5 45/269/5 

vt 2848.43 7.87402
v 35.05 -5.6 -72.35
vt 2848.43 181.102
vt 2840.55 181.102
vt 2840.55 7.87402
f 43/270/6 152/271/6 151/272/6 44/273/6 

vt -1379.92 181.102
vt -1379.92 7.87402
v 34.3 -10 -72.35
v 34.3 -5.2 -72.35
v 35.05 -5.2 -72.35
vt -1379.92 196.85
f 152/274/7 43/275/7 153/237/7 154/238/7 155/276/7 

vt 1379.92 2848.43
vt 1350.39 2848.43
vt 1350.39 2840.55
vt 1379.92 2840.55
f 43/277/1 153/278/1 45/279/1 44/280/1 

v 41.3 -10 -72.35
v 41.5 -10 -72.35
vt -1633.86 7.87402
v 41.5 -10.2 -72.35
vt -1633.86 0
v 34.1 -10.2 -72.35
vt -1342.52 0
v 34.1 -10 -72.35
vt -1342.52 7.87402
vt -1596.46 7.87402
f 156/236/7 157/281/7 158/282/7 159/283/7 160/284/7 153/237/7 43/275/7 42/285/7 

v 41.3 -5.2 -72.35
v 40.55 -5.2 -72.35
vt -1596.46 196.85
v 40.55 -5.6 -72.35
vt -1596.46 181.102
v 39.5 -5.6 -72.35
vt -1555.12 181.102
v 39.3 -5.6 -72.35
vt -1547.24 181.102
v 39.3 -5 -72.35
v 39.5 -5 -72.35
vt -1555.12 204.724
v 41.5 -5 -72.35
vt -1633.86 204.724
f 157/281/7 156/236/7 161/235/7 162/286/7 163/287/7 164/288/7 165/289/7 166/230/7 167/290/7 168/291/7 

vt -2848.43 196.85
vt -2848.43 7.87402
f 161/292/4 156/293/4 40/244/4 141/243/4 

f 42/285/7 163/287/7 162/286/7 161/235/7 156/236/7 

vt -2848.43 181.102
v 40.55 -5.6 -72.15
vt -2840.55 181.102
f 163/294/4 42/293/4 41/244/4 169/295/4 

vt 1625.98 2848.43
vt 1596.46 2848.43
vt 1596.46 2840.55
vt 1625.98 2840.55
f 156/296/1 42/297/1 41/298/1 40/299/1 

vt 1596.46 181.102
vt 1596.46 7.87402
vt 1625.98 7.87402
vt 1625.98 196.85
vt 1596.46 196.85
f 169/300/5 41/301/5 40/302/5 141/303/5 143/304/5 

vt -1596.46 2848.43
vt -1625.98 2848.43
f 162/305/11 161/306/11 141/248/11 143/247/11 

f 143/243/4 162/292/4 163/294/4 169/295/4 

v 39.5 -5.6 -72.15
vt -1555.12 2848.43
f 163/305/11 169/247/11 170/246/11 164/307/11 

vt 1555.12 196.85
vt 1555.12 181.102
f 143/304/5 142/308/5 170/309/5 169/300/5 

vt 1547.24 196.85
v 39.3 -5.6 -72.15
vt 1547.24 181.102
f 142/308/5 144/310/5 171/311/5 170/309/5 

vt 1429.13 196.85
v 36.3 -5.6 -72.15
vt 1429.13 181.102
f 145/221/5 146/220/5 147/312/5 172/313/5 171/311/5 144/310/5 

vt 1421.26 196.85
v 36.1 -5.6 -72.15
vt 1421.26 181.102
f 147/312/5 148/314/5 173/315/5 172/313/5 

f 148/314/5 150/267/5 151/266/5 173/315/5 

vt 2848.43 196.85
f 155/316/6 150/257/6 151/272/6 152/271/6 

vt -1350.39 2848.43
vt -1379.92 2848.43
f 154/317/11 155/318/11 150/263/11 149/262/11 

v 34.1 -5 -72.35
vt -1342.52 204.724
v 36.1 -5 -72.35
vt -1421.26 204.724
v 36.3 -5 -72.35
v 36.3 -5.6 -72.35
vt -1429.13 181.102
v 36.1 -5.6 -72.35
vt -1421.26 181.102
f 154/238/7 153/237/7 160/284/7 174/319/7 175/320/7 176/228/7 177/321/7 178/322/7 152/274/7 155/276/7 

f 153/270/6 154/316/6 149/257/6 45/273/6 

vt 879.921 7.87402
f 138/256/6 46/323/6 45/273/6 149/257/6 

v 34.1 -10.2 -22.15
vt -872.047 0
v 34.1 -5 -22.15
vt -872.047 204.724
vt -2848.43 204.724
vt -2848.43 0
f 179/324/4 180/325/4 174/326/4 160/293/4 159/327/4 

vt 1555.12 401.575
vt 1421.26 401.575
v 36.1 -5 -22.15
vt 1421.26 204.724
vt 1342.52 204.724
vt 1342.52 0
v 41.5 -10.2 -22.15
vt 1633.86 0
v 41.5 -5 -22.15
vt 1633.86 204.724
v 39.5 -5 -22.15
vt 1555.12 204.724
f 89/328/5 90/329/5 181/330/5 180/331/5 179/332/5 182/333/5 183/334/5 184/335/5 

vt -1005.91 401.575
v 36.1 -4.8 -25.55
vt -1005.91 212.598
v 36.1 -4.8 -72.35
vt -2848.43 212.598
vt -872.047 401.575
f 91/336/4 185/337/4 186/338/4 175/326/4 181/325/4 90/339/4 

v 39.5 0 -25.55
vt -1555.12 401.575
v 39.5 -4.8 -25.55
vt -1555.12 212.598
vt -1421.26 212.598
vt -1421.26 401.575
f 187/340/7 188/341/7 185/342/7 91/343/7 

vt 872.047 401.575
vt 872.047 204.724
vt 2848.43 204.724
v 39.5 -4.8 -72.35
vt 2848.43 212.598
vt 1005.91 212.598
vt 1005.91 401.575
f 89/344/6 184/345/6 167/346/6 189/347/6 188/348/6 187/349/6 

vt 1555.12 2848.43
vt 1555.12 872.047
vt 1633.86 872.047
vt 1633.86 2848.43
f 167/350/1 184/351/1 183/352/1 168/353/1 

vt 2848.43 0
vt 872.047 0
f 158/354/6 157/270/6 168/346/6 183/345/6 182/355/6 

vt -1633.86 872.047
vt -1342.52 872.047
vt -1342.52 2848.43
vt -1633.86 2848.43
f 182/356/11 179/357/11 159/358/11 158/359/11 

f 175/320/7 186/342/7 189/341/7 167/290/7 166/230/7 165/289/7 177/321/7 176/228/7 

vt 1421.26 1005.91
vn 2.12327e-16 1 -0
vt 1555.12 1005.91
vt 1421.26 2848.43
f 185/360/13 188/361/13 189/350/13 186/362/13 

vt -1547.24 2848.43
vn -1.44382e-15 -1 -0
vt -1429.13 2848.43
f 165/363/14 171/251/14 172/254/14 177/364/14 

f 164/307/11 170/246/11 171/251/11 165/363/11 

vt -1421.26 2848.43
f 177/364/11 172/254/11 173/260/11 178/365/11 

f 178/365/11 173/260/11 151/263/11 152/318/11 

vt -1555.12 1005.91
f 187/366/11 81/96/11 89/95/11

f 91/99/11 81/96/11 187/366/11

vt 1421.26 872.047
vt 1342.52 2848.43
vt 1342.52 872.047
f 181/367/1 175/362/1 174/368/1 180/369/1 

vn 4.10177e-18 -2.02459e-17 -1
f 68/78/15 100/53/15 95/64/15 69/79/15 

vt -814.961 2.26556e-15
vt -598.425 2.32612e-15
f 70/370/11 74/371/11 100/119/11 68/118/11 

vn -1.39843e-19 4.93037e-20 1
f 74/88/16 70/86/16 73/85/16 75/62/16 

vt -2.32612e-15 1228.35
f 70/81/4 73/372/4 69/69/4 68/82/4 

vt -814.961 2.32612e-15
f 95/119/11 69/118/11 73/373/11 75/371/11 

vt 2.32612e-15 614.173
f 75/93/6 74/374/6 100/153/6 95/72/6 

vt 2.32612e-15 440.945
f 28/375/6 23/73/6 100/153/6 74/374/6 

vt 0 401.575
vt -2377.95 1228.35
f 81/101/7 92/376/7 93/107/7 94/104/7 82/377/7 

