# Alias OBJ Model File
# Exported from SketchUp, (c) 2000-2012 Trimble Navigation Limited
# File units = meters

mtllib Stage_3-2.mtl

g Mesh1 Group1 Model

usemtl FrontColor
v 30.2 10 -25.2
vt 1181.1 992.126
vn 8.66294e-16 1 2.16573e-14
v 25.2 10 -25.2
vt 984.252 992.126
v 25.2 10 -25
vt 984.252 984.252
v 30.2 10 -25
vt 1181.1 984.252
f 1/1/1 2/2/1 3/3/1 4/4/1 

v 25.2 7 -30
vt -984.252 -876.376
vn -1.49274e-17 0.847998 -0.529999
vt -984.252 -653.526
vt -1181.1 -653.526
v 30.2 7 -30
vt -1181.1 -876.376
f 5/5/2 2/6/2 1/7/2 6/8/2 

vt 984.252 1181.1
vn 0 1 -0
vt 1181.1 1181.1
v 30.2 7 -30.2
vt 1181.1 1188.98
v 25.2 7 -30.2
vt 984.252 1188.98
f 5/9/3 6/10/3 7/11/3 8/12/3 

g Mesh2 Group1 Model

v 30.2 1 -10.4
vt 1181.1 409.449
v 30.2 1 -25
v 0.2 1 -25
vt 0 984.252
v 0.2 1 -10.4
vt 0 409.449
f 9/13/3 10/4/3 11/14/3 12/15/3 

g Mesh3 Group1 Model

v 0.2 7 -30.2
vt 0 1188.98
v 0.2 7 -30
vt 6.53699e-13 1181.1
v 5.2 7 -30
vt 196.85 1181.1
v 5.2 7 -30.2
vt 196.85 1188.98
f 13/16/3 14/17/3 15/18/3 16/19/3 

v 5.2 10 -25.2
vt -196.85 -653.526
vt -196.85 -876.376
vt -6.86965e-13 -876.376
v 0.2 10 -25.2
vt -2.79432e-14 -653.526
f 17/20/2 15/21/2 14/22/2 18/23/2 

v 0.2 10 -25
vt 3.06954e-13 984.252
vn -8.66294e-16 1 2.16573e-14
v 5.2 10 -25
vt 196.85 984.252
vt 196.85 992.126
vt 3.06954e-13 992.126
f 19/24/4 20/25/4 17/26/4 18/27/4 

g Mesh4 Group1 Model

v 12.7 7 -30.2
vt 492.126 1188.98
v 12.7 7 -30
vt 492.126 1181.1
v 17.7 7 -30
vt 688.976 1181.1
v 17.7 7 -30.2
vt 688.976 1188.98
f 21/28/3 22/29/3 23/30/3 24/31/3 

vt -492.126 -876.376
vn 3.98064e-17 0.847998 -0.529999
v 12.7 10 -25.2
vt -492.126 -653.526
v 17.7 10 -25.2
vt -688.976 -653.526
vt -688.976 -876.376
f 22/32/5 25/33/5 26/34/5 23/35/5 

vt 688.976 992.126
vt 492.126 992.126
v 12.7 10 -25
vt 492.126 984.252
v 17.7 10 -25
vt 688.976 984.252
f 26/36/3 25/37/3 27/38/3 28/39/3 

g Mesh5 Group1 Model

v 30.2 2 -0.2
vt 1181.1 7.87402
v 24.7 2 -0.2
vt 964.567 7.87402
v 24.7 2 7.44471e-16
vt 964.567 0
v 30.2 2 7.44471e-16
vt 1181.1 0
f 29/40/3 30/41/3 31/42/3 32/43/3 

v 30.2 2 -10.4
v 0.2 2 -10.4
v 0.2 2 -0.2
vt 8.88178e-16 7.87402
f 29/40/3 33/13/3 34/15/3 35/44/3 30/41/3 

g Mesh6 Group1 Model

v 12.45 2 -35.4
vt 482.283 1393.7
vn 2.18761e-17 1 -3.5347e-17
v 12.45 2 -35.2
vt 482.283 1385.83
v 12.45 2 -30.2
vt 482.283 1188.98
v 17.95 2 -30.2
vt 698.819 1188.98
v 17.95 2 -35.2
vt 698.819 1385.83
v 17.95 2 -35.4
vt 698.819 1393.7
f 36/45/6 37/46/6 38/47/6 39/48/6 40/49/6 41/50/6 

g Mesh7 Group1 Model

v 0.2 2 -30.2
vt 5.68434e-15 1188.98
vn -1.44382e-16 1 -6.09978e-32
v 5.2 2 -30.2
v 5.2 2 -35.2
vt 196.85 1385.83
v 0.2 2 -35.2
vt 6.57252e-15 1385.83
f 42/51/7 43/19/7 44/52/7 45/53/7 

g Mesh8 Group1 Model

v 30.2 2 -35.2
vt 1181.1 1385.83
vn 1.80478e-16 1 -3.60956e-17
v 25.2 2 -35.2
vt 984.252 1385.83
v 25.2 2 -30.2
v 30.2 2 -30.2
f 46/54/8 47/55/8 48/12/8 49/11/8 

g Mesh9 Group2 Model

v 30.2 15.2 -25.2
vt 1188.98 992.126
v 17.95 15.2 -30.2
vt 706.693 1188.98
v 17.7 15.2 -25.2
vt 696.85 992.126
f 50/56/3 51/57/3 52/58/3

v 25.2 15.2 -30.2
vt 992.126 1188.98
f 51/57/3 50/56/3 53/59/3

v 25.2 15.2 -35.2
vt 992.126 1385.83
f 53/59/3 50/56/3 54/60/3

v 30.4 15.2 -35.4
vt 1196.85 1393.7
f 55/61/3 54/60/3 50/56/3

v 17.95 15.2 -35.2
vt 706.693 1385.83
f 55/61/3 56/62/3 54/60/3

v 12.45 15.2 -35.2
vt 490.157 1385.83
f 55/61/3 57/63/3 56/62/3

v 5.2 15.2 -35.2
vt 204.724 1385.83
f 55/61/3 58/64/3 57/63/3

v 0 15.2 -35.4
vt 0 1393.7
f 59/65/3 58/64/3 55/61/3

v 0.2 15.2 -25.2
vt 7.87402 992.126
f 58/64/3 59/65/3 60/66/3

v 0.2 15.2 -25
vt 7.87402 984.252
f 60/66/3 59/65/3 61/67/3

v 0 15.2 -2.25597e-17
vt 0 8.88178e-16
f 62/68/3 61/67/3 59/65/3

v 30.4 15.2 -2.25597e-17
vt 1196.85 8.88178e-16
f 61/67/3 62/68/3 63/69/3

vt 0 598.425
vn 0 0 1
v 24.7 6.4 -0
vt 972.441 251.969
vt 1196.85 598.425
f 62/70/9 64/71/9 63/72/9

v 24.7 2 -0
vt 972.441 78.7402
f 62/70/9 65/73/9 64/71/9

v 0 0 -2.25597e-17
vt 0 0
f 66/74/9 65/73/9 62/70/9

v 30.2 2 -0
vt 1188.98 78.7402
f 65/73/9 66/74/9 67/75/9

v 30.4 0 -2.25597e-17
vt 1196.85 0
f 68/76/9 67/75/9 66/74/9

f 67/75/9 68/76/9 63/72/9

vt 8.88178e-16 0
vn 1 0 -0
v 30.4 0 -35.4
vt 1393.7 0
vt 1393.7 598.425
vt 8.88178e-16 598.425
f 68/77/10 69/78/10 55/79/10 63/80/10 

vn 0 -1 -0
v 0 0 -35.4
vt -1196.85 1393.7
vt -1196.85 8.88178e-16
f 66/68/11 70/65/11 69/81/11 68/82/11 

vt -1393.7 0
vn -1 0 -0
vt -8.88178e-16 0
vt -8.88178e-16 598.425
vt -1393.7 598.425
f 70/83/12 66/84/12 62/85/12 59/86/12 

vt -490.157 78.7402
vn 0 0 -1
f 36/87/13 70/74/13 59/70/13

vt -1196.85 0
f 70/74/13 36/87/13 69/88/13

vt -706.693 78.7402
f 41/89/13 69/88/13 36/87/13

vt -1196.85 598.425
f 69/88/13 41/89/13 55/90/13

v 17.95 6.4 -35.4
vt -706.693 251.969
f 55/90/13 41/89/13 71/91/13

vt -1385.83 78.7402
v 17.95 6.4 -35.2
vt -1385.83 251.969
vt -1393.7 251.969
vt -1393.7 78.7402
f 40/92/12 72/93/12 71/94/12 41/95/12 

vn -1 2.30085e-16 6.4043e-17
vt -1188.98 78.7402
v 17.95 15 -30.2
vt -1188.98 590.551
v 17.95 15 -35.2
vt -1385.83 590.551
f 40/92/14 39/96/14 73/97/14 74/98/14 72/93/14 

vt 706.693 78.7402
vn 4.56464e-14 2.24999e-14 1
vt 992.126 78.7402
v 25.2 7 -30.2
vt 992.126 275.591
v 25.2 12 -30.2
vt 992.126 472.441
v 25.2 15 -30.2
vt 992.126 590.551
vt 706.693 590.551
f 39/99/15 48/100/15 75/101/15 76/102/15 77/103/15 73/104/15 

vt 7.87402 1188.98
vn -2.34676e-18 1 1.20319e-16
v 0.2 2 -25.2
v 30.2 2 -25.2
vt 1188.98 1188.98
vt 490.157 1188.98
vt 204.724 1188.98
f 42/105/16 78/66/16 79/56/16 49/106/16 48/59/16 39/57/16 38/107/16 43/108/16 

vn 1 -9.70084e-16 8.92478e-16
vt 1188.98 275.591
vt 1181.1 275.591
v 0.2 7 -25.2
f 78/100/17 42/75/17 13/109/17 14/110/17 80/101/17 

vt 1385.83 78.7402
vn 1 -6.05095e-17 8.30693e-18
v 0.2 15 -35.2
vt 1385.83 590.551
v 0.2 15 -30.2
vt 1188.98 590.551
v 0.2 12 -30.2
vt 1188.98 472.441
f 45/111/18 81/112/18 82/113/18 83/114/18 13/109/18 42/75/18 

vt 204.724 78.7402
v 5.2 15 -35.2
vt 204.724 590.551
vt 7.87402 590.551
vt 7.87402 78.7402
f 44/115/9 84/116/9 81/117/9 45/118/9 

vn -1 -1.4636e-16 -2.74129e-16
vt -1188.98 275.591
v 5.2 12 -30.2
vt -1188.98 472.441
v 5.2 15 -30.2
f 44/92/19 43/96/19 16/119/19 85/120/19 86/97/19 84/98/19 

vt 204.724 472.441
vt 204.724 275.591
vt 490.157 78.7402
v 12.45 15 -30.2
vt 490.157 590.551
f 85/121/9 16/122/9 43/115/9 38/123/9 87/124/9 86/116/9 

vt -1181.1 275.591
v 5.2 12 -30
vt -1181.1 472.441
f 15/125/12 88/126/12 85/120/12 16/119/12 

vt -992.126 393.701
v 5.2 15 -25.2
vt -992.126 590.551
f 17/127/12 89/128/12 88/126/12 15/125/12 

vt -984.252 393.701
v 5.2 15 -25
vt -984.252 590.551
f 20/129/12 90/130/12 89/128/12 17/127/12 

vt 992.126 393.701
v 25.2 15 -25
v 17.7 15 -25
vt 696.85 590.551
vt 696.85 393.701
vt 500 393.701
v 12.7 15 -25
vt 500 590.551
vt 204.724 393.701
vt 7.87402 393.701
vt 7.87402 39.3701
vt 1188.98 39.3701
vt 1188.98 393.701
f 3/131/9 91/103/9 92/132/9 28/133/9 27/134/9 93/135/9 90/116/9 20/136/9 19/137/9 11/138/9 10/139/9 4/140/9 

v 25.2 15 -25.2
vt 984.252 590.551
vt 984.252 393.701
f 2/131/10 94/103/10 91/141/10 3/142/10 

vn 1 6.93035e-15 -1.15506e-14
v 25.2 12 -30
vt 1181.1 472.441
f 5/110/20 95/143/20 94/103/20 2/131/20 

vn 1 1.44382e-15 2.95984e-13
f 75/109/21 76/114/21 95/143/21 5/110/21 

vn 1 -6.88288e-16 -2.53005e-15
v 25.2 15 -35.2
f 48/75/22 47/111/22 96/112/22 77/113/22 76/114/22 75/109/22 

v 30.2 15 -35.2
f 46/75/9 97/113/9 96/103/9 47/100/9 

v 30.2 15 -30.2
v 30.2 12 -30.2
f 98/97/12 97/98/12 46/92/12 49/96/12 7/119/12 99/120/12 

vt -1188.98 1188.98
vt -992.126 1188.98
vt -992.126 1385.83
vt -1188.98 1385.83
f 98/144/11 77/145/11 96/146/11 97/147/11 

vt -992.126 472.441
vn 1.36874e-13 2.28124e-13 -1
f 76/148/23 77/128/23 98/97/23 99/120/23 

vn -1 2.40637e-15 -2.95984e-13
v 25.2 15 -30
vt -1181.1 590.551
f 95/126/24 100/149/24 77/97/24 76/120/24 

vt 992.126 1181.1
v 0.2 15 -30
vt 7.87402 1181.1
f 100/150/3 77/59/3 73/57/3 87/107/3 86/108/3 82/105/3 101/151/3 

vt -706.693 590.551
vt -706.693 598.425
vt -992.126 598.425
f 77/128/13 73/152/13 51/153/13 53/154/13 

vn -1 -1.44382e-14 2.11798e-32
vt -1188.98 598.425
vt -1385.83 598.425
f 73/97/25 51/155/25 56/156/25 74/98/25 

f 56/62/3 52/58/3 51/57/3

f 57/63/3 52/58/3 56/62/3

v 12.45 15.2 -30.2
f 102/107/3 52/58/3 57/63/3

v 5.2 15.2 -30.2
f 103/108/3 52/58/3 102/107/3

f 52/58/3 103/108/3 60/66/3

f 58/64/3 60/66/3 103/108/3

f 103/108/3 102/107/3 57/63/3 58/64/3 

vt -490.157 590.551
vt -204.724 590.551
vt -204.724 598.425
vt -490.157 598.425
f 87/157/13 86/158/13 103/159/13 102/160/13 

vn -1 1.08287e-14 -4.33147e-16
f 86/97/26 103/155/26 58/156/26 84/98/26 

vt -204.724 1188.98
vt -7.87402 1188.98
vt -7.87402 1385.83
vt -204.724 1385.83
f 86/161/11 82/162/11 81/163/11 84/164/11 

vt -7.87402 590.551
vt -204.724 472.441
vt -7.87402 472.441
f 82/165/13 86/158/13 85/166/13 83/167/13 

vt -204.724 1181.1
v 0.2 12 -30
vt -7.87402 1181.1
f 85/161/11 88/168/11 104/169/11 83/162/11 

vt 204.724 -751.18
vn 0 -0.847998 0.529999
vt 204.724 -528.33
v 0.2 15 -25.2
vt 7.87402 -528.33
vt 7.87402 -751.18
f 88/170/27 89/171/27 105/172/27 104/173/27 

v 17.7 15 -25.2
vt -696.85 590.551
vn 2.26694e-16 -2.16573e-14 -1
v 12.7 15 -25.2
vt -500 590.551
vt -7.87402 598.425
vt -696.85 598.425
f 106/174/28 107/175/28 89/158/28 105/165/28 60/176/28 52/177/28 

vt -500 984.252
vn -2.1975e-13 -1 -5.49375e-12
vt -500 992.126
vt -696.85 992.126
vt -696.85 984.252
f 93/178/29 107/179/29 106/180/29 92/181/29 

vn 1 -1.58821e-15 3.97051e-14
f 25/131/30 107/103/30 93/141/30 27/142/30 

vn 1 -1.58821e-15 -3.60956e-16
v 12.7 12 -30
f 22/110/31 108/143/31 107/103/31 25/131/31 

v 12.7 12 -30.2
f 22/110/10 21/109/10 109/114/10 108/143/10 

vt -500 275.591
vt -500 472.441
f 21/182/13 87/157/13 109/183/13

f 87/157/13 21/182/13 38/87/13

vt -696.85 275.591
f 24/184/13 38/87/13 21/182/13

f 24/184/13 39/89/13 38/87/13

f 39/89/13 24/184/13 73/152/13

v 17.7 12 -30.2
vt -696.85 472.441
f 73/152/13 24/184/13 110/185/13

v 17.7 12 -30
f 23/125/12 111/126/12 110/120/12 24/119/12 

vn -1 -7.65108e-32 -6.01593e-16
f 26/127/32 106/128/32 111/126/32 23/125/32 

vn -1 0 1.44382e-14
f 26/127/33 28/129/33 92/130/33 106/128/33 

vt 696.85 -751.18
vn -1.86498e-13 -0.847998 0.529999
vt 696.85 -528.33
vt 500 -528.33
vt 500 -751.18
f 111/186/34 106/187/34 107/188/34 108/189/34 

vt -696.85 1188.98
vt -696.85 1181.1
vt -500 1181.1
vt -500 1188.98
f 110/190/11 111/191/11 108/192/11 109/193/11 

f 109/183/13 87/157/13 110/185/13

f 73/152/13 110/185/13 87/157/13

vt -706.693 1188.98
vt -490.157 1188.98
v 12.45 15 -35.2
vt -490.157 1385.83
vt -706.693 1385.83
f 73/194/11 87/195/11 112/196/11 74/197/11 

v 12.45 6.4 -35.2
vt 1385.83 251.969
f 38/75/10 37/111/10 113/198/10 112/112/10 87/113/10 

vt 1393.7 78.7402
v 12.45 6.4 -35.4
vt 1393.7 251.969
f 113/198/10 37/111/10 36/199/10 114/200/10 

vt -490.157 251.969
f 36/87/13 59/70/13 114/201/13

f 114/201/13 59/70/13 71/91/13

f 55/90/13 71/91/13 59/70/13

vt -490.157 1393.7
vt -706.693 1393.7
f 72/197/11 113/196/11 114/202/11 71/203/11 

vt 706.693 251.969
vt 490.157 251.969
f 72/204/9 74/104/9 112/124/9 113/205/9 

vt 1188.98 598.425
vt 1385.83 598.425
f 102/206/10 87/113/10 112/112/10 57/207/10 

vn -1 -9.62549e-16 -7.96987e-32
v 17.7 7 -25.2
vt -992.126 275.591
f 26/127/35 23/125/35 115/208/35

vt 696.85 1181.1
vt 500 1181.1
v 12.7 7 -25.2
vt 500 992.126
f 23/209/3 22/210/3 116/211/3 115/58/3 

vn 1 4.81274e-16 3.98494e-32
f 22/110/36 25/131/36 116/101/36

vt -500 393.701
vt -696.85 393.701
f 115/184/13 116/182/13 25/212/13 26/213/13 

v 0.2 15 -0.2
vt -7.87402 7.87402
v 0.2 15 -25
vt -7.87402 984.252
vt -204.724 984.252
vt -992.126 984.252
v 30.2 15 -25
vt -1188.98 984.252
v 30.2 15 -0.2
vt -1188.98 7.87402
f 117/214/11 118/215/11 90/216/11 93/178/11 92/181/11 91/217/11 119/218/11 120/219/11 

vn 1 -3.4721e-17 1.44591e-18
v 0.2 2 -0.2
vt 409.449 78.7402
vt 409.449 39.3701
vt 984.252 39.3701
f 19/142/37 118/141/37 117/117/37 121/118/37 34/220/37 12/221/37 11/222/37 

vn 1 -1.44382e-16 -3.04459e-30
f 19/142/38 18/131/38 105/103/38 118/141/38 

vn 1 9.89781e-16 1.89051e-16
f 83/114/39 104/143/39 105/103/39 18/131/39 14/110/39 13/109/39 

vt 1181.1 590.551
f 104/143/10 101/223/10 105/103/10

vn 1 1.27518e-30 3.45916e-15
f 18/131/40 80/101/40 14/110/40

vt -7.87402 393.701
vt -204.724 393.701
v 5.2 7 -25.2
vt -204.724 275.591
vt -7.87402 275.591
f 18/224/13 17/225/13 122/226/13 80/227/13 

f 122/208/12 17/127/12 15/125/12

vt 204.724 992.126
vt 204.724 1181.1
f 80/66/3 122/228/3 15/229/3 14/151/3 

vt -204.724 992.126
vt -7.87402 992.126
f 89/230/11 90/216/11 118/215/11 105/231/11 

vn 5.66046e-18 -5.4722e-17 -1
v 30.2 6.4 -0.2
vt -1188.98 251.969
v 24.7 6.4 -0.2
vt -972.441 251.969
v 24.7 2 -0.2
vt -972.441 78.7402
vt -7.87402 78.7402
f 117/165/41 120/97/41 123/232/41 124/233/41 125/234/41 121/235/41 

vt -409.449 39.3701
vn -1 -1.04614e-14 -6.05157e-17
vt -409.449 78.7402
v 30.2 2 -0.2
vt -7.19518e-14 78.7402
v 30.2 6.4 -0
vt -7.19518e-14 251.969
vt -7.87402 251.969
vt -984.252 39.3701
f 9/236/42 33/237/42 126/235/42 67/238/42 127/239/42 123/240/42 120/165/42 119/130/42 4/129/42 10/241/42 

vt -1188.98 39.3701
vt -7.87402 39.3701
f 34/235/13 33/96/13 9/242/13 12/243/13 

vt 1188.98 251.969
f 67/75/9 63/72/9 127/244/9

f 127/244/9 63/72/9 64/71/9

vt -972.441 7.87402
vt -1188.98 0
vt -972.441 0
f 124/245/11 123/219/11 127/246/11 64/247/11 

vt 7.87402 251.969
vt 0 251.969
vt 0 78.7402
f 125/118/10 124/248/10 64/249/10 65/250/10 

vn -1 -2.88765e-14 -6.08919e-28
v 30.2 15 -25.2
f 1/127/43 4/129/43 119/130/43 128/128/43 

vt -992.126 992.126
vt -1188.98 992.126
f 91/217/11 94/251/11 128/252/11 119/218/11 

v 30.2 12 -30
vt 1188.98 -751.18
vn 3.68209e-16 -0.847998 0.529999
vt 1188.98 -528.33
vt 992.126 -528.33
vt 992.126 -751.18
f 129/253/44 128/254/44 94/255/44 95/256/44 

vn -1 -1.44382e-14 8.4223e-15
f 1/127/45 128/128/45 129/126/45 6/125/45 

vn -1 0 -3.46517e-13
f 6/125/46 129/126/46 99/120/46 7/119/46 

vn 1.58821e-15 -1 -1.55211e-13
vt -1188.98 1181.1
vt -992.126 1181.1
f 99/144/47 129/257/47 95/258/47 76/145/47 

vn -1 -4.04905e-15 3.72512e-15
vt -992.126 78.7402
v 30.2 7 -25.2
f 49/96/48 79/259/48 130/208/48 6/125/48 7/119/48 

vt 1188.98 1181.1
v 25.2 7 -25.2
vt 992.126 992.126
f 6/260/3 5/150/3 131/261/3 130/56/3 

f 5/110/10 2/131/10 131/101/10

vt -1188.98 393.701
f 130/119/13 131/208/13 2/127/13 1/262/13 

vn -1 2.55036e-30 1.44382e-14
f 1/127/49 6/125/49 130/208/49

f 49/96/13 48/259/13 75/208/13 7/119/13 

vn 1.54943e-13 1 1.35575e-11
v 17.7 15.2 -25
vt 696.85 984.252
f 52/58/50 60/66/50 61/67/50 132/263/50 

f 61/67/3 63/69/3 132/263/3

v 30.2 15.2 -25
vt 1188.98 984.252
f 132/263/3 63/69/3 133/264/3

f 133/264/3 63/69/3 50/56/3

f 55/61/3 50/56/3 63/69/3

f 50/56/3 52/58/3 132/263/3 133/264/3 

f 54/60/3 56/62/3 51/57/3 53/59/3 

vn 1 -1.44382e-14 2.11798e-32
f 53/206/51 77/113/51 96/112/51 54/207/51 

vt -204.724 78.7402
f 13/227/13 16/226/13 43/265/13 42/235/13 

