# Alias OBJ Model File
# Exported from SketchUp, (c) 2000-2012 Trimble Navigation Limited
# File units = meters

mtllib Stage_2-6.mtl

g Mesh1 Group1 Model

usemtl FrontColor
v 24.7 2 -30.4
vt 964.567 1196.85
vn 0 1 -0
v 24.7 2 -30.2
vt 964.567 1188.98
v 30.2 2 -30.2
vt 1181.1 1188.98
v 30.2 2 -30.4
vt 1181.1 1196.85
f 1/1/1 2/2/1 3/3/1 4/4/1 

v 0.2 2 -30.2
vt 8.88178e-16 1188.98
vn -1.08098e-18 1 3.14172e-18
v 0.2 2 -0.2
vt 8.88178e-16 7.87402
v 5.7 2 -0.2
vt 216.535 7.87402
v 30.2 2 -0.2
vt 1181.1 7.87402
f 5/5/2 6/6/2 7/7/2 8/8/2 3/3/2 2/2/2 

v 0.2 2 -0
vt 0 0
vn 3.28142e-17 1 9.02389e-16
v 5.7 2 -0
vt 216.535 6.41186e-30
f 9/9/3 10/10/3 7/7/3 6/6/3 

g Mesh2 Group2 Model

v 30.4 17 -30.4
vt 1196.85 1196.85
v 30.2 17 -30.4
vt 1188.98 1196.85
v 30.2 17 -30.2
vt 1188.98 1188.98
v 0.2 17 -30.2
vt 7.87402 1188.98
v 0.2 17 -0.2
vt 7.87402 7.87402
v 0 17 -0.2
vt 0 7.87402
v 0 17 -0
v 30.4 17 -0
vt 1196.85 0
f 11/11/1 12/12/1 13/13/1 14/14/1 15/15/1 16/16/1 17/9/1 18/17/1 

vt -1196.85 669.291
vn 0 0 -1
v 0 17 -30.4
vt 0 669.291
vt -1188.98 669.291
f 11/18/4 19/19/4 12/20/4

v 30.2 6.4 -30.4
vt -1188.98 251.969
f 11/18/4 20/21/4 19/19/4

vt -1188.98 78.7402
f 11/18/4 4/22/4 20/21/4

v 30.4 0 -30.4
vt -1196.85 0
f 21/23/4 4/22/4 11/18/4

vt -972.441 78.7402
f 4/22/4 21/23/4 1/24/4

v 0 0 -30.4
f 22/9/4 1/24/4 21/23/4

f 1/24/4 22/9/4 19/19/4

vn -1 0 -0
vt -7.87402 669.291
v 0 0 -0
f 17/19/5 16/25/5 19/18/5 22/23/5 23/9/5 

vt 0 1196.85
f 14/14/1 13/13/1 12/12/1 19/26/1 16/16/1 15/15/1 

vn 0 -1 -0
vt -1196.85 1196.85
v 30.4 0 -0
f 22/26/6 21/27/6 24/23/6 23/9/6 

vn 1 0 -0
vt 1196.85 669.291
f 24/9/7 21/17/7 11/28/7 18/19/7 

vt 224.409 78.7402
vn 0 0 1
f 10/29/8 24/17/8 18/28/8

f 24/17/8 10/29/8 23/9/8

vt 7.87402 78.7402
f 9/30/8 23/9/8 10/29/8

f 23/9/8 9/30/8 17/19/8

v 0.2 6.4 -0
vt 7.87402 251.969
f 17/19/8 9/30/8 25/31/8

vt 4.9842e-17 78.7402
vn 1 -3.33221e-17 6.32994e-18
vt 1188.98 78.7402
v 0.2 16.8 -30.2
vt 1188.98 661.417
v 0.2 16.8 -0.2
vt 7.87402 661.417
v 0.2 6.4 -0.2
vt 4.9842e-17 251.969
f 9/32/9 6/30/9 5/33/9 26/34/9 27/35/9 28/31/9 25/36/9 

vt 972.441 78.7402
v 24.7 6.4 -30.2
vt 972.441 251.969
v 30.2 6.4 -30.2
vt 1188.98 251.969
v 30.2 16.8 -30.2
f 5/30/8 2/37/8 29/38/8 30/39/8 31/34/8 26/35/8 

vt 1196.85 78.7402
v 24.7 6.4 -30.4
vt 1196.85 251.969
f 1/40/7 32/41/7 29/39/7 2/33/7 

vt -972.441 251.969
f 1/24/4 19/19/4 32/42/4

f 32/42/4 19/19/4 20/21/4

vt -972.441 1188.98
vt -972.441 1196.85
vt -1188.98 1196.85
vt -1188.98 1188.98
f 29/43/6 32/44/6 20/45/6 30/46/6 

v 30.2 16.8 -0.2
vt -7.87402 661.417
vn -1 6.89532e-16 3.7098e-15
vt -1188.98 661.417
vt -1196.85 251.969
vt -1196.85 78.7402
vt -7.87402 78.7402
f 33/47/10 31/48/10 30/21/10 20/49/10 4/50/10 3/22/10 8/51/10 

vt -1188.98 7.87402
vn 0 -1 2.88765e-16
vt -7.87402 7.87402
vt -7.87402 1188.98
f 33/52/11 27/53/11 26/54/11 31/46/11 

vt -7.87402 251.969
vn 1.44548e-17 -7.42411e-18 -1
vt -224.409 78.7402
v 5.7 6.4 -0.2
vt -224.409 251.969
f 28/55/12 27/47/12 33/48/12 8/22/12 7/56/12 34/57/12 

vt 0 78.7402
v 5.7 6.4 -0
vt 0 251.969
f 10/58/5 35/59/5 34/55/5 7/51/5 

vt 224.409 251.969
f 10/29/8 18/28/8 35/60/8

f 35/60/8 18/28/8 25/31/8

f 17/19/8 25/31/8 18/28/8

vt -224.409 -9.09495e-13
vn 1.31257e-16 -1 3.60956e-15
vt -7.87402 -9.09495e-13
vt -224.409 7.87402
f 35/61/13 25/62/13 28/53/13 34/63/13 

