# Alias OBJ Model File
# Exported from SketchUp, (c) 2000-2012 Trimble Navigation Limited
# File units = meters

mtllib stage_2-2.mtl

g Mesh1 Group1 Model

usemtl FrontColor
v 24.1 8 -11.8
vt 119.515 48.73
vn 3.42215e-16 1 -2.95865e-16
v 25.1 8 -11.8
vt 158.885 48.73
v 25.1 8 -11.9
vt 158.885 52.667
v 24 8 -11.9
vt 115.578 52.667
v 24 8 -10.7
vt 115.578 5.4229
v 25.1 8 -10.7
vt 158.885 5.4229
v 25.1 8 -10.8
vt 158.885 9.35991
v 24.1 8 -10.8
vt 119.515 9.35991
f 1/1/1 2/2/1 3/3/1 4/4/1 5/5/1 6/6/1 7/7/1 8/8/1 

vt 119.515 78.7402
vn 0 0 1
v 24.1 6 -11.8
vt 119.515 5.68434e-14
v 25.1 6 -11.8
vt 158.885 0
vt 158.885 78.7402
f 1/9/2 9/10/2 10/11/2 2/12/2 

vt 9.35991 78.7402
vn 1 -1.0313e-15 -4.28638e-31
v 24.1 6 -10.8
vt 9.35991 1.51678e-13
vt 48.73 1.80099e-13
vt 48.73 78.7402
f 8/13/3 11/14/3 9/15/3 1/16/3 

vt -158.885 78.7402
vn 0 0 -1
v 25.1 6 -10.8
vt -158.885 2.84217e-14
vt -119.515 2.84217e-14
vt -119.515 78.7402
f 7/17/4 12/18/4 11/19/4 8/20/4 

vt -9.35991 1.84226e-13
vn -1 9.80609e-16 -9.14819e-17
vt -9.35991 78.7402
vt -5.4229 78.7402
v 25.1 9.06 -10.7
vt -5.4229 120.472
v 25.1 9.06 -11.9
vt -52.667 120.472
vt -52.667 78.7402
vt -48.73 78.7402
vt -48.73 1.55804e-13
f 12/21/5 7/22/5 6/23/5 13/24/5 14/25/5 3/26/5 2/27/5 10/28/5 

vt 115.578 78.7402
v 24 6 -10.7
vt 115.578 5.68434e-14
v 25.2 6 -10.7
vt 162.822 2.84217e-14
v 25.2 9.06 -10.7
vt 162.822 120.472
vt 158.885 120.472
f 5/29/2 15/30/2 16/31/2 17/32/2 13/33/2 6/12/2 

vn -1 1.44382e-15 -0
v 24 6 -11.9
vt -52.667 2.23717e-13
vt -5.4229 2.23717e-13
f 4/26/6 18/34/6 15/35/6 5/23/6 

v 25.2 9.06 -11.9
vt -162.822 120.472
v 25.2 6 -11.9
vt -162.822 2.84217e-14
vt -115.578 5.68434e-14
vt -115.578 78.7402
vt -158.885 120.472
f 19/36/4 20/37/4 18/38/4 4/39/4 3/17/4 14/40/4 

vt 5.4229 120.472
vn 1 -6.01593e-16 -0
vt 5.4229 1.26374e-13
vt 52.667 1.26374e-13
vt 52.667 120.472
f 17/41/7 16/42/7 20/43/7 19/44/7 

vt -162.822 5.4229
vn -6.01593e-16 -1 -0
vt -158.885 9.35991
vt -162.822 52.667
f 16/45/8 12/46/8 20/47/8

vt -119.515 9.35991
f 16/45/8 11/48/8 12/46/8

vt -115.578 5.4229
f 15/49/8 11/48/8 16/45/8

vt -119.515 48.73
f 11/48/8 15/49/8 9/50/8

vt -115.578 52.667
f 18/51/8 9/50/8 15/49/8

f 9/50/8 18/51/8 20/47/8

vt -158.885 48.73
f 9/50/8 20/47/8 10/52/8

f 10/52/8 20/47/8 12/46/8

vt 162.822 52.667
vn -3.60956e-15 1 -3.72119e-16
vt 162.822 5.4229
f 19/53/9 14/3/9 13/6/9 17/54/9 

v 21.1 9 -11.8
vt 48.73 37.1749
vn 0.325991 0.945373 -3.9589e-16
v 21.1 9 -10.8
vt 9.35991 37.1749
vt 5.4229 -83.5957
vt 52.667 -83.5957
f 21/55/10 22/56/10 5/57/10 4/58/10 

vt -115.356 78.8311
vn 0.0308019 -0.0106214 -0.999469
vt -1.11571 118.203
v 21.426 9.94537 -10.8
vt -13.9439 155.425
v 25.422 8.56742 -10.6622
vt -171.361 101.172
v 25.0961 7.62205 -10.6622
vt -158.533 63.9504
f 5/59/11 22/60/11 23/61/11 24/62/11 25/63/11 

v 21.1 10 -10.8
vt -1.4047 157.48
vn -1.77161e-14 -5.16351e-29 -1
vt -14.239 155.33
vt -1.4047 118.11
f 26/64/12 23/65/12 22/66/12

vt 9.35991 11.6278
vn 0.165268 0.986249 -2.33121e-15
vt 9.35991 24.6411
v 21.1 10 -10.7
vt 5.4229 24.6411
v 21.426 9.94537 -10.7
vt 5.4229 11.6278
f 23/67/13 26/68/13 27/69/13 28/70/13 

vt 14.239 155.33
vn 1.77161e-14 1.02055e-28 1
vt 1.4047 157.48
v 21.1 9 -10.7
vt 1.4047 118.11
f 28/71/14 27/72/14 29/73/14

v 21.4229 9.94644 -10.7001
vt 5.42499 37.3032
vn 0.325991 0.945373 -2.29253e-15
v 25.419 8.56849 -10.5623
vt -9.78296e-13 -129.112
vt 3.93492 -129.241
f 30/74/15 31/75/15 24/76/15 23/56/15 

v 21.0643 8.90652 -10.7001
vt -0.16711 114.481
vn -0.0308019 0.0106214 0.999469
v 25.0604 7.52858 -10.5623
vt 157.25 60.2283
vt 171.361 101.172
vt 13.9439 155.425
f 32/77/16 33/78/16 31/79/16 30/80/16 

v 21.0674 8.90546 -10.8
vt -9.35991 37.1749
vn -0.325991 -0.945373 -4.87979e-15
v 21.0674 8.90546 -11.8
vt -48.73 37.1749
v 21.0643 8.90652 -11.8999
vt -52.6649 37.3032
v 25.0604 7.52858 -12.0377
vt -58.0899 -129.112
v 25.0635 7.52751 -11.9378
vt -54.155 -129.241
v 23.9674 7.90546 -11.9
vt -52.667 -83.5957
v 23.9674 7.90546 -10.7
vt -5.4229 -83.5957
v 25.0635 7.52751 -10.6622
vt -3.93492 -129.241
vt -2.35501e-12 -129.112
vt -5.42499 37.3032
f 34/81/17 35/82/17 36/83/17 37/84/17 38/85/17 39/86/17 40/87/17 41/88/17 33/89/17 32/90/17 

vt -1.62227 113.865
vn -0.0308019 0.0106214 -0.999469
v 21.4229 9.94644 -11.8999
vt -15.7333 154.808
v 25.419 8.56849 -12.0377
vt -173.151 100.555
vt -159.04 59.6116
f 36/91/18 42/92/18 43/93/18 37/94/18 

vt 52.6649 37.3032
v 21.426 9.94537 -11.8
v 25.422 8.56742 -11.9378
vt 54.155 -129.241
vt 58.0899 -129.112
f 42/95/15 44/55/15 45/96/15 43/97/15 

vt 2.90509 117.587
vn 0.0308019 -0.0106214 0.999469
vt 117.145 78.2144
v 25.0961 7.62205 -11.9378
vt 160.322 63.3337
vt 173.151 100.555
vt 15.7333 154.808
f 21/98/19 4/99/19 46/100/19 45/101/19 44/102/19 

vt 48.6526 112.67
vn 0.944871 -0.325818 -0.0325818
vt 48.6969 108.733
vt 52.6336 108.777
vt 52.1471 152.082
vt 48.2103 152.037
f 46/103/20 38/104/20 37/105/20 43/106/20 45/107/20 

vn 1.77161e-14 5.16351e-29 1
v 21.1 10 -11.8
f 44/71/21 47/72/21 21/73/21

vt 48.73 24.6411
vn 0.165268 0.986249 2.44174e-15
vt 48.73 11.6278
v 21.426 9.94537 -11.9
vt 52.667 11.6278
v 21.1 10 -11.9
vt 52.667 24.6411
f 47/108/22 44/109/22 48/110/22 49/111/22 

vn -1.77161e-14 1.02055e-28 -1
v 21.1 9 -11.9
f 49/64/23 48/65/23 50/66/23

vt 9.35853 108.081
vn 0.944871 -0.325818 0.0325818
vt 9.40276 112.018
vt 9.84506 151.385
vt 5.9083 151.429
vt 5.42177 108.125
f 41/112/24 25/113/24 24/114/24 31/115/24 33/116/24 

g Mesh2 Group2 Model

v 21.1 5 -40.2
vt 822.835 1582.68
vn 1.40308e-16 1 3.01685e-16
v 21.1 5 -37.2
vt 822.835 1464.57
v 21.1 5 -31.7
vt 822.835 1248.03
v 21.1 5 -15.4
vt 822.835 606.299
v 28.1 5 -15.4
vt 1098.43 606.299
v 28.1 5 -40.2
vt 1098.43 1582.68
f 51/117/25 52/118/25 53/119/25 54/120/25 55/121/25 56/122/25 

vt -1248.03 196.85
vn -1 0 -0
vt -1464.57 196.85
v 21.1 1.44382e-14 -37.2
vt -1464.57 5.68434e-13
v 21.1 1.51601e-14 -31.7
vt -1248.03 5.96856e-13
f 53/123/26 52/124/26 57/125/26 58/126/26 

v 28.1 5 -15.2
vt 1098.43 598.425
vn 0 1 -0
v 21.1 5 -15.2
vt 822.835 598.425
f 59/127/27 55/121/27 54/120/27 60/128/27 

v 28.1 5 -7.4
vt 1098.43 291.339
vn 5.15651e-17 1 -9.71804e-16
v 21.1 5 -7.4
vt 822.835 291.339
f 61/129/28 59/127/28 60/128/28 62/130/28 

vn 7.21911e-15 1 -7.40422e-16
v 20.9 5 -15.2
vt 814.961 598.425
v 20.9 5 -7.4
vt 814.961 291.339
f 62/130/29 60/128/29 63/131/29 64/132/29 

vn 7.25575e-17 1 7.34344e-18
v 20.9 5 -31.7
vt 814.961 1248.03
v 20.9 5 -37.2
vt 814.961 1464.57
v 20.9 5 -40.2
vt 814.961 1582.68
v 20.9 5 -40.4
vt 814.961 1590.55
v 15.4 5 -40.4
vt 598.425 1590.55
v 15.4 5 -40.2
vt 598.425 1582.68
v 15.4 5 -15.2
vt 598.425 598.425
v 15.2 5 -15.2
vt 590.551 598.425
v 15.2 5 -0.2
vt 590.551 7.87402
v 15.4 5 -0.2
vt 598.425 7.87402
v 15.4 5 -7.21911e-16
vt 598.425 1.44556e-15
v 20.9 5 -7.21911e-16
vt 814.961 1.44556e-15
v 20.9 5 -0.2
vt 814.961 7.87402
f 63/131/30 65/133/30 66/134/30 67/135/30 68/136/30 69/137/30 70/138/30 71/139/30 72/140/30 73/141/30 74/142/30 75/143/30 76/144/30 77/145/30 64/132/30 

vt 1464.57 196.85
vn 1 0 -0
vt 1248.03 196.85
v 20.9 1.51601e-14 -31.7
vt 1248.03 5.96856e-13
v 20.9 1.44382e-14 -37.2
vt 1464.57 5.68434e-13
f 66/146/31 65/147/31 78/148/31 79/149/31 

g Mesh3 Group2 Model

v 15.2 5 -39.2
vt 590.551 196.85
v 0.2 5 -39.2
vt 1.28786e-13 196.85
v 0.2 0 -39.2
vt 1.81188e-13 0
v 15.2 7.94103e-15 -39.2
vt 590.551 3.12639e-13
f 80/150/2 81/151/2 82/152/2 83/153/2 

v 0.2 5 -40.2
vt 5.68434e-14 1582.68
vn -2.88765e-16 1 7.94103e-15
vt 1.85629e-13 1543.31
vt 590.551 1543.31
v 15.2 5 -40.2
vt 590.551 1582.68
f 84/154/32 81/155/32 80/156/32 85/157/32 

g Mesh4 Model

v 8.07465e-16 1.42938e-14 -40.4
vt -1590.55 5.6275e-13
vn -1 -6.71507e-18 1.77631e-17
v 8.07465e-16 1.42938e-14 -7.21911e-16
vt -2.84217e-14 5.6275e-13
v 0 10 -9.66407e-16
vt -3.80475e-14 393.701
v 2.52372e-15 10.2 -2.88765e-15
vt -1.13687e-13 401.575
v 0 10.2 -40.4
vt -1590.55 401.575
f 86/158/33 87/159/33 88/160/33 89/161/33 90/162/33 

vt -3.179e-14 1590.55
vn -1.26315e-17 -1 -1.13223e-17
vt -7.87402 1543.31
vt -3.179e-14 2.84217e-14
f 86/163/34 82/164/34 87/165/34

v 28.3 1.42938e-14 -40.4
vt -1114.17 1590.55
f 82/164/34 86/163/34 91/166/34

vt 0 401.575
vt -1114.17 5.6275e-13
vt -3.179e-14 5.6275e-13
f 90/167/4 91/168/4 86/169/4

vt -606.299 196.85
f 91/168/4 90/167/4 69/170/4

v 15.4 9.4 -40.4
vt -606.299 370.079
f 69/170/4 90/167/4 92/171/4

v 20.9 9.4 -40.4
vt -822.835 370.079
f 92/171/4 90/167/4 93/172/4

v 28.3 10.2 -40.4
vt -1114.17 401.575
f 94/173/4 93/172/4 90/167/4

vt -822.835 196.85
f 94/173/4 68/174/4 93/172/4

f 91/168/4 68/174/4 94/173/4

f 68/174/4 91/168/4 69/170/4

vt 1590.55 5.6275e-13
vt 1590.55 401.575
v 28.3 10.2 -7.2
vt 283.465 401.575
v 28.3 10 -7.2
vt 283.465 393.701
v 28.3 1.42938e-14 -7.2
vt 283.465 5.6275e-13
f 91/175/31 94/176/31 95/177/31 96/178/31 97/179/31 

vt 0 1590.55
vt 9.93589e-14 1.13687e-13
v 21.1 10.2 -2.88765e-15
vt 830.709 1.13687e-13
v 21.1 10.2 -7.2
vt 830.709 283.465
vt 1114.17 283.465
vt 1114.17 1590.55
f 90/180/27 89/181/27 98/182/27 99/183/27 95/184/27 94/185/27 

v 20.9 10 -0
vt 822.835 393.701
vn -4.30101e-17 7.43448e-15 1
v 21.1 10 -6.27103e-16
vt 830.709 393.701
vt 830.709 401.575
vt 9.93589e-14 401.575
vt -1.63643e-30 393.701
v 0.2 10 -2.88765e-15
vt 7.87402 393.701
v 15.2 10 -2.88765e-15
vt 598.425 393.701
v 15.4 10 -6.27103e-16
vt 606.299 393.701
f 100/186/35 101/187/35 98/188/35 89/189/35 88/190/35 102/191/35 103/192/35 104/193/35 

v 21.1 10 -7.4
vt 830.709 291.339
vn -1.80613e-15 1 5.14491e-17
v 20.9 10 -7.4
v 20.9 10 -0.2
vt 822.835 7.87402
vt 822.835 2.02555e-14
vt 830.709 4.49446e-14
v 21.1 10 -7.2
f 105/194/36 106/130/36 107/195/36 100/196/36 101/197/36 108/183/36 

v 21.1 10 -10.8
vt -830.709 425.197
vn 3.05452e-15 -1 2.43056e-16
v 21.1 10 -10.7
vt -830.709 421.26
vt -830.709 291.339
vt -822.835 291.339
v 20.9 10 -10.8
vt -822.835 425.197
f 109/198/37 110/199/37 105/200/37 106/201/37 111/202/37 

v 21.1 9 -10.8
vt 425.197 354.331
vn 1 4.33147e-15 -1.44382e-14
vt 425.197 393.701
vt 421.26 393.701
v 21.1 9 -10.7
vt 421.26 354.331
f 112/203/38 109/204/38 110/205/38 113/206/38 

v 20.9 9 -10.8
vt -822.835 354.331
vt -822.835 393.701
vt -830.709 393.701
vt -830.709 354.331
f 114/207/4 111/208/4 109/209/4 112/210/4 

vt -291.339 393.701
vn -1 2.74266e-15 -3.17797e-16
vt -425.197 393.701
vt -425.197 354.331
v 20.9 9 -11.8
vt -464.567 354.331
v 20.9 10 -11.8
vt -464.567 393.701
v 20.9 10 -31.7
vt -1248.03 393.701
v 20.9 9.4 -31.7
vt -1248.03 370.079
vt -598.425 196.85
v 20.9 8 -15.2
vt -598.425 314.961
v 20.9 8 -7.4
vt -291.339 314.961
f 106/211/39 111/212/39 114/213/39 115/214/39 116/215/39 117/216/39 118/217/39 65/123/39 63/218/39 119/219/39 120/220/39 

v 15.4 10 -40.2
vt -606.299 1582.68
vn 4.66594e-17 -1 -1.05427e-17
v 20.9 10 -40.2
vt -822.835 1582.68
vt -822.835 1248.03
vt -822.835 464.567
vt -822.835 7.87402
v 15.4 10 -0.2
vt -606.299 7.87402
v 15.4 10 -15.2
vt -606.299 598.425
f 121/221/40 122/222/40 117/223/40 116/224/40 111/202/40 106/201/40 107/225/40 123/226/40 124/227/40 

v 20.9 9.4 -40.2
vt 822.835 370.079
v 15.4 9.4 -40.2
vt 606.299 370.079
f 125/228/2 122/186/2 121/193/2 126/229/2 

vt -1582.68 196.85
vn -1 1.67311e-15 2.57479e-15
v 20.9 9.4 -37.2
vt -1464.57 370.079
vt -1582.68 393.701
vt -1582.68 370.079
f 67/230/41 66/124/41 127/231/41 118/217/41 117/216/41 122/232/41 125/233/41 

vt 830.709 196.85
v 21.1 9.4 -37.2
vt 830.709 370.079
vt 822.835 196.85
vt 822.835 5.68434e-13
vt 830.709 5.68434e-13
f 52/234/2 128/235/2 127/228/2 66/236/2 79/237/2 57/238/2 

vn 1 -1.54691e-15 -2.67654e-15
vt 1582.68 196.85
v 21.1 10 -40.2
vt 1582.68 393.701
v 21.1 10 -31.7
vt 1248.03 393.701
v 21.1 9.4 -31.7
vt 1248.03 370.079
vt 1464.57 370.079
f 52/146/42 51/239/42 129/240/42 130/241/42 131/242/42 128/243/42 

vt 1106.3 196.85
v 28.1 10 -40.2
vt 1106.3 393.701
f 56/244/2 132/245/2 129/187/2 51/234/2 

v 28.1 8 -15.4
vt -606.299 314.961
v 28.1 10 -15.4
vt -606.299 393.701
f 56/230/26 55/170/26 133/246/26 134/247/26 132/232/26 

v 28.1 8 -15.2
f 59/218/26 135/219/26 133/246/26 55/170/26 

v 28.1 5 -7.4
vt -291.339 196.85
v 28.1 10 -7.4
v 28.1 10 -15.2
vt -598.425 393.701
f 59/218/26 136/248/26 137/211/26 138/249/26 135/219/26 

vt -1106.3 196.85
vn -1.63916e-15 4.58964e-16 -1
v 21.1 5 -7.4
vt -830.709 196.85
v 21.1 8 -7.4
vt -830.709 314.961
vt -1106.3 393.701
f 136/250/43 139/251/43 140/252/43 105/209/43 137/253/43 

vn 1.05982e-28 1.15506e-14 -1
v 20.9 5 -7.4
vt -822.835 314.961
f 139/251/44 141/174/44 120/254/44 140/252/44 

vn -1 9.56498e-16 -1.39887e-15
vt -7.87402 196.85
v 20.9 9.4 -0.2
vt -7.87402 370.079
vt -7.87402 393.701
f 141/248/45 77/255/45 142/256/45 107/257/45 106/211/45 120/220/45 

vt -2.84217e-14 196.85
vn -1 6.56283e-16 1.76482e-31
v 20.9 9.4 -6.35076e-16
vt -2.5003e-14 370.079
f 76/258/46 143/259/46 142/256/46 77/255/46 

vn -4.30101e-17 6.78839e-17 1
f 76/236/47 101/187/47 143/228/47

v 21.1 1.42938e-14 -7.21911e-16
vt 830.709 5.6275e-13
f 76/236/47 144/260/47 101/187/47

vt 3.179e-14 5.6275e-13
f 144/260/47 76/236/47 87/261/47

vt 606.299 196.85
f 75/262/47 87/261/47 76/236/47

f 87/261/47 75/262/47 88/190/47

v 15.4 9.4 -6.35076e-16
f 88/190/47 75/262/47 145/229/47

vt 2.84217e-14 196.85
vt 7.87402 196.85
v 15.4 9.4 -0.2
vt 7.87402 370.079
vt 2.5003e-14 370.079
f 75/263/31 74/264/31 146/265/31 145/266/31 

vn 2.34059e-15 -4.45323e-17 -1
v 15.2 10 -0.2
f 74/170/48 73/218/48 147/249/48 123/247/48 146/171/48 

v 0.2 1.42938e-14 -0.2
vt -7.87402 5.63993e-13
vn -4.36155e-17 -1.57918e-16 -1
v 0.2 10 -0.2
v 15.2 1.42938e-14 -0.2
vt -598.425 5.63993e-13
f 148/267/49 149/257/49 147/249/49 73/218/49 150/268/49 

vt 1543.31 -1.68754e-15
vn 1 2.14317e-16 8.16585e-17
vt 1543.31 196.85
v 0.2 10 -39.2
vt 1543.31 393.701
vt 7.87402 5.61062e-13
f 82/269/50 81/270/50 151/271/50 149/191/50 148/272/50 

vn 1 1.6243e-16 -3.27116e-15
v 0.2 10 -40.2
f 81/270/51 84/239/51 152/240/51 151/271/51 

vt 598.425 196.85
v 15.2 10 -40.2
f 85/273/2 153/192/2 152/191/2 84/264/2 

vn -1 1.58098e-32 2.88765e-15
vt -1543.31 196.85
v 15.2 10 -39.2
vt -1543.31 393.701
f 85/230/52 80/274/52 154/275/52 153/232/52 

vn -1 -6.25483e-17 -8.33977e-17
v 15.2 10 -15.2
vt -1543.31 2.75208e-13
vt -7.87402 5.25319e-13
f 73/255/53 72/218/53 155/249/53 154/275/53 80/274/53 83/276/53 150/277/53 

f 72/273/2 71/262/2 124/193/2 155/192/2 

vt 1582.68 370.079
f 71/273/31 70/239/31 126/278/31 121/240/31 124/192/31 

vt 1590.55 196.85
vt 1590.55 370.079
f 70/239/31 69/279/31 92/280/31 126/278/31 

vt -822.835 1590.55
vn 0 -1 -0
vt -606.299 1590.55
f 93/281/54 125/222/54 126/221/54 92/282/54 

vn -1 6.56283e-16 -0
vt -1590.55 370.079
vt -1590.55 196.85
f 67/230/55 125/233/55 93/283/55 68/284/55 

vt -598.425 7.87402
vt -598.425 598.425
f 124/227/54 123/226/54 147/285/54 155/286/54 

vt 606.299 7.87402
vn 5.05338e-14 1 -5.05338e-14
vt 598.425 -1.97815e-11
vt 606.299 -1.98705e-11
f 123/287/56 147/142/56 103/288/56 104/289/56 

vt 7.87402 -3.42368e-10
vn 1.02511e-14 1 -8.69903e-13
vt 598.425 -3.42368e-10
vt 7.87402 7.87402
f 102/290/57 103/291/57 147/142/57 149/292/57 

f 88/190/47 103/192/47 102/191/47

f 88/190/47 104/193/47 103/192/47

f 88/190/47 100/186/47 104/193/47

f 88/190/47 101/187/47 100/186/47

f 88/190/47 145/229/47 101/187/47

f 143/228/47 101/187/47 145/229/47

vt -822.835 2.5003e-14
vt -606.299 2.5003e-14
f 142/225/54 143/293/54 145/294/54 146/226/54 

vn -2.25597e-17 5.82793e-16 -1
f 107/208/58 142/172/58 146/171/58 123/247/58 

vt -822.835 0
vt -606.299 2.46891e-14
f 100/295/54 104/296/54 123/226/54 107/225/54 

vn 1.96473e-16 -1 1.06414e-16
vt -7.87402 7.87402
vt -7.87402 1582.68
vt -598.425 1582.68
vt -598.425 1543.31
f 155/286/59 147/285/59 149/297/59 151/164/59 152/298/59 153/299/59 154/300/59 

vt -830.709 2.84217e-14
f 144/301/34 150/285/34 83/300/34

f 144/301/34 148/297/34 150/285/34

f 148/297/34 144/301/34 87/165/34

f 87/165/34 82/164/34 148/297/34

f 144/301/34 83/300/34 78/223/34

vt -822.835 1464.57
f 78/223/34 83/300/34 79/302/34

f 83/300/34 91/166/34 79/302/34

f 82/164/34 91/166/34 83/300/34

vt -830.709 1464.57
f 79/302/34 91/166/34 57/303/34

vt -830.709 1248.03
f 57/303/34 91/166/34 58/304/34

v 21.1 1.17672e-14 -7.2
vt -830.709 283.465
f 58/304/34 91/166/34 156/305/34

vt -1114.17 283.465
f 156/305/34 91/166/34 97/306/34

vt 1114.17 5.74297e-13
vn -1.47098e-16 4.07348e-17 1
vt 1114.17 393.701
v 28.1 10 -7.2
vt 830.709 4.74821e-13
f 97/307/60 96/308/60 157/245/60 108/187/60 156/309/60 

vt 1114.17 401.575
vn -5.98091e-17 2.06745e-15 1
f 95/310/61 99/188/61 108/187/61 157/245/61 96/308/61 

vt 1.13687e-13 401.575
vt 2.46891e-14 393.701
f 108/178/31 99/177/31 98/311/31 101/312/31 

vn 1 -2.88765e-16 5.22958e-32
vt 2.84217e-14 8.02629e-13
vt 283.465 7.03153e-13
f 101/312/62 144/313/62 156/314/62 108/178/62 

f 144/301/34 58/304/34 156/305/34

f 144/301/34 78/223/34 58/304/34

vt -830.709 370.079
vn 8.77047e-26 -7.6801e-15 -1
vt -830.709 1.01819e-11
vt -822.835 1.01819e-11
f 131/315/63 53/251/63 58/316/63 78/317/63 65/174/63 118/172/63 

vn 1 -7.21911e-15 9.74359e-16
v 21.1 10 -15.4
v 21.1 8 -15.4
vt 606.299 314.961
f 54/262/64 53/147/64 131/242/64 130/241/64 158/193/64 159/318/64 

vn 1.3585e-14 1 1.32702e-16
vt 822.835 464.567
v 21.1 10 -11.8
vt 830.709 464.567
v 21.1 10 -11.9
vt 830.709 468.504
v 21.1 10 -15.2
vt 830.709 598.425
vt 830.709 606.299
vt 830.709 1248.03
f 117/119/65 116/319/65 160/320/65 161/321/65 162/322/65 158/323/65 130/324/65 

vt -830.709 464.567
f 160/325/54 109/198/54 111/202/54 116/224/54 

vt -1106.3 598.425
vn -3.78144e-16 -1 9.98066e-16
vt -1106.3 291.339
vt -830.709 468.504
vt -830.709 598.425
f 138/326/66 137/327/66 105/200/66 110/199/66 109/198/66 160/325/66 161/328/66 162/329/66 

vt 1106.3 291.339
vn -8.25042e-16 1 -2.88765e-14
vt 1106.3 283.465
f 137/330/67 105/194/67 108/183/67 157/331/67 

v 21.1 8.9 -10.7
vt 421.26 350.394
vn 1 -3.88433e-14 3.0389e-15
vt 291.339 393.701
vt 291.339 314.961
v 21.1 8 -15.2
vt 598.425 314.961
vt 468.504 393.701
v 21.1 9 -11.9
vt 468.504 354.331
v 21.1 8.9 -11.9
vt 468.504 350.394
f 163/332/68 113/206/68 110/205/68 105/333/68 140/334/68 164/335/68 162/192/68 161/336/68 165/337/68 166/338/68 

vn 1 -3.60956e-13 -1.63732e-15
v 21.1 9 -11.8
vt 464.567 354.331
f 166/338/69 165/337/69 167/339/69 112/203/69 113/206/69 163/332/69 

vt 464.567 393.701
vn 1 -1.44382e-15 1.44382e-14
f 160/340/70 167/339/70 165/337/70 161/336/70 

vt 822.835 354.331
vt 830.709 354.331
f 116/186/2 115/341/2 167/342/2 160/187/2 

vt 822.835 425.197
vt 830.709 425.197
f 115/319/27 114/343/27 112/344/27 167/320/27 

vt -425.197 605.778
vn -0.945373 0.325991 2.73024e-15
vt -464.567 605.778
v 21.0674 8.90546 -11.8
vt -464.567 601.841
v 21.0674 8.90546 -10.8
vt -425.197 601.841
f 112/345/71 167/346/71 168/347/71 169/348/71 

vt -435.707 606.774
vn -0.944871 0.325818 0.0325818
vt -435.663 610.711
v 21.426 9.94537 -11.8
vt -435.221 650.078
v 21.4229 9.94644 -11.8999
vt -439.157 650.123
v 21.0643 8.90652 -11.8999
vt -439.644 606.818
f 168/349/72 167/350/72 170/351/72 171/352/72 172/353/72 

vt 464.567 645.148
vn 0.945373 -0.325991 -2.71679e-14
vt 464.567 605.778
vt 468.504 605.778
v 21.426 9.94537 -11.9
vt 468.504 645.148
f 170/354/73 167/355/73 165/356/73 173/357/73 

vt -453.572 600.72
vn -0.944871 0.325818 -0.0325818
vt -453.528 596.784
v 21.0643 8.90652 -10.7001
vt -449.591 596.828
v 21.4229 9.94644 -10.7001
vt -450.078 640.132
v 21.426 9.94537 -10.8
vt -454.015 640.088
f 112/358/74 169/359/74 174/360/74 175/361/74 176/362/74 

vt 425.197 605.778
vt 425.197 645.148
v 21.426 9.94537 -10.7
vt 421.26 645.148
vt 421.26 605.778
f 112/363/73 176/364/73 177/365/73 113/366/73 

vt -822.835 598.425
vn -2.16573e-14 -1 -1.64467e-33
f 119/367/75 164/329/75 140/200/75 120/201/75 

vn 7.21911e-15 -4.81274e-16 1
vt 830.709 314.961
vt 822.835 314.961
f 60/234/76 164/368/76 119/369/76 63/236/76 

vn 1 1.9251e-14 -0
f 60/273/77 54/262/77 159/318/77 164/335/77 

vt -1106.3 606.299
vt -830.709 606.299
f 133/370/54 135/326/54 164/329/54 159/371/54 

vt 1106.3 314.961
vn 2.0626e-16 -7.21911e-16 1
f 135/372/78 138/245/78 162/187/78 164/368/78 

vn -3.73593e-15 1 1.40144e-15
vt 1106.3 598.425
vt 1106.3 606.299
f 162/322/79 138/373/79 134/374/79 158/323/79 

vt -1106.3 1582.68
vn -1.83551e-16 -1 -3.07388e-16
vt -830.709 1582.68
f 132/375/80 134/370/80 158/371/80 130/304/80 129/376/80 

vn -2.0626e-16 7.21911e-16 -1
vt -1106.3 314.961
f 134/253/81 133/377/81 159/252/81 158/209/81 

f 127/302/54 128/303/54 131/304/54 118/223/54 

g Mesh5 Model

v 24 8 -11.9
vn 0.945373 -0.325991 -0
v 24 8 -10.7
v 23.9674 7.90546 -10.7
vt 421.26 601.841
v 23.9674 7.90546 -11.9
vt 468.504 601.841
f 178/356/82 179/366/82 180/378/82 181/379/82 

vt -930.174 316.002
vt -931.457 319.724
v 25.0961 7.62205 -10.6622
vt -974.634 304.844
v 25.0635 7.52751 -10.6622
vt -973.351 301.121
f 180/380/11 179/381/11 182/382/11 183/383/11 

vt 958.865 310.278
vt 957.582 306.556
v 25.0635 7.52751 -11.9378
vt 1000.76 291.675
v 25.0961 7.62205 -11.9378
vt 1002.04 295.398
f 178/384/19 181/385/19 184/386/19 185/387/19 

