# Alias OBJ Model File
# Exported from SketchUp, (c) 2000-2012 Trimble Navigation Limited
# File units = meters

mtllib Stage_2-4.mtl

g Mesh1 Group1 Model

usemtl FrontColor
v 5.7 2 -0
vt 224.409 -2.34482e-30
vn -2.779e-17 1 -2.96704e-17
v 3.2 2 -5.7
vt 125.984 224.409
v 0.2 2 -0
vt 7.87402 -2.52336e-30
f 1/1/1 2/2/1 3/3/1

v 5.2 2 -5.7
vt 204.724 224.409
f 2/2/1 1/1/1 4/4/1

v 5.2 2 -7.7
vt 204.724 303.15
f 4/4/1 1/1/1 5/5/1

v 5.2 2 -13.75
vt 204.724 541.339
f 5/5/1 1/1/1 6/6/1

v 5.2 2 -19.25
vt 204.724 757.874
f 6/6/1 1/1/1 7/7/1

v 5.7 2 -0.2
vt 224.409 7.87402
f 8/8/1 7/7/1 1/1/1

v 41.2 2 -24.2
vt 1622.05 952.756
f 9/9/1 7/7/1 8/8/1

v 44.2 2 -26.2
vt 1740.16 1031.5
f 10/10/1 7/7/1 9/9/1

v 0.2 2 -26.2
vt 7.87402 1031.5
f 11/11/1 7/7/1 10/10/1

v 0.2 2 -19.25
vt 7.87402 757.874
f 7/7/1 11/11/1 12/12/1

v 43.2 2 -24.2
vt 1700.79 952.756
f 10/10/1 9/9/1 13/13/1

v 44.2 2 -0.2
vt 1740.16 7.87402
f 10/10/1 13/13/1 14/14/1

v 43.2 2 -22.2
vt 1700.79 874.016
f 15/15/1 14/14/1 13/13/1

v 41.2 2 -22.2
vt 1622.05 874.016
f 16/16/1 14/14/1 15/15/1

v 41.2 2 -7.2
vt 1622.05 283.465
f 17/17/1 14/14/1 16/16/1

v 41.2 2 -6.2
vt 1622.05 244.094
f 18/18/1 14/14/1 17/17/1

v 40.2 2 -6.2
vt 1582.68 244.094
f 19/19/1 14/14/1 18/18/1

v 35.2 2 -7.2
vt 1385.83 283.465
f 20/20/1 14/14/1 19/19/1

v 35.2 2 -6.2
vt 1385.83 244.094
f 21/21/1 14/14/1 20/20/1

v 34.2 2 -6.2
vt 1346.46 244.094
f 22/22/1 14/14/1 21/21/1

v 31.2 2 -7.2
vt 1228.35 283.465
f 23/23/1 14/14/1 22/22/1

v 31.2 2 -6.2
vt 1228.35 244.094
f 24/24/1 14/14/1 23/23/1

v 30.2 2 -6.2
vt 1188.98 244.094
f 25/25/1 14/14/1 24/24/1

f 14/14/1 25/25/1 8/8/1

v 30.2 2 -7.2
vt 1188.98 283.465
f 26/26/1 8/8/1 25/25/1

f 9/9/1 8/8/1 26/26/1

f 9/9/1 26/26/1 23/23/1

v 34.2 2 -7.2
vt 1346.46 283.465
f 9/9/1 23/23/1 27/27/1

f 27/27/1 23/23/1 22/22/1

f 9/9/1 27/27/1 20/20/1

v 40.2 2 -7.2
vt 1582.68 283.465
f 9/9/1 20/20/1 28/28/1

f 28/28/1 20/20/1 19/19/1

f 9/9/1 28/28/1 17/17/1

f 9/9/1 17/17/1 16/16/1

v 3.2 2 -7.7
vt 125.984 303.15
f 6/6/1 29/29/1 5/5/1

f 6/6/1 3/3/1 29/29/1

v 0.2 2 -13.75
vt 7.87402 541.339
f 3/3/1 6/6/1 30/30/1

f 29/29/1 3/3/1 2/2/1

g Mesh2 Group1 Model

v 3.2 7 -5.7
vn 0 1 -0
v 5.2 7 -5.7
v 5.2 7 -7.7
v 3.2 7 -7.7
f 31/2/2 32/4/2 33/5/2 34/29/2 

g Mesh3 Group1 Model

v 31.2 7 -6.2
v 31.2 7 -7.2
v 30.2 7 -7.2
v 30.2 7 -6.2
f 35/24/2 36/23/2 37/26/2 38/25/2 

g Mesh4 Group1 Model

v 34.2 7 -6.2
v 35.2 7 -6.2
v 35.2 7 -7.2
v 34.2 7 -7.2
f 39/22/2 40/21/2 41/20/2 42/27/2 

g Mesh5 Group1 Model

v 41.2 7 -22.2
v 43.2 7 -22.2
v 43.2 7 -24.2
v 41.2 7 -24.2
f 43/16/2 44/15/2 45/13/2 46/9/2 

g Mesh6 Group1 Model

v 5.2 7 -19.05
vt 204.724 750
v -2.25597e-17 7 -19.05
vt 0 750
v -2.25597e-17 7 -13.95
vt 0 549.213
v 5.2 7 -13.95
vt 204.724 549.213
f 47/31/2 48/32/2 49/33/2 50/34/2 

g Mesh7 Group2 Model

v 2.11419e-15 12.2 -3.5135e-18
vt -3.3146e-12 -8.29961e-15
vn 7.07418e-15 1 -1.75675e-17
v 44.4 12.2 -1.37761e-16
vt 1748.03 -3.01428e-15
v 44.4 12.2 -26.4
vt 1748.03 1039.37
v 2.11419e-15 12.2 -26.4
vt -3.3146e-12 1039.37
f 51/35/3 52/36/3 53/37/3 54/38/3 

vt 8.32358e-14 480.315
vn 8.42558e-19 3.43421e-18 1
v 44.4 12 -0
vt 1748.03 472.441
vt 1748.03 480.315
f 51/39/4 55/40/4 52/41/4

v 0.2 6.4 -0
vt 7.87402 251.969
f 51/39/4 56/42/4 55/40/4

v 0.2 2 -0
vt 7.87402 78.7402
f 51/39/4 57/43/4 56/42/4

v 6.99352e-16 0 -0
vt 2.75335e-14 -7.96688e-50
f 58/44/4 57/43/4 51/39/4

v 5.7 2 -0
vt 224.409 78.7402
f 57/43/4 58/44/4 59/45/4

f 58/44/4 55/40/4 59/45/4

v 44.4 0 -0
vt 1748.03 -5.05796e-33
f 55/40/4 58/44/4 60/46/4

vt -1748.03 0
vn 0 -1 -0
vt -2.75335e-14 0
v 6.99352e-16 0 -26.4
vt -2.75335e-14 1039.37
v 44.4 0 -26.4
vt -1748.03 1039.37
f 60/47/5 58/48/5 61/49/5 62/50/5 

vt -1.38327e-16 480.315
vn -1 0 -0
vt -1039.37 0
vt 0 0
f 51/51/6 61/52/6 58/53/6

v 6.76792e-16 7 -13.95
vt -549.213 275.591
f 61/52/6 51/51/6 63/54/6

v 0 11.4 -13.95
vt -549.213 448.819
f 63/54/6 51/51/6 64/55/6

vt -1039.37 480.315
f 54/56/6 64/55/6 51/51/6

v 0 11.4 -19.05
vt -750 448.819
f 64/55/6 54/56/6 65/57/6

v 6.76792e-16 7 -19.05
vt -750 275.591
f 65/57/6 54/56/6 66/58/6

f 61/52/6 66/58/6 54/56/6

f 61/52/6 63/54/6 66/58/6

vn 0 0 -1
vt -8.32358e-14 480.315
vt -1748.03 480.315
v 44.4 12 -26.4
vt -1748.03 472.441
f 62/47/7 61/48/7 54/59/7 53/60/7 67/61/7 

vt -3.07086e-14 472.441
vn 1 7.36405e-15 -1.75675e-17
v 44.4 12 -0.2
vt 7.87402 472.441
v 44.4 12 -13.75
vt 541.339 472.441
v 44.4 12 -13.95
vt 549.213 472.441
v 44.4 12 -19.05
vt 750 472.441
v 44.4 12 -19.25
vt 757.874 472.441
v 44.4 12 -26.2
vt 1031.5 472.441
vt 1039.37 472.441
vt 1039.37 480.315
vt -2.52849e-14 480.315
f 55/62/8 68/63/8 69/64/8 70/65/8 71/66/8 72/67/8 73/68/8 67/69/8 53/70/8 52/71/8 

vn 1 3.5854e-16 -1.75675e-17
v 44.4 4.9 -7.1
vt 279.528 192.913
f 55/62/9 74/72/9 68/63/9

vt -3.07086e-14 -6.2674e-13
f 60/73/9 74/72/9 55/62/9

vt 1039.37 -6.2674e-13
f 74/72/9 60/73/9 62/74/9

v 44.4 4.9 -9.3
vt 366.142 192.913
f 74/72/9 62/74/9 75/75/9

v 44.4 4.9 -12.1
vt 476.378 192.913
f 75/75/9 62/74/9 76/76/9

v 44.4 4.9 -14.3
vt 562.992 192.913
f 76/76/9 62/74/9 77/77/9

v 44.4 4.9 -17.1
vt 673.228 192.913
f 77/77/9 62/74/9 78/78/9

v 44.4 4.9 -19.3
vt 759.843 192.913
f 78/78/9 62/74/9 79/79/9

v 44.4 7.1 -19.3
vt 759.843 279.528
f 79/79/9 62/74/9 80/80/9

f 80/80/9 62/74/9 73/68/9

f 73/68/9 62/74/9 67/69/9

f 72/67/9 80/80/9 73/68/9

f 71/66/9 80/80/9 72/67/9

v 44.4 7.1 -17.1
vt 673.228 279.528
f 71/66/9 81/81/9 80/80/9

v 44.4 7.1 -14.3
vt 562.992 279.528
f 71/66/9 82/82/9 81/81/9

f 70/65/9 82/82/9 71/66/9

f 69/64/9 82/82/9 70/65/9

v 44.4 7.1 -12.1
vt 476.378 279.528
f 69/64/9 83/83/9 82/82/9

v 44.4 7.1 -9.3
vt 366.142 279.528
f 69/64/9 84/84/9 83/83/9

v 44.4 7.1 -7.1
vt 279.528 279.528
f 69/64/9 85/85/9 84/84/9

f 68/63/9 85/85/9 69/64/9

f 85/85/9 68/63/9 74/72/9

vt 1748.03 279.528
vn 0 0 1
vt 1748.03 192.913
v 47.6 4.9 -7.1
vt 1874.02 192.913
v 47.6 7.1 -7.1
vt 1874.02 279.528
f 85/86/10 74/87/10 86/88/10 87/89/10 

vt -1748.03 279.528
vt -1748.03 366.142
v 47.6 4.9 -9.3
vt -1874.02 366.142
vt -1874.02 279.528
f 74/90/5 75/91/5 88/92/5 86/93/5 

vt -1748.03 192.913
v 47.6 7.1 -9.3
vt -1874.02 192.913
f 75/94/7 84/90/7 89/93/7 88/95/7 

f 75/75/9 76/76/9 84/84/9

f 83/83/9 84/84/9 76/76/9

v 47.6 4.9 -12.1
v 47.6 7.1 -12.1
f 83/86/10 76/87/10 90/88/10 91/89/10 

vt -1748.03 476.378
vt -1748.03 562.992
v 47.6 4.9 -14.3
vt -1874.02 562.992
vt -1874.02 476.378
f 76/96/5 77/97/5 92/98/5 90/99/5 

v 47.6 7.1 -14.3
f 77/94/7 82/90/7 93/93/7 92/95/7 

f 77/77/9 78/78/9 82/82/9

f 81/81/9 82/82/9 78/78/9

v 47.6 4.9 -17.1
v 47.6 7.1 -17.1
f 81/86/10 78/87/10 94/88/10 95/89/10 

vt -1748.03 673.228
vt -1748.03 759.843
v 47.6 4.9 -19.3
vt -1874.02 759.843
vt -1874.02 673.228
f 78/100/5 79/101/5 96/102/5 94/103/5 

v 47.6 7.1 -19.3
f 79/94/7 80/90/7 97/93/7 96/95/7 

vt 1748.03 759.843
vt 1748.03 673.228
vt 1874.02 673.228
vt 1874.02 759.843
f 80/104/2 81/105/2 95/106/2 97/107/2 

vn 1 0 -0
f 96/79/11 97/80/11 95/81/11 94/78/11 

vt 1748.03 562.992
vt 1748.03 476.378
vt 1874.02 476.378
vt 1874.02 562.992
f 82/108/2 83/109/2 91/110/2 93/111/2 

f 92/77/11 93/82/11 91/83/11 90/76/11 

vt 1748.03 366.142
vt 1874.02 366.142
f 84/112/2 85/86/2 87/89/2 89/113/2 

f 87/85/11 86/72/11 88/75/11 89/84/11 

vt 1748.03 7.87402
vn 1.31388e-12 1 -5.11465e-15
vt 1748.03 541.339
v 44.2 12 -13.75
vt 1740.16 541.339
v 44.2 12 -0.2
f 68/114/12 69/115/12 98/116/12 99/14/12 

vn 8.37417e-13 1 -0
vt 1748.03 549.213
v 44.2 12 -13.95
vt 1740.16 549.213
f 69/115/13 70/117/13 100/118/13 98/116/13 

vn 8.37417e-13 1 -1.18073e-30
vt 1748.03 750
v 44.2 12 -19.05
vt 1740.16 750
f 70/117/14 71/119/14 101/120/14 100/118/14 

vn 8.37417e-13 1 -7.55676e-31
vt 1748.03 757.874
v 44.2 12 -19.25
vt 1740.16 757.874
f 71/119/15 72/121/15 102/122/15 101/120/15 

v 44.2 12 -26.2
vn 1.31388e-12 1 9.97173e-15
vt 1748.03 1031.5
f 103/10/16 102/122/16 72/121/16 73/123/16 

vt -1031.5 78.7402
vt -757.874 472.441
vt -1031.5 472.441
f 10/124/6 102/125/6 103/126/6

v 44.2 5 -19.2
vt -755.906 196.85
f 10/124/6 104/127/6 102/125/6

v 44.2 5 -17.2
vt -677.165 196.85
f 10/124/6 105/128/6 104/127/6

v 44.2 5 -14.2
vt -559.055 196.85
f 10/124/6 106/129/6 105/128/6

v 44.2 5 -12.2
vt -480.315 196.85
f 10/124/6 107/130/6 106/129/6

v 44.2 5 -9.2
vt -362.205 196.85
f 10/124/6 108/131/6 107/130/6

v 44.2 5 -7.2
vt -283.465 196.85
f 10/124/6 109/132/6 108/131/6

vt -7.87402 78.7402
f 14/133/6 109/132/6 10/124/6

v 44.2 7 -7.2
vt -283.465 275.591
f 109/132/6 14/133/6 110/134/6

vt -541.339 472.441
f 14/133/6 98/135/6 110/134/6

vt -7.87402 472.441
f 98/135/6 14/133/6 99/136/6

vt -1740.16 78.7402
v 5.7 2 -0.2
vt -224.409 78.7402
v 5.7 6.4 -0.2
vt -224.409 251.969
v 0.2 6.4 -0.2
vt -7.87402 251.969
v 0.2 12 -0.2
vt -1740.16 472.441
f 14/137/7 111/138/7 112/139/7 113/140/7 114/136/7 99/141/7 

vt 0 78.7402
v 5.7 6.4 -0
vt 0 251.969
f 112/140/6 111/133/6 59/142/6 115/143/6 

vt 224.409 251.969
f 59/45/4 55/40/4 115/144/4

f 115/144/4 55/40/4 56/42/4

vt -7.87402 7.87402
vt -224.409 7.87402
vt -224.409 0
vt -7.87402 0
f 113/145/5 112/146/5 115/147/5 56/148/5 

v 0.2 2 -13.75
vt 541.339 78.7402
vn 1 -1.43167e-19 -8.29953e-19
v 0.2 12 -13.75
vt -6.53506e-18 251.969
vt -6.53506e-18 78.7402
f 116/149/17 117/64/17 114/63/17 113/42/17 56/150/17 57/151/17 

v 5.2 2 -13.75
vt 204.724 78.7402
v 5.2 12 -13.75
vt 204.724 472.441
f 116/43/10 118/152/10 119/153/10 117/63/10 

v 5.2 2 -19.25
vt 757.874 78.7402
v 5.2 12 -19.25
v 5.2 12 -19.05
v 5.2 7 -19.05
vt 750 275.591
v 5.2 7 -13.95
vt 549.213 275.591
v 5.2 12 -13.95
f 118/149/11 120/154/11 121/67/11 122/66/11 123/155/11 124/156/11 125/65/11 119/64/11 

vt -204.724 78.7402
v 0.2 2 -19.25
v 0.2 12 -19.25
vt -204.724 472.441
f 120/157/7 126/133/7 127/136/7 121/158/7 

v 0.2 2 -26.2
vt 1031.5 78.7402
vn 1 3.94757e-35 3.246e-18
v 0.2 12 -26.2
f 128/159/18 129/68/18 127/67/18 126/154/18 

vt 1740.16 78.7402
vt 1740.16 472.441
f 128/43/10 10/160/10 103/161/10 129/63/10 

vt -7.87402 1031.5
vn -2.10175e-15 -1 -9.88493e-15
vt -1740.16 1031.5
vt -1740.16 757.874
vt -204.724 757.874
vt -7.87402 757.874
f 129/162/19 103/163/19 102/164/19 121/165/19 127/166/19 

vn -4.14636e-15 -1 -2.15518e-30
vt -1740.16 750
vt -204.724 750
f 121/165/20 102/164/20 101/167/20 122/168/20 

v 44.2 7 -19.2
vt -755.906 275.591
vt -750 472.441
f 130/169/6 101/170/6 102/125/6

v 44.2 7 -17.2
vt -677.165 275.591
f 131/171/6 101/170/6 130/169/6

f 106/129/6 101/170/6 131/171/6

v 44.2 7 -14.2
vt -559.055 275.591
f 132/172/6 101/170/6 106/129/6

vt -549.213 472.441
f 132/172/6 100/173/6 101/170/6

f 132/172/6 98/135/6 100/173/6

v 44.2 7 -12.2
vt -480.315 275.591
f 133/174/6 98/135/6 132/172/6

f 108/131/6 98/135/6 133/174/6

v 44.2 7 -9.2
vt -362.205 275.591
f 134/175/6 98/135/6 108/131/6

f 110/134/6 98/135/6 134/175/6

vt -1740.16 362.205
v 47.5 7 -9.2
vt -1870.08 362.205
v 47.5 7 -7.2
vt -1870.08 283.465
vt -1740.16 283.465
f 134/176/5 135/177/5 136/178/5 110/179/5 

vt 1740.16 196.85
vn -9.32121e-17 -2.40637e-16 1
v 47.5 5 -9.2
vt 1870.08 196.85
vt 1870.08 275.591
vt 1740.16 275.591
f 108/180/21 137/181/21 135/182/21 134/183/21 

v 47.5 5 -7.2
vt 1870.08 283.465
vt 1870.08 362.205
vt 1740.16 362.205
vt 1740.16 283.465
f 138/184/2 137/185/2 108/186/2 109/187/2 

f 138/132/6 136/134/6 135/175/6 137/131/6 

vt -1740.16 275.591
vt -1870.08 275.591
vt -1870.08 196.85
vt -1740.16 196.85
f 110/188/7 136/189/7 138/190/7 109/191/7 

f 107/130/6 108/131/6 133/174/6

v 47.5 7 -12.2
v 47.5 5 -12.2
f 133/188/7 139/189/7 140/190/7 107/191/7 

vt -1740.16 559.055
v 47.5 7 -14.2
vt -1870.08 559.055
vt -1870.08 480.315
vt -1740.16 480.315
f 132/192/5 141/193/5 139/194/5 133/195/5 

v 47.5 5 -14.2
f 106/180/10 142/181/10 141/182/10 132/183/10 

vt 1870.08 480.315
vt 1870.08 559.055
vt 1740.16 559.055
vt 1740.16 480.315
f 140/196/2 142/197/2 106/198/2 107/199/2 

f 140/130/6 139/174/6 141/172/6 142/129/6 

vt -204.724 549.213
vn -4.14636e-15 -1 -0
vt -1740.16 549.213
vt -1740.16 541.339
vt -204.724 541.339
f 125/200/22 100/201/22 98/202/22 119/203/22 

vn -3.85462e-15 -1 -1.77401e-31
v 0.2 12 -13.95
vt -7.87402 549.213
v 0.2 12 -19.05
vt -7.87402 750
f 122/168/23 101/167/23 100/201/23 125/200/23 143/204/23 144/205/23 

vt -204.724 275.591
vt -2.66454e-14 275.591
vt 0 448.819
v 0.2 11.4 -13.95
vt -7.87402 448.819
f 124/206/7 63/207/7 64/208/7 145/209/7 143/136/7 125/158/7 

v 0.2 11.4 -19.05
vn 1.53816e-16 -1 -0
vt -6.90357e-14 549.213
vt -6.90357e-14 750
f 146/205/24 145/204/24 64/210/24 65/211/24 

vt 750 448.819
vn 1 -1.12799e-15 3.61619e-46
vt 549.213 448.819
f 146/212/25 144/66/25 143/65/25 145/213/25 

vt 2.66454e-14 275.591
vt 204.724 275.591
vt 7.87402 448.819
f 66/214/10 123/215/10 122/153/10 144/63/10 146/216/10 65/208/10 

vn -2.10175e-15 -1 5.07013e-15
vt -1740.16 7.87402
vt -7.87402 541.339
f 119/203/26 98/202/26 99/217/26 114/145/26 117/218/26 

f 105/128/6 106/129/6 131/171/6

v 47.5 7 -17.2
v 47.5 5 -17.2
f 131/188/7 147/189/7 148/190/7 105/191/7 

vt -1740.16 755.906
v 47.5 7 -19.2
vt -1870.08 755.906
vt -1870.08 677.165
vt -1740.16 677.165
f 130/219/5 149/220/5 147/221/5 131/222/5 

v 47.5 5 -19.2
f 104/180/10 150/181/10 149/182/10 130/183/10 

vt 1870.08 677.165
vt 1870.08 755.906
vt 1740.16 755.906
vt 1740.16 677.165
f 148/223/2 150/224/2 104/225/2 105/226/2 

f 148/128/6 147/171/6 149/169/6 150/127/6 

f 130/169/6 102/125/6 104/127/6

g Mesh8 Group2 Model

v 5.2 2 -7.7
v 3.2 2 -7.7
vt -125.984 78.7402
v 3.2 7 -7.7
vt -125.984 275.591
v 5.2 7 -7.7
f 151/157/7 152/227/7 153/228/7 154/206/7 

vt -303.15 78.7402
v 3.2 2 -5.7
v 3.2 7 -5.7
vt -224.409 275.591
vt -303.15 275.591
f 152/229/6 155/138/6 156/230/6 153/231/6 

vt 125.984 78.7402
v 5.2 2 -5.7
v 5.2 7 -5.7
vt 125.984 275.591
f 155/232/10 157/152/10 158/215/10 156/233/10 

vt 303.15 78.7402
vt 303.15 275.591
vt 224.409 275.591
f 157/45/11 151/234/11 154/235/11 158/236/11 

g Mesh9 Group2 Model

vt -1228.35 78.7402
vt -1188.98 78.7402
v 30.2 7 -7.2
vt -1188.98 275.591
v 31.2 7 -7.2
vt -1228.35 275.591
f 23/237/7 26/238/7 159/239/7 160/240/7 

vt -283.465 78.7402
vt -244.094 78.7402
v 30.2 7 -6.2
vt -244.094 275.591
f 26/241/6 25/242/6 161/243/6 159/134/6 

vt 1188.98 78.7402
vt 1228.35 78.7402
v 31.2 7 -6.2
vt 1228.35 275.591
vt 1188.98 275.591
f 25/244/10 24/245/10 162/246/10 161/247/10 

vt 244.094 78.7402
vt 283.465 78.7402
vt 283.465 275.591
vt 244.094 275.591
f 24/248/11 23/249/11 160/250/11 162/251/11 

g Mesh10 Group2 Model

f 21/248/11 20/249/11 41/250/11 40/251/11 

vt -1385.83 78.7402
vt -1346.46 78.7402
vt -1346.46 275.591
vt -1385.83 275.591
f 20/252/7 27/253/7 42/254/7 41/255/7 

f 27/241/6 22/242/6 39/243/6 42/134/6 

vt 1346.46 78.7402
vt 1385.83 78.7402
vt 1385.83 275.591
vt 1346.46 275.591
f 22/256/10 21/257/10 40/258/10 39/259/10 

g Mesh11 Group2 Model

v 41.2 7 -7.2
v 40.2 7 -7.2
v 40.2 7 -6.2
v 41.2 7 -6.2
f 163/17/2 164/28/2 165/19/2 166/18/2 

vt -1622.05 78.7402
vt -1582.68 78.7402
vt -1582.68 275.591
vt -1622.05 275.591
f 17/260/7 28/261/7 164/262/7 163/263/7 

f 28/241/6 19/242/6 165/243/6 164/134/6 

vt 1582.68 78.7402
vt 1622.05 78.7402
vt 1622.05 275.591
vt 1582.68 275.591
f 19/264/10 18/265/10 166/266/10 165/267/10 

f 18/248/11 17/249/11 163/250/11 166/251/11 

g Mesh12 Group2 Model

vt -952.756 78.7402
vt -874.016 78.7402
v 41.2 7 -22.2
vt -874.016 275.591
v 41.2 7 -24.2
vt -952.756 275.591
f 9/268/6 16/269/6 167/270/6 168/271/6 

vt 1700.79 78.7402
v 43.2 7 -22.2
vt 1700.79 275.591
f 16/265/10 15/272/10 169/273/10 167/266/10 

vt 874.016 78.7402
vt 952.756 78.7402
v 43.2 7 -24.2
vt 952.756 275.591
vt 874.016 275.591
f 15/274/11 13/275/11 170/276/11 169/277/11 

vt -1700.79 78.7402
vt -1700.79 275.591
f 13/278/7 9/260/7 168/263/7 170/279/7 

