# Alias OBJ Model File
# Exported from SketchUp, (c) 2000-2012 Trimble Navigation Limited
# File units = meters

mtllib Stair.mtl

g Mesh1 Group1 Model

usemtl FrontColor
v 4.9 0 -2.4
vt -94.4882 181.375
vn -0.340649 0.940191 -0
v 11.8 2.5 -2.4
vt -94.4882 470.31
v 11.8 2.5 -4.8
vt -188.976 470.31
v 4.9 0 -4.8
vt -188.976 181.375
f 1/1/1 2/2/1 3/3/1 4/4/1 

v 14.8 2.5 -4.8
vt 582.677 188.976
vn 0 1 -0
vt 464.567 188.976
vt 464.567 94.4882
v 11.8 2.5 -0
vt 464.567 0
v 14.8 2.5 -0
vt 582.677 0
f 5/5/2 3/6/2 2/7/2 6/8/2 7/9/2 

v 4.9 5 -0
vt 0 -114.319
vn 0.340649 0.940191 -0
vt 0 -403.253
vt 94.4882 -403.253
v 4.9 5 -2.4
vt 94.4882 -114.319
f 8/10/3 6/11/3 2/12/3 9/13/3 

v 0 5 -0
vt 0 0
vt 192.913 0
vt 192.913 94.4882
v 4.9 5 -4.8
vt 192.913 188.976
v 0 5 -4.8
vt 0 188.976
f 10/14/2 8/15/2 9/16/2 11/17/2 12/18/2 

g Mesh2 Group2 Model

v 11.8 2.5 -2.4
vt -464.567 98.4252
vn 0 0 -1
v 11.8 0 -2.4
vt -464.567 0
v 4.9 0 -2.4
vt -192.913 0
f 13/19/4 14/20/4 15/21/4

v 11.8 0 -4.8
vt -188.976 0
vn -1 0 -0
vt -94.4882 0
vt -94.4882 98.4252
v 11.8 2.5 -4.8
vt -188.976 98.4252
f 16/22/5 14/23/5 13/24/5 17/25/5 

v 4.9 0 -4.8
f 18/17/2 15/16/2 14/7/2 16/6/2 

f 17/19/4 16/20/4 18/21/4

v 14.8 0 -4.8
vt -582.677 0
v 14.8 2.5 -4.8
vt -582.677 98.4252
f 19/26/4 16/20/4 17/19/4 20/27/4 

v 14.8 0 -0
vn 1 0 -0
vt 188.976 0
vt 188.976 98.4252
v 14.8 2.5 -0
vt 0 98.4252
f 21/14/6 19/28/6 20/29/6 22/30/6 

v 11.8 0 -0
vn 0 0 1
vt 582.677 98.4252
v 11.8 2.5 -0
vt 464.567 98.4252
f 23/8/7 21/9/7 22/31/7 24/32/7 

v 0 0 -0
v 4.9 2.5 -0
vt 192.913 98.4252
v 4.9 5 -0
vt 192.913 196.85
v 9.7458e-15 5 -0
vt 3.83693e-13 196.85
f 25/14/7 23/8/7 24/32/7 26/33/7 27/34/7 28/35/7 

f 24/32/7 27/34/7 26/33/7

vt 0 196.85
v 4.9 2.5 -2.4
vt 94.4882 98.4252
v 4.9 4.9 -2.4
vt 94.4882 192.913
v 4.9 5 -2.4
vt 94.4882 196.85
f 27/36/6 26/30/6 29/37/6 30/38/6 31/39/6 

vn 0 -1 -0
vt -192.913 94.4882
vt -464.567 94.4882
f 24/20/8 26/21/8 29/40/8 13/41/8 

vt -192.913 196.85
vt -192.913 98.4252
vt -192.913 192.913
f 31/42/4 13/19/4 29/43/4 30/44/4 

v 9.7458e-15 0 -2.4
vt -3.83693e-13 0
v 9.7458e-15 4.9 -2.4
vt -3.83693e-13 192.913
f 32/45/4 33/46/4 30/44/4 29/43/4 13/19/4 15/21/4 

vt -94.4882 3.7394e-28
vn -1 1.94916e-15 -2.03038e-15
vt -7.79041e-28 196.85
v 9.7458e-15 5 -4.8
vt -188.976 196.85
v 9.7458e-15 4.9 -4.8
vt -188.976 192.913
vt -94.4882 192.913
f 32/47/9 25/14/9 28/48/9 34/49/9 35/50/9 33/51/9 

v 4.9 5 -4.8
v 4.9 4.9 -4.8
vt -3.83693e-13 196.85
f 36/42/4 37/44/4 35/46/4 34/52/4 

vt 188.976 192.913
vt 188.976 196.85
f 30/38/6 37/53/6 36/54/6 31/39/6 

vt -3.83693e-13 94.4882
vt -3.83693e-13 188.976
vt -192.913 188.976
f 30/40/8 33/55/8 35/56/8 37/57/8 

