# Alias OBJ Model File
# Exported from SketchUp, (c) 2000-2012 Trimble Navigation Limited
# File units = meters

mtllib HandLight.mtl

g Mesh1 Group1 Model

usemtl Color_M02
v 0.0680889 0 -0.127743
vt 3.83473 0
vn 0.884919 0 -0.465746
v 0.0536263 0 -0.166928
vt 5.47915 0
vn 0.97531 0 -0.220842
v 0.0536263 0.04 -0.166928
vt 5.47915 1.5748
v 0.0680889 0.04 -0.127743
vt 3.83473 1.5748
f 1/1/1 2/2/2 3/3/2 4/4/1 

v 0.0628315 0 -0.0664804
vt -2.08672 2.52225
vn 0 -1 -0
vt -1.72431 6.47686
vt -2.2937 4.93416
f 5/5/3 2/6/3 1/7/3

v 0.0497983 0 -0.20852
vt -1.5736 8.11436
f 5/5/3 6/8/3 2/6/3

v 0.0405145 0 -0.30896
vt -1.20809 12.0687
f 5/5/3 7/9/3 6/8/3

v 0.0326921 0 -0.109113
vt -0.900127 4.2007
f 8/10/3 7/9/3 5/5/3

v 0.0186631 0 -0.261542
vt -0.347803 10.2018
f 8/10/3 9/11/3 7/9/3

v 0.0146139 0 -0.158094
vt -0.188388 6.12908
f 10/12/3 9/11/3 8/10/3

v 0.00982887 0 -0.210085
vt 0 8.17596
f 9/11/3 10/12/3 11/13/3

vt -8.14155 0
vn -0.999235 0 -0.0391118
vt -6.08602 0
vn -0.97531 0 0.220842
v 0.0146139 0.12 -0.158094
vt -6.08602 4.72441
v 0.00982887 0.12 -0.210085
vt -8.14155 4.72441
f 11/14/4 10/15/5 12/16/5 13/17/4 

vt -5.6847 0
vt -3.62917 0
vn -0.884919 0 0.465746
v 0.0326921 0.12 -0.109113
vt -3.62917 4.72441
vt -5.6847 4.72441
f 10/18/5 8/19/6 14/20/6 12/21/5 

vt -2.9105 0
vt -0.854965 0
vn -0.734222 0 0.67891
v 0.0628315 0.12 -0.0664804
vt -0.854965 4.72441
vt -2.9105 4.72441
f 8/22/6 5/23/7 15/24/7 14/25/6 

vt -0.00798352 0
v 0.102978 0 -0.033101
vt 2.04755 0
vn -0.533489 0 0.845807
v 0.102978 0.12 -0.033101
vt 2.04755 4.72441
vt -0.00798352 4.72441
f 5/26/7 16/27/8 17/28/8 15/29/7 

vt -3.66729 1.20809
f 5/5/3 1/7/3 16/30/3

v 0.0922003 0 -0.0936368
vt -3.24297 3.5914
f 16/30/3 1/7/3 18/31/3

vt 1.06052 0
vn 0.734222 0 -0.67891
vt 2.70494 0
vt 2.70494 1.5748
v 0.0922003 0.04 -0.0936368
vt 1.06052 1.5748
f 18/32/9 1/33/1 4/34/1 19/35/9 

v 0.124318 0 -0.0669332
vt -1.84199 0
vn 0.533489 0 -0.845807
vt -0.19757 0
vt -0.19757 1.5748
v 0.124318 0.04 -0.0669332
vt -1.84199 1.5748
f 20/36/10 18/37/9 19/38/9 21/39/10 

vt -4.50743 2.54007
f 16/30/3 18/31/3 20/40/3

v 0.150396 0 -0.0112496
vt -5.53413 0.347803
f 16/30/3 20/40/3 22/41/3

v 0.162252 0 -0.0494521
vt -6.0009 1.85184
f 22/41/3 20/40/3 23/42/3

vt -4.67501 0
vn 0.2964 0 -0.955064
vt -3.03059 0
vt -3.03059 1.5748
v 0.162252 0.04 -0.0494521
vt -4.67501 1.5748
f 23/43/11 20/44/10 21/45/10 24/46/11 

v 0.203418 0 -0.0423848
vt -7.24546 0
vn 0.0391118 0 -0.999235
vt -5.60104 0
vt -5.60104 1.5748
v 0.203418 0.04 -0.0423848
vt -7.24546 1.5748
f 25/47/12 23/48/11 24/49/11 26/50/12 

v 0.201853 0 -0.00241536
vt -7.56002 0
vt -7.62162 1.5736
f 27/51/3 23/42/3 25/52/3

f 22/41/3 23/42/3 27/51/3

vt 5.39549 0
vn -0.2964 0 0.955064
vt 7.45102 0
vn -0.0391118 0 0.999235
v 0.201853 0.12 -0.00241536
vt 7.45102 4.72441
v 0.150396 0.12 -0.0112496
vt 5.39549 4.72441
f 22/53/13 27/54/14 28/55/14 29/56/13 

vt 7.52821 0
v 0.253844 0 -0.0072004
vt 9.58374 0
vn 0.220842 0 0.97531
v 0.253844 0.12 -0.0072004
vt 9.58374 4.72441
vt 7.52821 4.72441
f 27/57/14 30/58/15 31/59/15 28/60/14 

vt -9.6069 0.188388
f 27/51/3 25/52/3 30/61/3

v 0.245011 0 -0.0462128
vt -9.25912 1.72431
f 30/61/3 25/52/3 32/62/3

vt -9.37818 0
vn -0.220842 0 -0.97531
vt -7.73376 0
vt -7.73376 1.5748
v 0.245011 0.04 -0.0462128
vt -9.37818 1.5748
f 32/63/16 25/64/12 26/65/12 33/66/16 

v 0.284195 0 -0.0606753
vt -10.9278 0
vn -0.465746 0 -0.884919
vt -9.2834 0
vt -9.2834 1.5748
v 0.284195 0.04 -0.0606753
vt -10.9278 1.5748
f 34/67/17 32/68/16 33/69/16 35/70/17 

vt -10.8018 2.2937
f 30/61/3 32/62/3 34/71/3

v 0.302825 0 -0.0252786
vt -11.5353 0.900127
f 30/61/3 34/71/3 36/72/3

v 0.318301 0 -0.0847868
vt -12.1446 3.24297
f 36/72/3 34/71/3 37/73/3

vt -11.7888 0
vn -0.67891 0 -0.734222
vt -10.1444 0
vt -10.1444 1.5748
v 0.318301 0.04 -0.0847868
vt -11.7888 1.5748
f 37/74/18 34/75/17 35/76/17 38/77/18 

v 0.345005 0 -0.116904
vt -11.9024 0
vn -0.845807 0 -0.533489
vt -10.258 0
vt -10.258 1.5748
v 0.345005 0.04 -0.116904
vt -11.9024 1.5748
f 39/78/19 37/79/18 38/80/18 40/81/19 

v 0.345458 0 -0.0554179
vt -13.2137 2.08672
vt -13.1959 4.50743
f 41/82/3 37/73/3 39/83/3

f 36/72/3 37/73/3 41/82/3

vt 9.93882 0
vn 0.465746 0 0.884919
vt 11.9943 0
vn 0.67891 0 0.734222
v 0.345458 0.12 -0.0554179
vt 11.9943 4.72441
v 0.302825 0.12 -0.0252786
vt 9.93882 4.72441
f 36/84/20 41/85/21 42/86/21 43/87/20 

vt 10.0524 0
v 0.378837 0 -0.0955645
vt 12.108 0
vn 0.845807 0 0.533489
v 0.378837 0.12 -0.0955645
vt 12.108 4.72441
vt 10.0524 4.72441
f 41/88/21 44/89/22 45/90/22 42/91/21 

v 0.362486 0 -0.154838
vt -13.8841 6.0009
vt -14.5279 3.66729
f 41/82/3 46/92/3 44/93/3

f 41/82/3 39/83/3 46/92/3

vt -11.2609 0
vn -0.955064 0 -0.2964
vt -9.61649 0
vt -9.61649 1.5748
v 0.362486 0.04 -0.154838
vt -11.2609 1.5748
f 46/94/23 39/95/19 40/96/19 47/97/23 

v 0.369553 0 -0.196004
vt -9.90805 0
vt -8.26362 0
vt -8.26362 1.5748
v 0.369553 0.04 -0.196004
vt -9.90805 1.5748
f 48/98/4 46/99/23 47/100/23 49/101/4 

vt -14.1624 7.62162
f 44/93/3 46/92/3 48/102/3

v 0.38666 0 -0.295411
vt -14.8359 11.5353
f 48/102/3 50/103/3 44/93/3

v 0.365725 0 -0.237597
vt -14.0117 9.25912
f 51/104/3 50/103/3 48/102/3

v 0.35652 0 -0.338044
vt -13.6493 13.2137
f 51/104/3 52/105/3 50/103/3

v 0.351263 0 -0.276782
vt -13.4423 10.8018
f 53/106/3 52/105/3 51/104/3

v 0.327151 0 -0.310888
vt -12.493 12.1446
f 54/107/3 52/105/3 53/106/3

v 0.316374 0 -0.371424
vt -12.0687 14.5279
f 54/107/3 55/108/3 52/105/3

v 0.295034 0 -0.337591
vt -11.2286 13.1959
f 56/109/3 55/108/3 54/107/3

v 0.268956 0 -0.393275
vt -10.2018 15.3882
f 56/109/3 57/110/3 55/108/3

v 0.2571 0 -0.355073
vt -9.73508 13.8841
f 58/111/3 57/110/3 56/109/3

v 0.217498 0 -0.402109
vt -8.17596 15.736
f 58/111/3 59/112/3 57/110/3

v 0.215934 0 -0.36214
vt -8.11436 14.1624
f 60/113/3 59/112/3 58/111/3

v 0.174341 0 -0.358312
vt -6.47686 14.0117
f 61/114/3 59/112/3 60/113/3

v 0.165507 0 -0.397324
vt -6.12908 15.5476
f 61/114/3 62/115/3 59/112/3

v 0.135157 0 -0.343849
vt -4.93416 13.4423
f 63/116/3 62/115/3 61/114/3

v 0.116527 0 -0.379246
vt -4.2007 14.8359
f 63/116/3 64/117/3 62/115/3

v 0.10105 0 -0.319738
vt -3.5914 12.493
f 65/118/3 64/117/3 63/116/3

v 0.0743467 0 -0.287621
vt -2.54007 11.2286
f 66/119/3 64/117/3 65/118/3

v 0.0738939 0 -0.349107
vt -2.52225 13.6493
f 66/119/3 67/120/3 64/117/3

v 0.0568656 0 -0.249686
vt -1.85184 9.73508
f 68/121/3 67/120/3 66/119/3

f 6/8/3 67/120/3 68/121/3

f 67/120/3 6/8/3 7/9/3

vt -12.108 0
vt -10.0524 0
v 0.0405145 0.12 -0.30896
vt -10.0524 4.72441
v 0.0738939 0.12 -0.349107
vt -12.108 4.72441
f 67/122/18 7/123/19 69/124/19 70/125/18 

vt -11.4665 0
vt -9.41094 0
v 0.0186631 0.12 -0.261542
vt -9.41094 4.72441
vt -11.4665 4.72441
f 7/126/19 9/127/23 71/128/23 69/129/19 

vt -10.1136 0
vt -8.05807 0
vt -8.05807 4.72441
vt -10.1136 4.72441
f 9/130/23 11/131/4 13/132/4 71/133/23 

vt 0.188388 6.12908
vn 2.86367e-47 1 5.93765e-32
vt 0.347803 10.2018
vt -1.35291e-46 8.17596
f 12/134/24 71/135/24 13/136/24

vt 0.900127 4.2007
f 71/135/24 12/134/24 14/137/24

vt 1.20809 12.0687
f 71/135/24 14/137/24 69/138/24

vt 2.08672 2.52225
f 69/138/24 14/137/24 15/139/24

vt 2.52225 13.6493
f 69/138/24 15/139/24 70/140/24

vt 3.66729 1.20809
f 70/140/24 15/139/24 17/141/24

v 0.0897677 0.12 -0.206956
vt 3.1472 8.05277
f 70/140/24 17/141/24 72/142/24

v 0.0926387 0.12 -0.175761
vt 3.26023 6.82464
f 72/142/24 17/141/24 73/143/24

v 0.103486 0.12 -0.146373
vt 3.68727 5.66762
f 73/143/24 17/141/24 74/144/24

vt 5.53413 0.347803
f 74/144/24 17/141/24 29/145/24

vt 2.82503 0
vt 4.88056 0
vt 4.88056 4.72441
vt 2.82503 4.72441
f 16/146/8 22/147/13 29/148/13 17/149/8 

v 0.121569 0.12 -0.120793
vt 4.39923 4.66054
f 74/144/24 29/145/24 75/150/24

v 0.145657 0.12 -0.100766
vt 5.34757 3.87205
f 75/150/24 29/145/24 76/151/24

v 0.174108 0.12 -0.0876547
vt 6.46768 3.35588
f 76/151/24 29/145/24 77/152/24

vt 7.56002 2.80519e-31
f 77/152/24 29/145/24 28/153/24

v 0.204982 0.12 -0.0823541
vt 7.68321 3.1472
f 77/152/24 28/153/24 78/154/24

vt 9.6069 0.188388
f 78/154/24 28/153/24 31/155/24

v 0.236177 0.12 -0.0852252
vt 8.91134 3.26023
f 78/154/24 31/155/24 79/156/24

v 0.265565 0.12 -0.0960721
vt 10.0684 3.68727
f 79/156/24 31/155/24 80/157/24

vt 11.5353 0.900127
f 80/157/24 31/155/24 43/158/24

vt 9.07785 0
vt 11.1334 0
vt 11.1334 4.72441
vt 9.07785 4.72441
f 30/159/15 36/160/20 43/161/20 31/162/15 

v 0.291145 0.12 -0.114156
vt 11.0754 4.39923
f 80/157/24 43/158/24 81/163/24

v 0.311173 0.12 -0.138244
vt 11.8639 5.34757
f 81/163/24 43/158/24 82/164/24

vt 13.2137 2.08672
f 82/164/24 43/158/24 42/165/24

v 0.324284 0.12 -0.166694
vt 12.3801 6.46768
f 82/164/24 42/165/24 83/166/24

v 0.329584 0.12 -0.197569
vt 12.5888 7.68321
f 83/166/24 42/165/24 84/167/24

v 0.35652 0.12 -0.338044
vt 13.6493 13.2137
f 85/168/24 84/167/24 42/165/24

v 0.326713 0.12 -0.228763
vt 12.4758 8.91134
f 85/168/24 86/169/24 84/167/24

v 0.316374 0.12 -0.371424
vt 12.0687 14.5279
f 87/170/24 86/169/24 85/168/24

v 0.315866 0.12 -0.258152
vt 12.0487 10.0684
f 87/170/24 88/171/24 86/169/24

v 0.297782 0.12 -0.283731
vt 11.3368 11.0754
f 87/170/24 89/172/24 88/171/24

v 0.273695 0.12 -0.303759
vt 10.3884 11.8639
f 87/170/24 90/173/24 89/172/24

v 0.268956 0.12 -0.393275
vt 10.2018 15.3882
f 91/174/24 90/173/24 87/170/24

v 0.245244 0.12 -0.31687
vt 9.26831 12.3801
f 91/174/24 92/175/24 90/173/24

v 0.217498 0.12 -0.402109
vt 8.17596 15.736
f 93/176/24 92/175/24 91/174/24

v 0.214369 0.12 -0.322171
vt 8.05277 12.5888
f 93/176/24 94/177/24 92/175/24

v 0.183175 0.12 -0.319299
vt 6.82464 12.4758
f 93/176/24 95/178/24 94/177/24

v 0.165507 0.12 -0.397324
vt 6.12908 15.5476
f 96/179/24 95/178/24 93/176/24

v 0.153786 0.12 -0.308453
vt 5.66762 12.0487
f 96/179/24 97/180/24 95/178/24

v 0.128207 0.12 -0.290369
vt 4.66054 11.3368
f 96/179/24 98/181/24 97/180/24

v 0.116527 0.12 -0.379246
vt 4.2007 14.8359
f 99/182/24 98/181/24 96/179/24

v 0.108179 0.12 -0.266281
vt 3.87205 10.3884
f 99/182/24 100/183/24 98/181/24

v 0.0950682 0.12 -0.23783
vt 3.35588 9.26831
f 99/182/24 101/184/24 100/183/24

f 99/182/24 72/142/24 101/184/24

f 72/142/24 99/182/24 70/140/24

vt -11.9943 0
vt -9.93882 0
vt -9.93882 4.72441
vt -11.9943 4.72441
f 64/185/17 67/186/18 70/187/18 99/188/17 

vt -11.1334 0
vt -9.07785 0
vt -9.07785 4.72441
vt -11.1334 4.72441
f 62/189/16 64/190/17 99/191/17 96/192/16 

vt -9.58374 0
vt -7.52821 0
vt -7.52821 4.72441
vt -9.58374 4.72441
f 59/193/12 62/194/16 96/195/16 93/196/12 

vt -7.45102 0
vt -5.39549 0
vt -5.39549 4.72441
vt -7.45102 4.72441
f 57/197/11 59/198/12 93/199/12 91/200/11 

vt -4.88056 0
vt -2.82503 0
vt -2.82503 4.72441
vt -4.88056 4.72441
f 55/201/10 57/202/11 91/203/11 87/204/10 

vt -2.04755 0
vt 0.00798352 0
vt 0.00798352 4.72441
vt -2.04755 4.72441
f 52/205/9 55/206/10 87/207/10 85/208/9 

vt 0.854965 0
vt 2.9105 0
vt 2.9105 4.72441
v 0.38666 0.12 -0.295411
vt 0.854965 4.72441
f 50/209/1 52/210/9 85/211/9 102/212/1 

vt 14.5279 3.66729
vt 14.8359 11.5353
f 85/168/24 45/213/24 102/214/24

f 85/168/24 42/165/24 45/213/24

v 0.400689 0.12 -0.142982
vt 15.3882 5.53413
f 102/214/24 45/213/24 103/215/24

vt 9.41094 0
v 0.400689 0 -0.142982
vt 11.4665 0
vn 0.955064 0 0.2964
vt 11.4665 4.72441
vt 9.41094 4.72441
f 44/216/22 104/217/25 103/218/25 45/219/22 

vt -15.3882 5.53413
f 44/93/3 50/103/3 104/220/3

v 0.404738 0 -0.246431
vt -15.5476 9.6069
f 104/220/3 50/103/3 105/221/3

vt 3.62917 0
vt 5.6847 0
vt 5.6847 4.72441
v 0.404738 0.12 -0.246431
vt 3.62917 4.72441
f 105/222/2 50/223/1 102/224/1 106/225/2 

vt 15.5476 9.6069
f 102/214/24 103/215/24 106/226/24

v 0.409523 0.12 -0.19444
vt 15.736 7.56002
f 106/226/24 103/215/24 107/227/24

vt 8.05807 0
v 0.409523 0 -0.19444
vt 10.1136 0
vn 0.999235 0 0.0391118
vt 10.1136 4.72441
vt 8.05807 4.72441
f 104/228/25 108/229/26 107/230/26 103/231/25 

vt -15.736 7.56002
f 104/220/3 105/221/3 108/232/3

vt 6.08602 0
vt 8.14155 0
vt 8.14155 4.72441
vt 6.08602 4.72441
f 108/233/26 105/234/2 106/235/2 107/236/26 

vt -9.70249 4.72441
vt -8.46918 4.72441
v 0.0897677 0.52 -0.206956
vt -8.46918 20.4724
v 0.0950682 0.52 -0.23783
vt -9.70249 20.4724
f 101/237/23 72/238/4 109/239/4 110/240/23 

vt -7.73044 4.72441
vt -6.49712 4.72441
v 0.0926387 0.52 -0.175761
vt -6.49712 20.4724
vt -7.73044 20.4724
f 72/241/4 73/242/5 111/243/5 109/244/4 

vt -5.2736 4.72441
vt -4.04028 4.72441
v 0.103486 0.52 -0.146373
vt -4.04028 20.4724
vt -5.2736 20.4724
f 73/245/5 74/246/6 112/247/6 111/248/5 

vt -2.49939 4.72441
vt -1.26607 4.72441
v 0.121569 0.52 -0.120793
vt -1.26607 20.4724
vt -2.49939 20.4724
f 74/249/6 75/250/7 113/251/7 112/252/6 

vt 0.403123 4.72441
vt 1.63644 4.72441
v 0.145657 0.52 -0.100766
vt 1.63644 20.4724
vt 0.403123 20.4724
f 75/253/7 76/254/8 114/255/8 113/256/7 

vt 3.23614 4.72441
vt 4.46946 4.72441
v 0.174108 0.52 -0.0876547
vt 4.46946 20.4724
vt 3.23614 20.4724
f 76/257/8 77/258/13 115/259/13 114/260/8 

vt 5.80659 4.72441
vt 7.03991 4.72441
v 0.204982 0.52 -0.0823541
vt 7.03991 20.4724
vt 5.80659 20.4724
f 77/261/13 78/262/14 116/263/14 115/264/13 

vt 7.93931 4.72441
vt 9.17263 4.72441
v 0.236177 0.52 -0.0852252
vt 9.17263 20.4724
vt 7.93931 20.4724
f 78/265/14 79/266/15 117/267/15 116/268/14 

vt 9.48896 4.72441
vt 10.7223 4.72441
v 0.265565 0.52 -0.0960721
vt 10.7223 20.4724
vt 9.48896 20.4724
f 79/269/15 80/270/20 118/271/20 117/272/15 

vt 10.3499 4.72441
vt 11.5832 4.72441
v 0.291145 0.52 -0.114156
vt 11.5832 20.4724
vt 10.3499 20.4724
f 80/273/20 81/274/21 119/275/21 118/276/20 

vt 10.4635 4.72441
vt 11.6968 4.72441
v 0.311173 0.52 -0.138244
vt 11.6968 20.4724
vt 10.4635 20.4724
f 81/277/21 82/278/22 120/279/22 119/280/21 

vt 9.82204 4.72441
vt 11.0554 4.72441
v 0.324284 0.52 -0.166694
vt 11.0554 20.4724
vt 9.82204 20.4724
f 82/281/22 83/282/25 121/283/25 120/284/22 

vt 8.46918 4.72441
vt 9.70249 4.72441
v 0.329584 0.52 -0.197569
vt 9.70249 20.4724
vt 8.46918 20.4724
f 83/285/25 84/286/26 122/287/26 121/288/25 

vt 6.49712 4.72441
vt 7.73044 4.72441
v 0.326713 0.52 -0.228763
vt 7.73044 20.4724
vt 6.49712 20.4724
f 84/289/26 86/290/2 123/291/2 122/292/26 

vt 4.04028 4.72441
vt 5.2736 4.72441
v 0.315866 0.52 -0.258152
vt 5.2736 20.4724
vt 4.04028 20.4724
f 86/293/2 88/294/1 124/295/1 123/296/2 

vt 1.26607 4.72441
vt 2.49939 4.72441
v 0.297782 0.52 -0.283731
vt 2.49939 20.4724
vt 1.26607 20.4724
f 88/297/1 89/298/9 125/299/9 124/300/1 

vt -1.63644 4.72441
vt -0.403123 4.72441
v 0.273695 0.52 -0.303759
vt -0.403123 20.4724
vt -1.63644 20.4724
f 89/301/9 90/302/10 126/303/10 125/304/9 

vt -4.46946 4.72441
vt -3.23614 4.72441
v 0.245244 0.52 -0.31687
vt -3.23614 20.4724
vt -4.46946 20.4724
f 90/305/10 92/306/11 127/307/11 126/308/10 

vt -7.03991 4.72441
vt -5.80659 4.72441
v 0.214369 0.52 -0.322171
vt -5.80659 20.4724
vt -7.03991 20.4724
f 92/309/11 94/310/12 128/311/12 127/312/11 

vt -9.17263 4.72441
vt -7.93931 4.72441
v 0.183175 0.52 -0.319299
vt -7.93931 20.4724
vt -9.17263 20.4724
f 94/313/12 95/314/16 129/315/16 128/316/12 

vt -10.7223 4.72441
vt -9.48896 4.72441
v 0.153786 0.52 -0.308453
vt -9.48896 20.4724
vt -10.7223 20.4724
f 95/317/16 97/318/17 130/319/17 129/320/16 

vt -11.5832 4.72441
vt -10.3499 4.72441
v 0.128207 0.52 -0.290369
vt -10.3499 20.4724
vt -11.5832 20.4724
f 97/321/17 98/322/18 131/323/18 130/324/17 

vt -11.6968 4.72441
vt -10.4635 4.72441
v 0.108179 0.52 -0.266281
vt -10.4635 20.4724
vt -11.6968 20.4724
f 98/325/18 100/326/19 132/327/19 131/328/18 

vt -11.0554 4.72441
vt -9.82204 4.72441
vt -9.82204 20.4724
vt -11.0554 20.4724
f 100/329/19 101/330/23 110/331/23 132/332/19 

vn 0 1 -0
f 110/184/27 109/142/27 111/143/27 112/144/27 113/150/27 114/151/27 115/152/27 116/154/27 117/156/27 118/157/27 119/163/27 120/164/27 121/166/27 122/167/27 123/169/27 124/171/27 125/172/27 126/173/27 127/175/27 128/177/27 129/178/27 130/180/27 131/181/27 132/183/27 

vt 8.26362 0
vt 9.90805 0
v 0.0568656 0.04 -0.249686
vt 9.90805 1.5748
v 0.0497983 0.04 -0.20852
vt 8.26362 1.5748
f 6/333/26 68/334/25 133/335/25 134/336/26 

vt 9.61649 0
vt 11.2609 0
v 0.0743467 0.04 -0.287621
vt 11.2609 1.5748
vt 9.61649 1.5748
f 68/337/25 66/338/22 135/339/22 133/340/25 

vt 10.258 0
vt 11.9024 0
v 0.10105 0.04 -0.319738
vt 11.9024 1.5748
vt 10.258 1.5748
f 66/341/22 65/342/21 136/343/21 135/344/22 

vt 10.1444 0
vt 11.7888 0
v 0.135157 0.04 -0.343849
vt 11.7888 1.5748
vt 10.1444 1.5748
f 65/345/21 63/346/20 137/347/20 136/348/21 

vt 9.2834 0
vt 10.9278 0
v 0.174341 0.04 -0.358312
vt 10.9278 1.5748
vt 9.2834 1.5748
f 63/349/20 61/350/15 138/351/15 137/352/20 

vt 7.73376 0
vt 9.37818 0
v 0.215934 0.04 -0.36214
vt 9.37818 1.5748
vt 7.73376 1.5748
f 61/353/15 60/354/14 139/355/14 138/356/15 

vt 5.60104 0
vt 7.24546 0
v 0.2571 0.04 -0.355073
vt 7.24546 1.5748
vt 5.60104 1.5748
f 60/357/14 58/358/13 140/359/13 139/360/14 

vt 3.03059 0
vt 4.67501 0
v 0.295034 0.04 -0.337591
vt 4.67501 1.5748
vt 3.03059 1.5748
f 58/361/13 56/362/8 141/363/8 140/364/13 

vt 0.19757 0
vt 1.84199 0
v 0.327151 0.04 -0.310888
vt 1.84199 1.5748
vt 0.19757 1.5748
f 56/365/8 54/366/7 142/367/7 141/368/8 

vt -2.70494 0
vt -1.06052 0
v 0.351263 0.04 -0.276782
vt -1.06052 1.5748
vt -2.70494 1.5748
f 54/369/7 53/370/6 143/371/6 142/372/7 

vt -5.47915 0
vt -3.83473 0
v 0.365725 0.04 -0.237597
vt -3.83473 1.5748
vt -5.47915 1.5748
f 53/373/6 51/374/5 144/375/5 143/376/6 

vt -7.93599 0
vt -6.29157 0
vt -6.29157 1.5748
vt -7.93599 1.5748
f 51/377/5 48/378/4 49/379/4 144/380/5 

vt 6.29157 0
vt 7.93599 0
vt 7.93599 1.5748
vt 6.29157 1.5748
f 2/381/2 6/382/26 134/383/26 3/384/2 

g Mesh2 Model

usemtl Color_E05
v 0.203418 0.04 -0.0423848
vt -8.00858 1.66869
v 0.162252 0.04 -0.0494521
vt -6.38787 1.94693
vt -4.89439 2.63517
v 0.0922003 0.04 -0.0936368
vt -3.62993 3.68649
vt -2.68066 5.02925
v 0.0536263 0.04 -0.166928
vt -2.11127 6.57195
vt -1.96056 8.20946
v 0.0568656 0.04 -0.249686
vt -2.2388 9.83017
vt -2.92704 11.3236
v 0.10105 0.04 -0.319738
vt -3.97836 12.5881
v 0.135157 0.04 -0.343849
vt -5.32112 13.5374
vt -6.86382 14.1068
vt -8.50133 14.2575
v 0.2571 0.04 -0.355073
vt -10.122 13.9792
vt -11.6155 13.291
v 0.327151 0.04 -0.310888
vt -12.88 12.2397
v 0.351263 0.04 -0.276782
vt -13.8292 10.8969
vt -14.3986 9.35421
vt -14.5493 7.71671
vt -14.2711 6.096
vt -13.5829 4.60252
vt -12.5315 3.33806
vt -11.1888 2.38879
vt -9.64608 1.8194
f 145/385/3 146/386/3 21/387/3 147/388/3 4/389/3 148/390/3 134/391/3 149/392/3 135/393/3 150/394/3 151/395/3 138/396/3 139/397/3 152/398/3 141/399/3 153/400/3 154/401/3 144/402/3 49/403/3 47/404/3 40/405/3 38/406/3 35/407/3 33/408/3 

