# Alias OBJ Model File
# Exported from SketchUp, (c) 2000-2012 Trimble Navigation Limited
# File units = meters

mtllib Pipe.mtl

g Mesh1 Model

usemtl FrontColor
v 0 0 -1.6
vt 0 62.9921
vn 0 -1 -0
v 0.1 0 -1.5
vt -3.93701 59.0551
v 0 0 -0
vt 0 0
f 1/1/1 2/2/1 3/3/1

v 1.6 0 -1.6
vt -62.9921 62.9921
f 2/2/1 1/1/1 4/4/1

vt -62.9921 0
vn 0 0 -1
v 0 3.2 -1.6
vt 0 125.984
v 1.6 3.2 -1.6
vt -62.9921 125.984
v 1.6 3.1 -1.6
vt -62.9921 122.047
f 4/5/2 1/3/2 5/6/2 6/7/2 7/8/2 

vn -1 0 -0
v 0 3.2 -0
f 1/5/3 3/3/3 8/6/3 5/7/3 

vn -1.74982e-17 -9.15665e-18 1
v 1.6 0 -0
vt 62.9921 -1.00929e-32
v 1.6 3.1 -0
vt 62.9921 122.047
v 1.6 3.2 9.77264e-17
vt 62.9921 125.984
f 3/3/4 9/9/4 10/10/4 11/11/4 8/6/4 

v 0.1 0 -0.1
vt -3.93701 3.93701
f 3/3/1 12/12/1 9/5/1

f 12/12/1 3/3/1 2/2/1

vt 59.0551 0
vn 1 0 -0
v 0.1 3.1 -1.5
vt 59.0551 122.047
v 0.1 3.1 -0.1
vt 3.93701 122.047
vt 3.93701 0
f 2/13/5 13/14/5 14/15/5 12/16/5 

v 1.5 3.1 -1.5
vn 0 0 1
v 1.5 0 -1.5
f 15/14/6 13/15/6 2/16/6 16/13/6 

vt -59.0551 59.0551
v 1.5 3.1 -0.1
vt -59.0551 3.93701
f 14/12/1 13/2/1 15/17/1 17/18/1 

vt -3.93701 122.047
vt -59.0551 122.047
vt -59.0551 0
v 1.5 0 -0.1
vt -3.93701 0
f 17/19/3 15/20/3 16/21/3 18/22/3 

v 1.6 3.1 -1.5
vt -62.9921 59.0551
v 1.6 3.1 -0.1
vt -62.9921 3.93701
f 19/23/1 20/24/1 17/18/1 15/17/1 

vt -5.93738e-31 -7.33463e-15
vn 1 1.16437e-16 -9.42559e-33
vt 62.9921 -7.33463e-15
vt -5.93738e-31 122.047
f 9/25/7 4/26/7 7/10/7 19/14/7 20/15/7 10/27/7 

f 9/5/1 18/18/1 4/4/1

f 9/5/1 12/12/1 18/18/1

f 14/19/2 17/20/2 18/21/2 12/22/2 

f 16/17/1 4/4/1 18/18/1

f 2/2/1 4/4/1 16/17/1

vn 1 3.60956e-15 1.05875e-32
vt -3.8475e-15 125.984
vt 6.6693e-31 122.047
f 20/15/8 19/14/8 7/10/8 6/11/8 11/28/8 10/29/8 

vn 0 1 -0
vt 62.9921 -3.8475e-15
vt 62.9921 62.9921
f 8/3/9 11/30/9 6/31/9 5/1/9 

