# Alias OBJ Model File
# Exported from SketchUp, (c) 2000-2012 Trimble Navigation Limited
# File units = meters

mtllib See_Angle.mtl

g Mesh1 Model

usemtl FrontColor
v 49.9515 0 -1.55713
vt -1966.59 61.3045
vn 0 -1 -0
v 50 0 -1.21086
vt -1968.5 47.6717
v 50 0 -0
vt -1968.5 0
v 0 0 -0
vt 0 0
v 0.219767 0 -0.935918
vt -8.65226 36.8472
v 0.495725 0 -4.95384
vt -19.5167 195.033
v 2.61284 0 -11.1272
vt -102.868 438.079
v 6.25559 0 -16.5423
vt -246.283 651.271
v 11.1758 0 -20.83
vt -439.99 820.08
v 17.038 0 -23.6982
vt -670.788 933.002
v 23.4429 0 -24.9515
vt -922.947 982.341
v 29.9538 0 -24.5043
vt -1179.28 964.735
v 36.1272 0 -22.3872
vt -1422.33 881.384
v 41.5423 0 -18.7444
vt -1635.52 737.969
v 45.83 0 -13.8242
vt -1804.33 544.262
v 48.6982 0 -7.96199
vt -1917.25 313.464
f 1/1/1 2/2/1 3/3/1 4/4/1 5/5/1 6/6/1 7/7/1 8/8/1 9/9/1 10/10/1 11/11/1 12/12/1 13/13/1 14/14/1 15/15/1 16/16/1 

vt -226.063 0
vn 0.990317 0 -0.138823
vt -212.297 0
v 49.9515 10 -1.55713
vt -212.297 393.701
v 50 10 -1.21086
vt -226.063 393.701
f 2/17/2 1/18/2 17/19/2 18/20/2 

vt -317.472 0
vn 0.98139 0 -0.192025
vt -60.5306 0
vn 0.94793 0 -0.31848
v 48.6982 10 -7.96199
vt -60.5306 393.701
vt -317.472 393.701
f 1/21/3 16/22/4 19/23/4 17/24/3 

vt -561.034 0
vt -304.093 0
vn 0.833201 0 -0.55297
v 45.83 10 -13.8242
vt -304.093 393.701
vt -561.034 393.701
f 16/25/4 15/26/5 20/27/5 19/28/4 

vt -775.118 0
vt -518.177 0
vn 0.661691 0 -0.749776
v 41.5423 10 -18.7444
vt -518.177 393.701
vt -775.118 393.701
f 15/29/5 14/30/6 21/31/6 20/32/5 

vt -945.134 0
vt -688.193 0
vn 0.445088 0 -0.895487
v 36.1272 10 -22.3872
vt -688.193 393.701
vt -945.134 393.701
f 14/33/6 13/34/7 22/35/7 21/36/6 

vt -1059.5 0
vt -802.554 0
vn 0.198153 0 -0.980171
v 29.9538 10 -24.5043
vt -802.554 393.701
vt -1059.5 393.701
f 13/37/7 12/38/8 23/39/8 22/40/7 

vt -1110.41 0
vt -853.468 0
vn -0.0622853 0 -0.998058
v 23.4429 10 -24.9515
vt -853.468 393.701
vt -1110.41 393.701
f 12/41/8 11/42/9 24/43/9 23/44/8 

vt -1094.41 0
vt -837.464 0
vn -0.31848 0 -0.94793
v 17.038 10 -23.6982
vt -837.464 393.701
vt -1094.41 393.701
f 11/45/9 10/46/10 25/47/10 24/48/9 

vt -1012.58 0
vt -755.634 0
vn -0.55297 0 -0.833201
v 11.1758 10 -20.83
vt -755.634 393.701
vt -1012.58 393.701
f 10/49/10 9/50/11 26/51/11 25/52/10 

vt -870.494 0
vt -613.553 0
vn -0.749776 0 -0.661691
v 6.25559 10 -16.5423
vt -613.553 393.701
vt -870.494 393.701
f 9/53/11 8/54/12 27/55/12 26/56/11 

vt -677.846 0
vt -420.904 0
vn -0.895487 0 -0.445088
v 2.61284 10 -11.1272
vt -420.904 393.701
vt -677.846 393.701
f 8/57/12 7/58/13 28/59/13 27/60/12 

vt -447.758 0
vt -190.817 0
vn -0.980171 0 -0.198153
v 0.495725 10 -4.95384
vt -190.817 393.701
vt -447.758 393.701
f 7/61/13 6/62/14 29/63/14 28/64/13 

vt -195.912 0
vt -37.3534 0
vn -0.99765 0 -0.0685203
v 0.219767 10 -0.935918
vt -37.3534 393.701
vt -195.912 393.701
f 6/65/14 5/66/15 30/67/15 29/68/14 

vt -37.8494 0
vn -0.973521 0 -0.228597
v 0 10 -0
vt 0 393.701
vt -37.8494 393.701
f 5/69/16 4/4/16 31/70/16 30/71/16 

vn 0 0 1
vt 1968.5 0
v 50 10 -0
vt 1968.5 393.701
f 4/4/17 3/72/17 32/73/17 31/70/17 

vn 1 0 -0
vt 47.6717 0
vt 47.6717 393.701
f 3/4/18 2/74/18 18/75/18 32/70/18 

vt 1968.5 47.6717
vn 0 1 -0
vt 1966.59 61.3045
vt 1917.25 313.464
vt 1804.33 544.262
vt 1635.52 737.969
vt 1422.33 881.384
vt 1179.28 964.735
vt 922.947 982.341
vt 670.788 933.002
vt 439.99 820.08
vt 246.283 651.271
vt 102.868 438.079
vt 19.5167 195.033
vt 8.65226 36.8472
f 18/76/19 17/77/19 19/78/19 20/79/19 21/80/19 22/81/19 23/82/19 24/83/19 25/84/19 26/85/19 27/86/19 28/87/19 29/88/19 30/89/19 31/4/19 32/72/19 

