# Alias OBJ Model File
# Exported from SketchUp, (c) 2000-2012 Trimble Navigation Limited
# File units = meters

mtllib Stage_1-3.mtl

g Mesh1 Group1 Model

usemtl FrontColor
v 1.7 0 -15.5
vt -610.236 0
vn -1 0 -0
v 1.7 0 -5.9
vt -232.283 0
v 1.7 2 -5.9
vt -232.283 78.7402
v 1.7 2 -15.5
vt -610.236 78.7402
f 1/1/1 2/2/1 3/3/1 4/4/1 

v 5.7 2 -5.7
vt 216.535 224.409
vn 0 1 -0
v 4.2 2 -5.7
vt 157.48 224.409
v 4.2 2 -5.9
vt 157.48 232.283
v 4.2 2 -15.5
vt 157.48 610.236
v 4.2 2 -15.7
vt 157.48 618.11
v 5.7 2 -15.7
vt 216.535 618.11
v 5.7 2 -21.2
vt 216.535 834.646
v 0.2 2 -21.2
vt 8.88178e-16 834.646
v 0.2 2 -15.7
vt 8.88178e-16 618.11
v 1.7 2 -15.7
vt 59.0551 618.11
vt 59.0551 610.236
vt 59.0551 232.283
v 1.7 2 -5.7
vt 59.0551 224.409
v 0.2 2 -5.7
vt 8.88178e-16 224.409
v 0.2 2 -0.2
vt 8.88178e-16 7.87402
v 5.7 2 -0.2
vt 216.535 7.87402
f 5/5/2 6/6/2 7/7/2 8/8/2 9/9/2 10/10/2 11/11/2 12/12/2 13/13/2 14/14/2 4/15/2 3/16/2 15/17/2 16/18/2 17/19/2 18/20/2 

v 4.2 0 -5.9
vt 232.283 0
vn 1 0 -0
v 4.2 0 -15.5
vt 610.236 0
vt 610.236 78.7402
vt 232.283 78.7402
f 19/21/3 20/22/3 8/23/3 7/24/3 

v 5.7 2 -21.4
vt 216.535 842.52
v 0.2 2 -21.4
vt 0 842.52
f 21/25/2 22/26/2 12/12/2 11/11/2 

v 0.2 2 -0
vt 8.88178e-16 0
v 5.7 2 -0
vt 216.535 0
f 23/27/2 24/28/2 18/20/2 17/19/2 

g Mesh2 Group2 Model

v 5.9 0 -0
vt 1.62792e-14 1.38927e-14
vn 1 -5.98091e-17 7.00832e-17
v 5.9 0 -5.9
vt 232.283 1.38927e-14
v 5.9 7 -5.9
vt 232.283 275.591
v 5.9 7.2 -5.9
vt 232.283 283.465
v 5.9 7.2 -0
vt 1.62792e-14 283.465
f 25/29/4 26/30/4 27/31/4 28/32/4 29/33/4 

v 1.75028e-14 0 -15.5
vt -6.89088e-13 610.236
vn 0 -1 -0
v 1.75028e-14 0 -21.4
vt -6.89088e-13 842.52
v 5.9 0 -21.4
vt -232.283 842.52
v 5.9 0 -15.5
vt -232.283 610.236
v 4.2 0 -15.5
vt -165.354 610.236
v 4.2 0 -5.9
vt -165.354 232.283
vt -232.283 232.283
v 1.75028e-14 0 -0
vt -6.89088e-13 0
v 1.75028e-14 0 -5.9
vt -6.89088e-13 232.283
v 1.7 0 -5.9
vt -66.9291 232.283
v 1.7 0 -15.5
vt -66.9291 610.236
f 30/34/5 31/35/5 32/36/5 33/37/5 34/38/5 35/39/5 26/40/5 25/2/5 36/41/5 37/42/5 38/43/5 39/44/5 

vt -842.52 1.93631e-29
vn -1 -7.25039e-16 -8.49587e-16
vt -610.236 -1.2372e-28
v 1.75028e-14 7 -15.5
vt -610.236 275.591
v 0 7.2 -15.5
vt -610.236 283.465
v 1.75028e-14 7.2 -21.4
vt -842.52 283.465
f 31/45/6 30/46/6 40/47/6 41/48/6 42/49/6 

vt 2.26833e-13 275.591
vn -7.57501e-16 2.47461e-16 1
vt 2.26833e-13 1.5101e-13
vt 66.9291 1.5101e-13
v 1.7 2 -15.5
vt 66.9291 78.7402
v 1.7 7 -15.5
vt 66.9291 275.591
v 0.2 7 -15.5
vt 7.87402 275.591
f 40/50/7 30/51/7 39/52/7 43/53/7 44/54/7 45/55/7 

v 1.7 2 -15.7
vt 618.11 78.7402
v 1.7 7 -15.7
vt 618.11 275.591
vt 610.236 275.591
f 43/23/3 46/56/3 47/57/3 44/58/3 

vt -66.9291 78.7402
vn 0 0 -1
v 0.2 2 -15.7
vt -7.87402 78.7402
v 0.2 7 -15.7
vt -7.87402 275.591
vt -66.9291 275.591
f 46/59/8 48/60/8 49/61/8 47/62/8 

vn 1 -3.49289e-16 4.1781e-16
v 0.2 2 -21.2
vt 834.646 78.7402
v 0.2 6.4 -21.2
vt 834.646 251.969
v 0.2 7 -21.2
vt 834.646 275.591
f 48/56/9 50/63/9 51/64/9 52/65/9 49/57/9 

vn 1 -1.11775e-15 1.25583e-14
v 0.2 2 -21.4
vt 842.52 78.7402
v 0.2 6.4 -21.4
vt 842.52 251.969
f 50/63/10 53/66/10 54/67/10 51/64/10 

vn 2.52299e-15 2.15313e-15 -1
vt 1.43658e-12 283.465
vt -7.87402 251.969
f 53/60/11 42/68/11 54/69/11

vt 1.43658e-12 -1.81405e-12
f 53/60/11 31/70/11 42/68/11

vt -232.283 -1.81405e-12
f 31/70/11 53/60/11 32/71/11

v 5.7 2 -21.4
vt -224.409 78.7402
f 55/72/11 32/71/11 53/60/11

v 5.9 7 -21.4
vt -232.283 275.591
f 32/71/11 55/72/11 56/73/11

v 5.7 6.4 -21.4
vt -224.409 251.969
f 56/73/11 55/72/11 57/74/11

v 5.7 2 -21.2
vt -834.646 78.7402
v 5.7 6.4 -21.2
vt -834.646 251.969
vt -842.52 251.969
vt -842.52 78.7402
f 58/75/1 59/76/1 57/77/1 55/78/1 

v 5.7 2 -15.7
vt -618.11 78.7402
v 5.7 7 -15.7
vt -618.11 275.591
v 5.7 7 -21.2
vt -834.646 275.591
f 58/75/1 60/79/1 61/80/1 62/81/1 59/76/1 

v 4.2 2 -15.7
vt -165.354 78.7402
v 4.2 7 -15.7
vt -165.354 275.591
vt -224.409 275.591
f 60/72/8 63/82/8 64/83/8 61/84/8 

v 4.2 2 -15.5
v 4.2 7 -15.5
f 63/79/1 65/4/1 66/47/1 64/80/1 

vt 232.283 1.5101e-13
vn 7.57501e-16 2.47461e-16 1
v 5.9 7 -15.5
v 5.7 7 -15.5
vt 224.409 275.591
vt 165.354 275.591
vt 165.354 78.7402
vt 165.354 1.5101e-13
f 33/85/12 67/31/12 68/86/12 66/87/12 65/88/12 34/89/12 

vt 842.52 0
vt 842.52 275.591
f 32/90/3 56/91/3 67/58/3 33/22/3 

vn 1 1.98526e-14 6.72968e-16
v 5.9 7.2 -21.4
vt 842.52 283.465
v 5.9 7.2 -15.5
vt 610.236 283.465
f 67/58/13 56/91/13 69/92/13 70/93/13 

vt -232.283 283.465
f 56/73/11 42/68/11 69/94/11

f 57/74/11 42/68/11 56/73/11

f 54/69/11 42/68/11 57/74/11

vt -224.409 842.52
vt -224.409 834.646
vt -7.87402 834.646
vt -7.87402 842.52
f 57/95/5 59/96/5 51/97/5 54/98/5 

vt 224.409 251.969
vn 0 0 1
vt 7.87402 251.969
f 59/99/14 62/86/14 52/55/14 51/100/14 

vn 1.94391e-28 -1 -4.92469e-14
vt -224.409 618.11
vt -165.354 618.11
vt -66.9291 618.11
vt -7.87402 618.11
f 52/97/15 62/96/15 61/101/15 64/102/15 66/38/15 44/44/15 47/103/15 49/104/15 

vt -224.409 610.236
vn -2.65182e-13 -1 -1.98887e-12
f 68/105/16 66/38/16 64/102/16 61/101/16 

vt -1.32914e-12 275.591
vn -3.30729e-15 3.04406e-13 1
v 4.2 7.2 -15.5
vt 165.354 283.465
v 1.7 7.2 -15.5
vt 66.9291 283.465
vt -2.01823e-12 283.465
f 40/106/17 45/55/17 44/54/17 66/87/17 68/86/17 67/31/17 70/32/17 71/107/17 72/108/17 41/109/17 

vt -7.87402 610.236
vn 2.65182e-13 -1 -1.98887e-12
f 45/110/18 49/104/18 47/103/18 44/44/18 

vt -1.06409e-12 842.52
vn 6.18482e-15 1 9.54391e-14
vt -1.75318e-12 610.236
vt 66.9291 610.236
v 1.7 7.2 -15.7
vt 66.9291 618.11
v 4.2 7.2 -15.7
vt 165.354 618.11
vt 165.354 610.236
vt 232.283 610.236
vt 232.283 842.52
f 42/111/19 41/112/19 72/113/19 73/114/19 74/115/19 71/116/19 70/117/19 69/118/19 

v 1.7 7.2 -5.9
vn -1 3.45286e-14 -4.16181e-15
v 1.7 7.2 -5.7
vt -224.409 283.465
v 1.7 8.9 -5.7
vt -224.409 350.394
v 1.7 8.9 -15.7
vt -618.11 350.394
vt -618.11 283.465
v 1.7 8.7 -15.5
vt -610.236 342.52
v 1.7 8.7 -5.9
vt -232.283 342.52
f 75/94/20 76/119/20 77/120/20 78/121/20 73/122/20 72/48/20 79/123/20 80/124/20 

vt 232.283 232.283
vn 2.41677e-27 1 -2.06952e-13
v 4.2 7.2 -5.9
vt 165.354 232.283
v 4.2 7.2 -5.7
vt 165.354 224.409
vt 66.9291 224.409
vt 66.9291 232.283
v 5.99349e-14 7.2 -5.9
vt 2.35964e-12 232.283
v 3.08582e-14 7.2 -8.22979e-14
vt 1.21489e-12 -5.54234e-11
vt 232.283 -5.86635e-11
f 28/125/21 81/126/21 82/127/21 76/128/21 75/129/21 83/130/21 84/131/21 29/132/21 

v 5.7 7 -5.9
vn 2.53409e-15 -2.80003e-13 -1
v 4.2 7 -5.9
vt -165.354 283.465
f 85/84/22 86/83/22 81/133/22 28/94/22 27/73/22 

vn 5.77594e-15 1.88689e-15 -1
vt -232.283 -4.38293e-13
vt -165.354 -4.38293e-13
v 4.2 2 -5.9
f 27/73/23 26/134/23 35/135/23 87/82/23 86/83/23 85/84/23 

v 4.2 2 -5.7
v 4.2 7 -5.7
f 87/3/1 88/72/1 89/84/1 86/73/1 

v 5.7 2 -5.7
vt 224.409 78.7402
v 5.7 7 -5.7
f 88/88/14 90/136/14 91/86/14 89/87/14 

vn -1 -1.3346e-16 -1.59641e-16
v 5.7 2 -0.2
v 5.7 6.4 -0.2
v 5.7 7 -0.2
f 90/72/24 92/60/24 93/69/24 94/61/24 91/84/24 

vn -1 -4.26173e-16 -4.81274e-15
v 5.7 2 -0
vt -1.08002e-12 78.7402
v 5.7 6.4 -0
vt -1.08002e-12 251.969
f 92/60/25 95/137/25 96/138/25 93/69/25 

vn -3.99474e-15 3.40912e-15 1
f 95/136/26 29/32/26 96/99/26

vt 232.283 3.16336e-27
f 95/136/26 25/139/26 29/32/26

vt 6.89088e-13 9.38436e-42
f 25/139/26 95/136/26 36/140/26

v 0.2 2 -0
vt 7.87402 78.7402
f 97/141/26 36/140/26 95/136/26

v 1.75028e-14 7 -0
vt 6.89088e-13 275.591
f 36/140/26 97/141/26 98/142/26

v 0.2 6.4 -0
f 98/142/26 97/141/26 99/100/26

v 0.2 2 -0.2
v 0.2 6.4 -0.2
vt 0 251.969
vt 0 78.7402
f 100/141/3 101/100/3 99/143/3 97/144/3 

v 0.2 2 -5.7
v 0.2 7 -5.7
v 0.2 7 -0.2
f 100/141/3 102/136/3 103/86/3 104/55/3 101/100/3 

v 1.7 2 -5.7
v 1.7 7 -5.7
f 102/141/14 105/53/14 106/54/14 103/55/14 

v 1.7 2 -5.9
v 1.7 7 -5.9
f 105/136/3 107/24/3 108/31/3 106/86/3 

vt -2.05274e-12 -4.45478e-13
vn -5.87063e-15 1.91782e-15 -1
v 1.75028e-14 7 -5.9
vt -2.05274e-12 275.591
v 0.2 7 -5.9
vt -66.9291 -4.45478e-13
f 37/145/27 109/146/27 110/61/27 108/62/27 107/59/27 38/147/27 

vt 0 0
vt 0 275.591
f 36/148/1 98/149/1 109/73/1 37/2/1 

vn -1 1.39469e-13 -2.46413e-15
vt -1.698e-27 275.591
vt -3.24007e-12 283.465
f 109/73/28 98/150/28 84/151/28 83/94/28 

vt 1.21489e-12 283.465
f 98/142/26 29/32/26 84/152/26

f 99/100/26 29/32/26 98/142/26

f 96/99/26 29/32/26 99/100/26

vt -7.87402 0
vt -7.87402 7.87402
vt -224.409 7.87402
vt -224.409 0
f 99/153/5 101/154/5 93/155/5 96/156/5 

f 101/69/8 104/61/8 94/84/8 93/74/8 

vt -7.87402 224.409
vt -66.9291 224.409
vt -165.354 224.409
vt -224.409 224.409
f 94/155/5 104/154/5 103/157/5 106/158/5 108/43/5 86/39/5 89/159/5 91/160/5 

vn -3.65768e-14 1 -2.74326e-13
vt 7.87402 232.283
vt 7.87402 224.409
f 108/129/29 110/161/29 103/162/29 106/128/29 

vt 1.34306e-12 283.465
vn 1.59405e-14 -5.21404e-13 -1
vt -66.9291 283.465
vt 3.01362e-12 275.591
f 83/163/30 75/164/30 108/62/30 110/61/30 109/165/30 

vn 6.54533e-15 -2.47303e-14 -1
vt -66.9291 342.52
v 4.2 8.7 -5.9
vt -165.354 342.52
f 75/164/31 80/166/31 111/167/31 81/133/31 86/83/31 108/62/31 

vn -7.42125e-14 -1 -8.17414e-14
v 4.2 8.7 -15.5
f 80/43/32 79/44/32 112/38/32 111/39/32 

vt 165.354 342.52
vn -1.03955e-14 -5.39027e-14 1
vt 66.9291 342.52
f 112/168/33 79/169/33 72/108/33 71/107/33 

vt 224.409 283.465
vn 1 -3.45146e-14 4.16256e-15
vt 232.283 342.52
vt 610.236 342.52
vt 618.11 283.465
v 4.2 8.9 -15.7
vt 618.11 350.394
v 4.2 8.9 -5.7
vt 224.409 350.394
f 82/170/34 81/32/34 111/171/34 112/172/34 71/93/34 74/173/34 113/174/34 114/175/34 

vt -165.354 350.394
vn 9.96238e-15 8.1215e-14 -1
vt -66.9291 350.394
f 113/176/35 74/133/35 73/164/35 78/177/35 

f 114/127/2 113/115/2 78/114/2 77/128/2 

vt 165.354 350.394
vt 66.9291 350.394
f 76/108/14 82/107/14 114/178/14 77/179/14 

vt 224.409 224.409
vn 3.65768e-14 1 -2.74326e-13
vt 224.409 232.283
f 91/180/36 85/181/36 86/126/36 89/127/36 

