# Alias OBJ Model File
# Exported from SketchUp, (c) 2000-2012 Trimble Navigation Limited
# File units = meters

mtllib Stage_1-1.mtl

g Mesh1 __1 __ Model

usemtl FrontColor
v 22.9 4 -20.2
vt 893.701 787.402
vn 5.25026e-16 1 1.92543e-31
v 17.4 4 -20.2
vt 677.165 787.402
v 17.4 4 -16.2
vt 677.165 629.921
v 22.9 4 -16.2
vt 893.701 629.921
f 1/1/1 2/2/1 3/3/1 4/4/1 

v 12.7 2 -20.2
vt -787.402 452.832
vn -0.391555 0.920155 -2.54882e-17
v 12.7 2 -16.2
vt -629.921 452.832
vt -629.921 653.928
vt -787.402 653.928
f 5/5/2 6/6/2 3/7/2 2/8/2 

v 12.5 2 -16.2
vt 484.252 629.921
vn 2.8491e-18 1 -1.01852e-16
vt 492.126 629.921
vt 492.126 787.402
v 0.2 2 -20.2
vt 8.88178e-16 787.402
v 0.2 2 -10.2
vt -1.61953e-31 393.701
v 12.5 2 -10.2
vt 484.252 393.701
f 7/9/3 6/10/3 5/11/3 8/12/3 9/13/3 10/14/3 

g Mesh2 __1 __ Model

v 12.5 2 -0.2
vt 484.252 -2.25434e-46
vn -1.28971e-33 1 3.60956e-16
v 12.5 2 -5.2
vt 484.252 196.85
v 0.2 2 -5.2
vt 9.16397e-47 196.85
v 0.2 2 -0.2
vt 8.88178e-16 -4.13473e-64
f 11/15/4 12/16/4 13/17/4 14/18/4 

g Mesh3 __ Model

vn 5.25026e-16 1 -7.21911e-15
v 22.9 4 -20.4
vt 893.701 795.276
v 17.4 4 -20.4
vt 677.165 795.276
f 2/2/5 1/1/5 15/19/5 16/20/5 

g Mesh4 _ Model

v 17.4 2 -20.2
vt -795.276 78.7402
vn -1 0 -7.21911e-16
v 17.4 2 -16.2
vt -637.795 78.7402
v 17.4 4 -16.2
vt -637.795 157.48
v 17.4 4 -20.2
vt -795.276 157.48
f 17/21/6 18/22/6 19/23/6 20/24/6 

vt 685.039 795.276
vn -4.99194e-16 1 1.35358e-16
v 12.7 2 -20.2
vt 500 795.276
v 12.7 2 -16.2
vt 500 637.795
vt 685.039 637.795
f 17/25/7 21/26/7 22/27/7 18/28/7 

vt 685.039 78.7402
vn 0 0 1
vt 685.039 157.48
vt 500 78.7402
f 17/29/8 20/30/8 21/31/8

v 0.2 2 -20.2
vt 7.87402 78.7402
v 17.4 8.5 -20.2
vt 685.039 334.646
v 22.9 8.5 -20.2
vt 901.575 334.646
v 22.9 9 -20.2
vt 901.575 354.331
v 0.2 9 -20.2
vt 7.87402 354.331
f 23/32/8 21/31/8 20/30/8 24/33/8 25/34/8 26/35/8 27/36/8 

v 17.4 4 -20.4
vt 803.15 157.48
vn 1 0 -0
v 17.4 8.5 -20.4
vt 803.15 334.646
vt 795.276 334.646
vt 795.276 157.48
f 28/37/9 29/38/9 24/39/9 20/40/9 

vt -685.039 157.48
vn 0 0 -1
v 0 9 -20.4
vt 0 354.331
vt -685.039 334.646
f 28/41/10 30/42/10 29/43/10

v 23.1 2.88765e-15 -20.4
vt -909.449 1.13687e-13
f 31/44/10 30/42/10 28/41/10

v 0 2.88765e-15 -20.4
vt 0 1.13687e-13
f 30/42/10 31/44/10 32/45/10

v 12.7 2.88765e-15 -16
vt -500 629.921
vn 0 -1 -0
vt 0 803.15
vt -909.449 803.15
f 33/46/11 32/47/11 31/48/11

v 0.2 0 -10.2
vt -7.87402 401.575
f 34/49/11 32/47/11 33/46/11

v 0 2.88765e-15 -0
vt 0 0
f 32/47/11 34/49/11 35/50/11

v 0.2 3.60956e-16 -5.2
vt -7.87402 204.724
f 36/51/11 35/50/11 34/49/11

v 12.7 2.88765e-15 -0
vt -500 0
f 35/50/11 36/51/11 37/52/11

v 12.5 3.60956e-16 -5.2
vt -492.126 204.724
f 37/52/11 36/51/11 38/53/11

v 0.2 2 -5.2
vt -7.87402 78.7402
vn 0 -7.21911e-17 -1
v 12.5 2 -5.2
vt -492.126 78.7402
vt -492.126 2.89901e-14
vt -7.87402 2.89901e-14
f 39/54/12 40/55/12 38/56/12 36/57/12 

vt -204.724 1.42109e-14
vn -1 -2.4868e-49 1.79525e-65
vt -204.724 78.7402
v 12.5 9 -5.2
vt -204.724 354.331
v 12.5 9 -10.2
vt -401.575 354.331
v 12.5 2 -10.2
vt -401.575 78.7402
v 12.5 0 -10.2
vt -401.575 -1.22382e-46
f 38/58/13 40/59/13 41/60/13 42/61/13 43/62/13 44/63/13 

vn -1 0 -2.88765e-16
v 12.5 2 -0.2
v 12.5 9 -0.2
vt -7.87402 354.331
f 40/59/14 45/54/14 46/64/14 41/60/14 

v 0.2 2 -0.2
v 0.2 9 -0.2
vt -492.126 354.331
f 45/55/10 47/54/10 48/64/10 46/65/10 

vn 1 0 -4.51195e-18
vt 204.724 78.7402
v 0.2 9 -5.2
vt 204.724 354.331
f 47/32/15 39/66/15 49/67/15 48/36/15 

vt 401.575 -1.95811e-48
vn 1 2.4868e-49 -1.79525e-65
v 0.2 2 -10.2
vt 401.575 78.7402
v 0.2 9 -10.2
vt 401.575 354.331
vt 204.724 1.42109e-14
f 34/68/16 50/69/16 51/70/16 49/67/16 39/66/16 36/71/16 

vt 492.126 78.7402
vn 0 7.21911e-17 1
vt 7.87402 2.89901e-14
vt 492.126 2.89901e-14
f 43/72/17 50/32/17 34/73/17 44/74/17 

vt -492.126 401.575
f 34/49/11 33/46/11 44/75/11

f 44/75/11 33/46/11 38/53/11

f 37/52/11 38/53/11 33/46/11

v 12.7 9 -0
vt 629.921 1.13687e-13
v 12.7 9 -16
vt 629.921 354.331
f 52/42/9 37/45/9 33/76/9 53/77/9 

vt 500 1.13687e-13
vt 500 354.331
v 0 9 -0
f 35/45/8 37/78/8 52/79/8 54/42/8 

vt 7.87402 7.87402
vn 0 1 -0
vt 500 0
f 48/80/18 54/50/18 52/81/18

f 54/50/18 48/80/18 30/47/18

vt 7.87402 204.724
f 30/47/18 48/80/18 49/82/18

vt 7.87402 401.575
f 51/83/18 30/47/18 49/82/18

vt 7.87402 795.276
f 27/84/18 30/47/18 51/83/18

v 22.9 9 -20.4
vt 901.575 803.15
f 30/47/18 27/84/18 55/85/18

vt 901.575 795.276
f 55/85/18 27/84/18 26/86/18

v 23.1 9 -16
vt 909.449 629.921
f 26/86/18 56/87/18 55/85/18

v 22.9 9 -16.2
vt 901.575 637.795
f 57/88/18 56/87/18 26/86/18

v 17.4 9 -16.2
f 58/28/18 56/87/18 57/88/18

vt 500 629.921
f 58/28/18 53/89/18 56/87/18

v 12.5 9 -16.2
vt 492.126 637.795
f 59/90/18 53/89/18 58/28/18

vt 492.126 401.575
f 53/89/18 59/90/18 42/91/18

v 12.5 2 -16.2
vn -1 0 2.40637e-16
vt -637.795 354.331
f 60/22/19 43/62/19 42/61/19 59/92/19 

vt -685.039 354.331
vt -500 78.7402
f 58/93/10 19/41/10 22/94/10 60/55/10 59/65/10 

v 22.9 4 -16.2
vt -901.575 157.48
vt -901.575 354.331
f 61/95/10 19/41/10 58/93/10 57/96/10 

v 22.9 4 -20.2
vn -1 0 -0
vt -795.276 354.331
vt -795.276 334.646
f 62/24/20 61/23/20 57/92/20 26/97/20 25/98/20 

v 22.9 8.5 -20.4
vt -803.15 334.646
v 22.9 4 -20.4
vt -803.15 157.48
f 62/24/20 25/98/20 63/99/20 64/100/20 

vt -685.039 795.276
vn 0 -1 1.44382e-14
vt -685.039 803.15
vt -901.575 803.15
vt -901.575 795.276
f 24/101/21 29/102/21 63/103/21 25/104/21 

vt -901.575 334.646
f 29/43/10 30/42/10 63/105/10

v 23.1 9 -20.4
vt -909.449 354.331
f 65/106/10 63/105/10 30/42/10

f 65/106/10 64/95/10 63/105/10

f 64/95/10 65/106/10 31/44/10

v 23.1 2.88765e-15 -16
vt 803.15 1.13687e-13
vt 803.15 354.331
f 66/76/9 31/107/9 65/108/9 56/77/9 

vt -909.449 629.921
f 33/46/11 31/48/11 66/109/11

vt 909.449 1.13687e-13
vt 909.449 354.331
f 66/110/8 56/111/8 53/79/8 33/78/8 

vt 909.449 803.15
f 55/85/18 56/87/18 65/112/18

f 65/106/10 30/42/10 55/96/10

f 31/44/10 28/41/10 64/95/10

vt -685.039 78.7402
f 18/113/10 22/94/10 19/41/10

f 53/89/18 42/91/18 52/81/18

vt 492.126 204.724
f 41/114/18 52/81/18 42/91/18

vt 492.126 7.87402
f 46/115/18 52/81/18 41/114/18

f 48/80/18 52/81/18 46/115/18

vn 1 0 2.25597e-18
vt 795.276 78.7402
vt 795.276 354.331
f 50/69/22 23/116/22 27/117/22 51/70/22 

vt -803.15 1.13687e-13
vt -803.15 354.331
f 32/118/20 35/45/20 54/42/20 30/119/20 

g Mesh5 __2 Model

v 0 9 -20.4
v 23.1 9 -20.4
v 23.1 9 -15.9992
vt -909.449 629.888
v 12.7 9 -15.9992
vt -500 629.888
v 12.7 9 1.15506e-14
v 0 9 1.15506e-14
f 67/47/11 68/48/11 69/120/11 70/121/11 71/52/11 72/50/11 

g Mesh6 __2 Model

v 23.1 9.2 -20.4
v 0 9.2 -20.4
v 0 9.2 1.15506e-14
v 12.7 9.2 1.15506e-14
v 12.7 9.2 -15.9992
vt 500 629.888
v 23.1 9.2 -15.9992
vt 909.449 629.888
f 73/112/18 74/47/18 75/50/18 76/81/18 77/122/18 78/123/18 

g Mesh7 Model

vt 0 362.205
vt -909.449 362.205
f 68/106/10 67/42/10 74/124/10 73/125/10 

vt 4.54747e-13 354.331
vt 4.54747e-13 362.205
vt -803.15 362.205
f 67/119/20 72/126/20 75/127/20 74/128/20 

vt 500 362.205
f 72/42/8 71/79/8 76/129/8 75/124/8 

vt 629.888 354.331
vt 629.888 362.205
vt -4.54747e-13 362.205
vt -4.54747e-13 354.331
f 70/130/9 77/131/9 76/132/9 71/133/9 

vt 909.449 362.205
f 78/134/8 77/129/8 70/79/8 69/111/8 

vt 803.15 362.205
f 69/130/9 68/108/9 73/135/9 78/131/9 

