# Alias OBJ Model File
# Exported from SketchUp, (c) 2000-2012 Trimble Navigation Limited
# File units = meters

mtllib Stage_1-6.mtl

g Mesh1 Group1 Model

usemtl FrontColor
v 25.7 2 -0.00203361
vt 777.559 0
vn 0 1 -0
v 25.7 2 -5.70203
vt 777.559 224.409
v 20.2 2 -5.70203
vt 561.024 224.409
v 20.2 2 -0.00203361
vt 561.024 0
f 1/1/1 2/2/1 3/3/1 4/4/1 

g Mesh2 Group1 Model

v 34.85 2 -10.452
vt 1137.8 411.417
v 40.55 2 -10.452
vt 1362.2 411.417
v 40.55 2 -15.552
vt 1362.2 612.205
v 34.85 2 -15.552
vt 1137.8 612.205
f 5/5/1 6/6/1 7/7/1 8/8/1 

v 34.65 2 -15.552
vt 1129.92 612.205
v 34.65 2 -10.452
vt 1129.92 411.417
f 5/5/1 8/8/1 9/9/1 10/10/1 

g Mesh3 Group1 Model

v 49.75 2 -14.702
vt 1724.41 578.74
v 46.55 2 -14.702
vt 1598.43 578.74
v 46.55 2 -11.902
vt 1598.43 468.504
v 49.75 2 -11.902
vt 1724.41 468.504
f 11/11/1 12/12/1 13/13/1 14/14/1 

g Mesh4 Group1 Model

v 20.4 2 -34.202
vt 568.898 1346.46
v 20.4 2 -28.702
vt 568.898 1129.92
v 25.9 2 -28.702
vt 785.433 1129.92
v 25.9 2 -34.202
vt 785.433 1346.46
f 15/15/1 16/16/1 17/17/1 18/18/1 

v 25.9 2 -34.402
vt 785.433 1354.33
v 20.4 2 -34.402
vt 568.898 1354.33
f 15/15/1 18/18/1 19/19/1 20/20/1 

g Mesh5 Group1 Model

v 5.95 2 -10.452
vt 0 411.417
v 11.65 2 -10.452
vt 224.409 411.417
v 11.65 2 -16.132
vt 224.409 635.039
v 5.95 2 -16.132
vt 0 635.039
f 21/21/1 22/22/1 23/23/1 24/24/1 

g Mesh6 Group2 Model

v 25.9 0 -0.00203361
vt -793.307 0
vn 0 -1 -0
v 20 0 -0.00203361
vt -561.024 0
v 20 0 -5.70203
vt -561.024 224.409
v 25.9 0 -5.70203
vt -793.307 224.409
f 25/25/2 26/26/2 27/27/2 28/28/2 

vt 793.307 0
vn 0 0 1
vt 785.433 78.7402
f 25/29/3 1/30/3 26/4/3

v 25.9 7.2 -0.00203361
vt 793.307 283.465
f 1/30/3 25/29/3 29/31/3

vt 0 0
vn 1 0 -0
vt 224.409 0
v 25.9 7.2 -5.70203
vt 224.409 283.465
vt 0 283.465
f 25/32/4 28/33/4 30/34/4 29/35/4 

vn 0 0 -1
v 20 7 -5.70203
vt -561.024 275.591
v 20.2 7 -5.70203
vt -568.898 275.591
vt -568.898 78.7402
vt -785.433 78.7402
v 25.7 7 -5.70203
vt -785.433 275.591
v 20 7 -5.70203
v 20 7 -5.70203
v 20 7.2 -5.70203
vt -561.024 283.465
vt -793.307 283.465
f 27/26/5 31/36/5 32/37/5 3/38/5 2/39/5 33/40/5 34/36/5 35/36/5 36/41/5 30/42/5 28/25/5 

vt -224.409 0
vn -1 0 -0
v 20 7 -0.00203361
vt 0 275.591
vt -224.409 275.591
f 27/43/6 26/32/6 37/44/6 31/45/6 

vt 568.898 78.7402
vt 561.024 275.591
f 26/4/3 4/46/3 37/47/3

f 4/46/3 26/4/3 1/30/3

v 20.2 6.4 -0.00203361
vt 568.898 251.969
f 37/47/3 4/46/3 38/48/3

vt 1.5485e-14 78.7402
vn 1 6.00954e-16 2.72192e-17
vt 224.409 78.7402
vt 224.409 275.591
v 20.2 7 -0.202034
vt 7.87402 275.591
v 20.2 6.4 -0.202034
vt 7.87402 251.969
vt 1.5485e-14 251.969
f 4/49/7 3/50/7 32/51/7 39/52/7 40/53/7 38/54/7 

v 25.7 7 -0.202034
vt -785.433 7.87402
vt -568.898 7.87402
vt -568.898 224.409
vt -785.433 224.409
f 41/55/2 39/56/2 32/57/2 33/58/2 

v 25.7 6.4 -0.202034
vt -785.433 251.969
vt -568.898 251.969
f 41/40/5 42/59/5 40/60/5 39/37/5 

vt 0 78.7402
v 25.7 6.4 -0.00203361
vt 0 251.969
vt -7.87402 251.969
vt -7.87402 275.591
vt -224.409 78.7402
f 1/61/6 43/62/6 42/63/6 41/64/6 33/45/6 2/65/6 

vt 785.433 251.969
f 1/30/3 29/31/3 43/66/3

f 43/66/3 29/31/3 38/48/3

f 38/48/3 29/31/3 37/47/3

v 20 7.2 -0.00203361
vt 561.024 283.465
f 37/47/3 29/31/3 44/67/3

vt 793.307 224.409
f 30/68/1 36/3/1 44/4/1 29/29/1 

vt -224.409 283.465
f 36/69/6 31/45/6 37/44/6 44/35/6 

v 20.2 7 -0.00203361
vt -568.898 0
f 45/70/2 37/26/2 31/27/2 32/57/2 39/56/2 

vt -785.433 0
f 42/55/2 43/71/2 38/70/2 40/56/2 

g Mesh7 Group2 Model

v 11.65 7 -16.332
vt 232.283 642.913
v 5.95 7 -16.332
vt 7.87402 642.913
v 5.95 7 -16.132
vt 7.87402 635.039
v 11.65 7 -16.132
vt 232.283 635.039
f 46/72/1 47/73/1 48/74/1 49/75/1 

v 5.75 1.08287e-15 -16.332
vt 0 4.26326e-14
v 5.75 7 -16.332
vt -232.283 275.591
v 11.65 1.08287e-15 -16.332
vt -232.283 4.26326e-14
f 50/76/5 51/44/5 47/64/5 46/77/5 52/78/5 

v 5.75 1.08287e-15 -10.252
vt -403.543 4.26326e-14
v 5.75 7.2 -10.252
vt -403.543 283.465
v 5.75 7.2 -16.332
vt -642.913 283.465
vt -642.913 275.591
vt -642.913 4.26326e-14
f 53/79/6 54/80/6 55/81/6 51/82/6 50/83/6 

v 11.65 1.08287e-15 -10.252
vt 232.283 4.26326e-14
v 11.65 7.2 -10.252
vt 232.283 283.465
f 56/84/3 57/85/3 54/35/3 53/76/3 

vt 642.913 4.26326e-14
vt 642.913 275.591
vt 635.039 275.591
vt 635.039 78.7402
vt 411.417 78.7402
v 11.65 7 -10.452
vt 411.417 275.591
v 11.65 7 -16.332
v 11.65 7 -16.332
v 11.65 7.2 -16.332
vt 642.913 283.465
vt 403.543 283.465
vt 403.543 4.26326e-14
f 52/86/4 46/87/4 49/88/4 23/89/4 22/90/4 58/91/4 59/87/4 60/87/4 61/92/4 57/93/4 56/94/4 

vt 7.87402 78.7402
vt 232.283 78.7402
vt 232.283 275.591
f 24/95/3 23/96/3 49/97/3 48/52/3 

v 5.95 7 -10.452
vt -7.87402 411.417
vt -7.87402 635.039
vt -232.283 635.039
vt -232.283 411.417
f 62/98/2 48/99/2 49/100/2 58/101/2 

f 21/90/4 24/89/4 48/88/4 62/91/4 

vt -7.87402 78.7402
vt -232.283 78.7402
f 21/102/5 62/64/5 58/77/5 22/103/5 

vt -232.283 283.465
vn 0 -1.44382e-14 -1
v 5.95 7.2 -16.332
vt -7.87402 283.465
f 61/104/8 46/77/8 47/64/8 63/105/8 

vn -7.21911e-15 -7.21911e-15 -1
vt -4.64127e-12 275.591
vt -4.64127e-12 283.465
f 47/64/9 51/106/9 55/107/9 63/105/9 

vt 232.283 403.543
vt 0 642.913
vt 0 403.543
f 57/108/1 61/72/1 63/73/1 55/109/1 54/110/1 

vt -232.283 642.913
vt -232.283 403.543
f 52/111/2 56/112/2 53/110/2 50/109/2 

g Mesh8 Group2 Model

v 26.1 0 -34.402
vt 1354.33 0
v 26.1 7 -34.402
vt 1354.33 275.591
v 26.1 7 -34.202
vt 1346.46 275.591
v 26.1 7 -28.702
vt 1129.92 275.591
v 26.1 0 -28.702
vt 1129.92 0
f 64/113/4 65/114/4 66/115/4 67/116/4 68/117/4 

vt -801.181 0
vt -793.307 78.7402
vt -801.181 275.591
f 64/118/5 19/119/5 65/120/5

vt -576.772 78.7402
f 19/119/5 64/118/5 20/121/5

v 20.2 0 -34.402
f 69/70/5 20/121/5 64/118/5

v 20.2 7.2 -34.402
vt -568.898 283.465
f 20/121/5 69/70/5 70/122/5

v 20.2 0 -28.702
vt -1129.92 0
v 20.2 7.2 -28.702
vt -1129.92 283.465
v 20.2 7.2 -34.202
vt -1346.46 283.465
vt -1354.33 283.465
vt -1354.33 0
f 71/123/6 72/124/6 73/125/6 70/126/6 69/127/6 

vt 801.181 0
vt 801.181 275.591
v 25.9 7 -28.702
vt 793.307 275.591
vt 793.307 78.7402
vt 576.772 78.7402
v 20.4 7 -28.702
vt 576.772 275.591
v 26.1 7 -28.702
v 26.1 7 -28.702
v 26.1 7.2 -28.702
vt 801.181 283.465
vt 568.898 283.465
vt 568.898 0
f 68/128/3 67/129/3 74/130/3 17/131/3 16/132/3 75/133/3 76/129/3 77/129/3 78/134/3 72/135/3 71/136/3 

vt 801.181 1129.92
vt 801.181 1346.46
v 25.9 7 -34.202
vt 793.307 1346.46
vt 793.307 1129.92
f 67/137/1 66/138/1 79/139/1 74/140/1 

vt 1129.92 283.465
v 26.1 7.2 -34.202
vt 1346.46 283.465
f 78/141/4 67/116/4 66/115/4 80/142/4 

v 26.1 7.2 -34.402
vt 1354.33 283.465
f 80/142/4 66/115/4 65/114/4 81/143/4 

vt -793.307 1346.46
v 25.9 7 -34.402
vt -793.307 1354.33
vt -801.181 1354.33
vt -801.181 1346.46
f 79/144/2 82/145/2 65/146/2 66/147/2 

vt -801.181 283.465
f 65/120/5 70/122/5 81/148/5

v 25.9 6.4 -34.402
vt -793.307 251.969
f 83/149/5 70/122/5 65/120/5

v 20.4 6.4 -34.402
vt -576.772 251.969
f 84/150/5 70/122/5 83/149/5

f 20/121/5 70/122/5 84/150/5

vt 1354.33 78.7402
vn 1 3.28142e-16 -7.21911e-15
vt 1354.33 251.969
v 20.4 6.4 -34.202
vt 1346.46 251.969
vt 1346.46 78.7402
f 20/151/10 84/152/10 85/153/10 15/154/10 

vt -576.772 1346.46
vt -576.772 1354.33
v 25.9 6.4 -34.202
f 85/155/2 84/156/2 83/145/2 86/144/2 

vt -1354.33 78.7402
vt -1346.46 78.7402
vt -1346.46 251.969
vt -1354.33 251.969
f 19/157/6 18/158/6 86/159/6 83/160/6 

vt -1129.92 78.7402
vt -1129.92 275.591
vt -1346.46 275.591
f 18/158/6 17/161/6 74/162/6 79/163/6 86/159/6 

vt -576.772 1129.92
v 20.4 7 -34.202
vt -793.307 1129.92
f 75/164/2 87/155/2 79/144/2 74/165/2 

vn 1 5.93544e-16 -1.91569e-17
vt 1129.92 78.7402
f 15/154/11 85/153/11 87/115/11 75/116/11 16/166/11 

vt 576.772 251.969
vt 793.307 251.969
f 87/133/3 85/167/3 86/168/3 79/130/3 

f 65/120/5 19/119/5 83/149/5

vt 801.181 1354.33
f 70/20/1 73/15/1 80/138/1 81/169/1 

f 72/16/1 78/137/1 80/138/1 73/15/1 

vt -568.898 1129.92
vt -568.898 1354.33
vt -801.181 1129.92
f 71/170/2 69/171/2 64/146/2 68/172/2 

g Mesh9 Group2 Model

v 34.85 6.8 -15.552
vt -1145.67 612.205
v 40.55 6.8 -15.552
vt -1370.08 612.205
v 40.55 6.8 -10.452
vt -1370.08 411.417
v 34.85 6.8 -10.452
vt -1145.67 411.417
f 88/173/2 89/174/2 90/175/2 91/176/2 

vt 1370.08 78.7402
vt 1370.08 267.717
vt 1145.67 267.717
vt 1145.67 78.7402
f 7/177/3 89/178/3 88/179/3 8/180/3 

vt 612.205 78.7402
v 40.55 1.08287e-15 -15.752
vt 620.079 4.26326e-14
vt 612.205 267.717
f 7/181/4 92/182/4 89/183/4

f 6/90/4 92/182/4 7/181/4

v 40.55 1.08287e-15 -10.252
f 6/90/4 93/94/4 92/182/4

v 40.55 7 -10.252
vt 403.543 275.591
f 93/94/4 6/90/4 94/184/4

v 40.55 7 -10.452
f 6/90/4 95/91/4 94/184/4

vt 411.417 267.717
f 95/91/4 6/90/4 90/185/4

vt -1370.08 78.7402
vt -1145.67 78.7402
vt -1145.67 267.717
vt -1370.08 267.717
f 6/186/5 5/187/5 91/188/5 90/189/5 

v 34.65 2 -10.452
vt -1137.8 78.7402
v 34.65 6.8 -10.452
vt -1137.8 267.717
f 91/188/5 5/187/5 96/190/5 97/191/5 

vt -411.417 78.7402
v 34.65 7 -10.452
vt -411.417 275.591
vt -411.417 267.717
f 96/192/6 98/193/6 97/194/6

v 34.65 1.08287e-15 -10.252
f 99/79/6 98/193/6 96/192/6

v 34.65 7 -10.252
vt -403.543 275.591
f 98/193/6 99/79/6 100/195/6

vt 1370.08 4.26326e-14
vt 1370.08 275.591
vt 1137.8 275.591
vt 1137.8 4.26326e-14
f 93/196/3 94/197/3 100/198/3 99/199/3 

vt 1370.08 411.417
v 34.85 7 -10.452
vt 1145.67 411.417
vt 1137.8 403.543
vt 1370.08 403.543
f 95/200/1 101/201/1 98/5/1 100/202/1 94/203/1 

v 34.65 7 -15.752
vt 1137.8 620.079
v 40.55 7 -15.752
vt 1370.08 620.079
f 102/204/1 98/5/1 101/201/1 95/200/1 103/205/1 

vt -620.079 275.591
f 102/206/6 97/194/6 98/193/6

v 34.65 6.8 -15.552
vt -612.205 267.717
f 97/194/6 102/206/6 104/207/6

v 34.65 2 -15.552
vt -612.205 78.7402
f 104/207/6 102/206/6 105/208/6

v 34.65 1.08287e-15 -15.752
vt -620.079 4.26326e-14
f 106/209/6 105/208/6 102/206/6

f 106/209/6 96/192/6 105/208/6

f 99/79/6 96/192/6 106/209/6

vt -1137.8 620.079
vt -1370.08 620.079
vt -1370.08 403.543
vt -1137.8 403.543
f 106/210/2 92/211/2 93/212/2 99/213/2 

vt -1137.8 4.26326e-14
vt -1137.8 275.591
vt -1370.08 275.591
vt -1370.08 4.26326e-14
f 106/214/5 102/215/5 103/216/5 92/217/5 

vt 620.079 275.591
f 103/218/4 89/183/4 92/182/4

f 95/91/4 89/183/4 103/218/4

f 95/91/4 90/185/4 89/183/4

vt 1137.8 267.717
vt 1137.8 78.7402
f 8/180/3 88/179/3 104/219/3 105/220/3 

vt -1137.8 612.205
vt -1137.8 411.417
f 104/221/2 88/173/2 91/176/2 97/222/2 

g Mesh10 Group2 Model

v 46.55 1.44382e-15 -14.902
vt -1606.3 5.68434e-14
v 46.55 6 -14.902
vt -1606.3 236.22
v 49.95 6 -14.902
vt -1740.16 236.22
v 49.95 1.44382e-15 -14.902
vt -1740.16 5.68434e-14
f 107/223/5 108/224/5 109/225/5 110/226/5 

v 46.55 1.44382e-15 -11.702
vt -460.63 5.68434e-14
v 46.55 6 -11.702
vt -460.63 236.22
v 46.55 6 -11.902
vt -468.504 236.22
vt -468.504 78.7402
vt -578.74 78.7402
v 46.55 6 -14.702
vt -578.74 236.22
vt -586.614 236.22
vt -586.614 5.68434e-14
f 111/227/6 112/228/6 113/229/6 13/230/6 12/231/6 114/232/6 108/233/6 107/234/6 

v 49.95 1.44382e-15 -11.702
vt 1740.16 5.68434e-14
v 49.95 6 -11.702
vt 1740.16 236.22
vt 1606.3 236.22
vt 1606.3 5.68434e-14
f 115/235/3 116/236/3 112/237/3 111/238/3 

vt 586.614 5.68434e-14
vt 586.614 236.22
vt 460.63 236.22
vt 460.63 5.68434e-14
f 110/239/4 109/240/4 116/241/4 115/242/4 

v 49.75 6 -11.902
vt 1732.28 468.504
vt 1606.3 468.504
vt 1606.3 460.63
vt 1740.16 460.63
vt 1740.16 586.614
vt 1606.3 586.614
vt 1606.3 578.74
v 49.75 6 -14.702
vt 1732.28 578.74
f 117/243/1 113/244/1 112/245/1 116/246/1 109/247/1 108/248/1 114/249/1 118/250/1 

vt -1732.28 78.7402
vt -1606.3 78.7402
vt -1732.28 236.22
f 14/251/5 13/252/5 113/224/5 117/253/5 

f 11/231/6 14/230/6 117/229/6 118/232/6 

vt 1606.3 78.7402
vt 1732.28 78.7402
vt 1732.28 236.22
f 12/254/3 11/255/3 118/256/3 114/237/3 

vt -1606.3 460.63
vt -1606.3 586.614
vt -1740.16 586.614
vt -1740.16 460.63
f 111/257/2 107/258/2 110/259/2 115/260/2 

